<?xml version="1.0" encoding="utf-8"?>
<!-- Generator: Adobe Illustrator 26.0.1, SVG Export Plug-In . SVG Version: 6.00 Build 0)  -->
<svg version="1.1" id="Capa_1" xmlns="http://www.w3.org/2000/svg" xmlns:xlink="http://www.w3.org/1999/xlink" x="0px" y="0px"
	 viewBox="0 0 210.9 217.3" style="enable-background:new 0 0 210.9 217.3;" xml:space="preserve">
<style type="text/css">
	.st0{fill:url(#);}
	.st1{fill-rule:evenodd;clip-rule:evenodd;fill:url(#SVGID_1_);}
	.st2{fill-rule:evenodd;clip-rule:evenodd;fill:#FFFF00;fill-opacity:0.3961;}
	.st3{fill-rule:evenodd;clip-rule:evenodd;fill:#0066FF;fill-opacity:0.3922;}
	.st4{fill-rule:evenodd;clip-rule:evenodd;fill:#FF0000;fill-opacity:0.3882;}
	.st5{fill-rule:evenodd;clip-rule:evenodd;fill:#373535;}
	.st6{fill-rule:evenodd;clip-rule:evenodd;fill:#DBD0E8;fill-opacity:0.8;}
	.st7{fill:none;stroke:#FFFFFF;stroke-width:1.3255;stroke-miterlimit:7.797;}
	.st8{fill-rule:evenodd;clip-rule:evenodd;fill:#FFFFFF;}
	.st9{fill-rule:evenodd;clip-rule:evenodd;fill:#C9B9DC;}
</style>
<g transform="matrix(1.0, 0.0, 0.0, 1.0, 0.0, 0.0)">
	<g transform="matrix(1.0, 0.0, 0.0, 1.0, -5.1, -9.25)">
		<g id="shape0" transform="matrix(1.0, 0.0, 0.0, 1.0, 5.1, 9.25)">
			<g>
				<path class="st5" d="M13.8,0.9c-0.3-1-0.2-1.5,0.1-1.6c0.3-0.1,0.8,0.1,1.4,0.6l1.8,1.6L18.3,3c-0.1,1.4-0.1,2.6,0.1,3.4
					c0.2,1.1,0.6,1.9,1.2,2.4c3.5-2.5,6.4-4.3,8.8-5.4c3.6-1.7,7.3-2.7,10.9-2.9c4.1-0.2,8.2,0.3,12.3,1.4c4.2,1.1,7.6,2.7,10.3,4.8
					C63,7.6,64.4,9,66,10.8l4.1,4.8c3,3.5,6.5,8.6,10.5,15.2l4.9,8l4.7,7.6l3.8,0.4l3.3-0.4l3.2-0.4c1.2-0.1,2.2,0.1,3.2,0.5
					c1.7,0.6,3.5,1.8,5.3,3.5c1.2,1.1,2.8,2.6,4.6,4.8l4.2,5.5c1.6,2.2,2.9,3.6,3.9,4.3c1.1,0.7,2.3,1.1,3.6,1.1
					c1,0,2.2-0.3,3.7-0.9l3.7-1.4l3.9-0.4c1.4,0.1,2.7,0.7,4,1.6l3.2,3c1.4,1.4,2.5,2.5,3.5,3.1c1.4,1,2.9,1.5,4.5,1.6l4.4,9l4.1,9
					c3.4,7.3,6.4,13,9.2,17.2c3.5,5.5,7.4,10.5,11.5,15.2l4.7,5l4.8,5.2l1.5,1.6c0.6,0.7,0.8,1.4,0.6,2l-6-0.2l-5-1.4
					c-2.1-0.7-3.7-1.1-4.9-1.3c-1.9-0.3-3.7-0.3-5.4,0c-1.2,0.2-2.4,0.7-3.8,1.5l-3.5,2.4c-1.4,1-2.5,1.7-3.3,2.1
					c-1.2,0.5-2.3,0.7-3.4,0.5c-1.1-0.2-2-0.7-2.7-1.5l-1.7-2.8c-0.7-1.3-1.2-2.3-1.8-2.9c-0.8-1-1.8-1.6-2.9-1.8
					c-3.6,0-7.1,0.4-10.6,1.2c-2.7,0.6-5.6,1.6-8.9,2.9l-8.5,3.4c-3.3,1.3-6.3,2.2-9,2.8c-0.8-0.6-1.5-1.5-2.1-2.6l-1.4-3.3
					l-1.4-3.3c-0.6-1.2-1.3-2.1-2.1-2.6l-3.1,1.4l-3.2,1.5c-2.6,0.9-5,0.8-7.1-0.5c-0.1-3.2-1.1-6.4-2.9-9.5l-2.6-3.9l-2.7-3.8
					c-3.1-4.6-5.7-8.3-7.8-11.1l-5.4,3.9l-5.1,4.1c-3.7,3.2-6.5,6.6-8.4,10.1c3,8.2,6.6,20,10.9,35.3l5,18c2,6.7,3.8,12.6,5.4,17.6
					l4.2-0.1l4.4-0.7l3.8,0.1l3.9,0.3l3.5-0.3c1.1-0.3,2-0.9,2.8-1.8c0.1,0.4,0.4,0.6,0.8,0.8l1.4,0h1.6l1.1,0.4
					c-1.7,1-4.7,1.6-9,1.8l-5.9,0.1l-6.4,0.1l-10.7,0.8c-4.2,0.3-7.6,0.3-10.2,0.1l-0.9-0.4c-0.3-0.3-0.6-0.4-0.8-0.5
					c-2.1-0.5-5-0.5-8.7-0.1l-4.4,0.5l-4.2,0c0.3-0.5,0.9-0.9,1.8-1.2l2-0.5c1.7-0.2,3.8-0.2,6.2,0l6.4,0.4l6.7,0.3l6.6-0.7l-0.2-2
					l-0.6-1.7c0.3-0.1,0.6,0,0.8,0.5l0.4,1.8c0.2,0.8,0.4,1.3,0.8,1.6c0.4,0.4,1.1,0.5,1.9,0.2l-9.9-35.3L60.8,140l-5.6-17.1
					c-0.6-0.1-0.9,0.1-1.1,0.5c-0.1,0.3-0.2,0.8-0.1,1.5c-1.9,0.3-3.7-0.1-5.4-1.2c-1.8-1.2-2.9-2.9-3.3-5c-0.2-1.1,0-2.9,0.5-5.1
					c0.6-2.5,0.8-4.3,0.8-5.5c-0.1-1-0.3-2.1-0.6-3.1l-1.1-2.4c-0.4-0.9-0.7-1.6-0.8-2c-0.2-0.7-0.2-1.4,0.1-2
					c0.1,0.8,0.4,1.8,1,3.1l1.1,3.1c0.7-2,0.7-4.4-0.1-7.1L45,94.2l-1.3-3.4l-2.4-6.6l-2.5-6.5c-0.4,0.4-0.6,0.9-0.6,1.4
					c0,0.4,0.2,1,0.4,1.7l0.7,1.9c0.3,0.8,0.4,1.4,0.3,2c-0.3-1.2-1-2.2-2.1-3.2l-2.8-2.5c-0.2-1.1-0.2-2.5-0.2-4.2v-4.2
					c0-3.3-0.5-5.9-1.4-7.5c0.3,0.1,0.5,0.6,0.7,1.5c0.2,0.8,0.5,1.2,0.9,1.3c-0.3-3.5-1.1-7.1-2.4-10.9L30.4,50l-1.9-4.8
					c-0.1,1.1,0,2.3,0.3,3.7l1.2,3.8l1.3,3.8c0.4,1.4,0.5,2.5,0.4,3.5l-1.6-5.5l-2.1-5.1c-1.5-0.4-2.5-1.2-3.1-2.4
					c-0.4-0.9-0.6-2.2-0.6-3.8l0.1-4.6c0-1.8-0.2-3.3-0.6-4.4c0.6,0.3,0.9,1,0.8,1.9c0.2-3.1-0.5-6.6-1.9-10.4l-2-4.9l-1.9-4.7
					c-0.3,0.4-0.3,1.1,0.1,2.1l0.8,2.4l-2.1-3.5c-1.2-1.7-2.3-2.8-3.3-3.5c0.6-1.5,0.5-2.8-0.3-3.9l-1.1-1.4l-1.1-1.6
					c0.2-0.6,0.4-1.4,0.5-2.6c0.1-1.5,0.2-2.4,0.4-2.8l0.1,2.4l0.2,2.5c0.3,1.8,1.3,2.8,2.9,2.9c0-1-0.1-2.1-0.4-3.2L15,3
					c0.7,0.1,1.1,0.7,1.4,1.6c0.2,1.2,0.4,2,0.6,2.5C17.7,6.6,18,5.9,18,5c0-0.7-0.2-1.5-0.7-2.4c-0.4-0.8-0.9-1.5-1.5-2.1
					c-0.6-0.6-1.1-0.9-1.6-0.9c-0.2,0-0.3,0.1-0.4,0.4L13.8,0.9 M16.2,10.3c-0.6,0.9-0.9,1.8-0.8,2.9c0.8-0.4,1.5-1.1,2.1-2.1
					c0.7-1.1,0.8-2,0.3-2.8l-0.8,1L16.2,10.3 M21.2,13.6c2,2.5,3.4,6.1,4.3,10.7c0.6,3.1,1.1,7.6,1.4,13.5
					c6.5-4.7,13.5-8.2,20.9-10.5c8.6-2.7,17.6-3.9,27-3.5c-1.8-3.1-3.8-6.1-6.2-8.8c-2.7-3-5.6-5.6-8.7-7.6
					c-7.6-5-15.7-6.8-24.4-5.4c-7.4,1.2-13.3,4.9-17.7,11.1l1.7-0.2L21.2,13.6 M103.3,48.2c-3-0.7-6.5-0.5-10.7,0.7
					c1.2,2,2.8,4.2,4.9,6.6l5.5,6.1l2.5,3.1l2.5,3.2c2,2.6,3.9,4.5,5.6,5.9c2.1-1.2,4.2-1.4,6.5-0.8c1.7,0.5,3.8,1.5,6.1,3.2l3,2.2
					l2.8,2.1c2.1,1.5,3.9,2.2,5.4,2.3l3.5-0.6c1.4-0.5,2.5-0.7,3.1-0.6c0.8,0.1,1.7,0.3,2.6,0.8l2.5,1.2l2.6,1l3.2,0.3
					c-0.2-3.5-1.2-6.5-3.1-8.9l-3.1-3.1l-3.7-3.2l-3.5-2.9c-1.3-1-2.5-1.6-3.5-2l-3.6-0.4c-0.9,0.1-1.9,0.4-3,0.9l-2.8,1.1l-3,0.4
					c-1.3-0.1-2.7-0.6-4-1.6c-1.1-0.8-2.3-2-3.6-3.6l-3.5-4.5l-3.6-4.2C108.5,50.5,105.9,48.9,103.3,48.2 M77,25.9
					c-5.8-1.4-11.8-1.6-18.2-0.6c-4.7,0.7-10.2,2.3-16.7,4.7c-4.9,1.8-8.6,3.7-11.3,5.6c-4.2,3.1-5.6,6.4-4.3,10
					c-0.4-1.3-0.3-2.3,0.1-3.2c0.5-0.9,1.2-1.4,2.4-1.4c0.8,0,1.7,0.6,2.7,1.8c0.8,1,1.4,2,1.8,3.1c1.1,2.9,1.9,7.2,2.4,13
					c0.5,5,0.6,9.6,0.4,13.7l-0.2,1.9l-0.2,1.9c0,1.3,0.4,2.1,1.2,2.5c-0.1-1.3,0-2.6,0.4-3.7l1.6-0.8l1.8-0.5c2.5-3,6.1-5.6,10.6-8
					c2.7-1.5,7-3.3,12.9-5.5c4.6-1.8,9.3-3.2,14.2-4.4c5.2-1.2,10.4-2.1,15.7-2.5c-0.9-1.7-2.2-3.8-3.8-6.2l-4-6.1l-4.9-7.7L77,25.9
					 M86.8,55.5L83,56.3l-3.6,0.9c-8.5,1.8-15.7,3.9-21.6,6.5c-6.6,2.8-12.1,6.3-16.5,10.4l2.5,2.5c0.8,0.9,1.5,1.9,2,2.9
					c1.8,3.8,2.7,8.9,2.8,15.3l-0.2,8.6l-0.6,8.6c-0.2,3.1-0.2,5.4,0.1,6.9c0.4,2.2,1.3,3.3,2.8,3.3c1.1-0.5,2.3-1.4,3.6-2.8
					l3.4-3.8l3.7-3.6c1.4-1.3,2.8-2.4,4.1-3.4c6.5-4.9,13-9,19.6-12.5c8.5-4.5,16-7.3,22.6-8.4c3.3-0.5,5.8-0.5,7.4,0
					c2.1,0.7,2.9,2.2,2.4,4.5c-2.5-2.6-6.5-3.4-12-2.4c-3.5,0.6-8,2.1-13.5,4.5c-2.9,1.3-5.6,2.5-7.9,3.8c-2.5,1.3-4.8,2.7-6.9,4
					l-0.2,0.5l-0.6,0.4l-0.1-0.1l-0.2-0.2c-0.3-0.2-0.4-0.1-0.4,0.3l8,11.9c3.1,4.6,5.6,8.7,7.6,12.3l5.1-5.6l5.6-6.3l4.3-4.3
					l4.5-4.4c3.5-3.5,5.7-6.8,6.8-9.8c1.4-4,1.3-8.1-0.3-12.2c-0.6-1.6-1.5-3.2-2.5-5l-2.9-4.1l-5-7.1l-5.2-6.8l-3.2-3.7
					c-1.4-1.5-2.4-2.3-3-2.5L91.6,55L86.8,55.5 M118.6,82.2c1.6,2.8,2.4,5.6,2.3,8.1c0,1.6-0.4,3.2-1.1,4.9l-2.1,3.8l-1.8,2.4
					c-0.7,0.9-1,1.8-1,2.5c2.7-2.1,5.6-3.3,8.6-3.7c2.3-0.3,4.5,0,6.5,0.8c1.6,0.6,3.3,1.6,5,3l4.2,3.8c1.7,1.5,3.1,2.6,4.4,3.2
					c2.4-2,4.4-3.4,6-4.2c2.5-1.2,5.2-1.8,7.9-1.6c1.1,0.1,2.8,0.5,5.3,1.4c2.2,0.8,4,1.1,5.4,1l-3-5.2l-3.2-5.1
					c-2.5-4.1-4.3-7.8-5.3-11c-1.6,0.1-3.4-0.1-5.2-0.6l-4.5-1.8c-1.8-0.7-3.2-1.1-4.4-1.2c-1.6-0.1-3.2,0.2-4.7,1.1
					c-1.8-0.4-3.6-1.2-5.6-2.6l-5.1-3.7c-2-1.4-3.9-2.3-5.6-2.7c-2.2-0.5-4.6-0.4-7.1,0.4l2,3.5L118.6,82.2 M23.4,20.2
					c-0.8-2.8-1.9-4.9-3.4-6.2l2.4,7.3c0.9,3.1,1.8,5.5,2.6,7.1l-0.6-4.2L23.4,20.2 M33.1,49.5c-0.8-3.2-2-5.4-3.8-6.8
					c1.2,5.5,2.8,10.9,4.9,16L33.8,54L33.1,49.5 M44.4,77.9c-1.2-1.6-2.8-2.6-4.8-3c0.3,2.3,1,5.3,2.2,8.9l3.1,8.8l0.8,3.1
					c0.3,1.2,0.9,2.1,1.6,2.6l-0.3-7.5c-0.1-3-0.3-5.4-0.6-7.1C46,81.2,45.3,79.3,44.4,77.9 M119.2,111.1l1.4,1.9l2.7,4.5
					c1,1.9,1.5,3.4,1.4,4.5c-0.1,1.3-0.9,2.8-2.4,4.4c-0.5,0.6-2.1,1.9-4.6,4.1c-2,1.8-3.4,3.2-4.2,4.5c-1.1,1.7-1.5,3.4-1.1,5.1
					c2.4-0.4,5-1,7.8-2l7.6-2.8l7.4-2.8c2.7-0.9,5.1-1.5,7.1-2l2.9-0.4c1.2-0.1,2.2-0.1,2.9,0c1.2,0.1,2.3,0.6,3.2,1.5l2.2,2.8
					l2.1,2.8c0.8,0.9,1.8,1.4,2.8,1.5c1.3,0.2,3-0.5,5.2-1.9l2.7-1.9c1.1-0.7,2-1.2,2.8-1.6c1.7-0.8,3.4-1.2,5.1-1.3l4.6,0.3
					l4.7,1.1l5.3,1.1c-1.2-2.1-2.7-4.3-4.5-6.6l-4.9-6.1l-5-6.1c-1.8-2.3-3.3-4.5-4.5-6.6c-1.3-0.1-3.2-0.5-5.6-1.3
					c-2.6-0.9-4.4-1.4-5.5-1.5c-3.2-0.4-6.1,0-8.6,1.1c-1,0.5-2.2,1.1-3.5,2l-3.5,2.6c-1-0.3-2-1-3.1-2l-2.8-3.2l-2.9-3.3
					c-1.2-1.1-2.3-1.8-3.4-2.2c-2.7-0.9-5.5-0.9-8.3,0c-2,0.6-4.3,1.9-6.9,3.7c0.3,1.2,1,2.6,2.1,4L119.2,111.1 M107.4,110.4
					c-2.8,2.5-4.7,4.3-5.8,5.5c-2.6,2.8-4.3,4.9-5.2,6.2c-1.8,2.7-3,5.4-3.4,8.1c1.1,1.1,2.5,1.5,4,1.3l2-0.6l1.8-0.7
					c1.6-0.6,3.4-1.5,5.4-2.6l5-3.1c2-1.3,3.7-2.2,5-2.9c1.9-0.9,3.7-1.6,5.5-2c-1.8-6.1-4.7-11-8.6-14.8
					C111.9,106.3,110,108.1,107.4,110.4 M109.5,126.2c-1.4,0.9-2.5,1.8-3.3,2.8l2,4.1l2,4.1l5.8-5.8l2.2-2l2.2-2.1
					c1.6-1.7,2.5-3.5,2.5-5.3l-5,0.2c-0.8,0.2-2.3,0.9-4.4,1.9C111.7,124.9,110.4,125.6,109.5,126.2"/>
				<path class="st5" d="M21.2,25.1c0.2,0.1,0.4,0.4,0.6,0.9l0.2,1.1c-0.1,0.4-0.3,0.3-0.6-0.4C21.2,26.2,21.1,25.6,21.2,25.1"/>
				<path class="st5" d="M23.6,32.9h-0.2h-0.2C23,32.3,22.9,32,23.1,32l0.6,0.6l0.4,0.8L23.6,32.9"/>
				<path class="st5" d="M40.9,88.8h-0.2h-0.2c-0.2-0.7-0.3-1-0.2-0.9l0.6,0.6l0.4,0.8L40.9,88.8"/>
				<path class="st5" d="M60.6,149.7c-1.3-4.8-2.7-10.2-4.1-16.2c3.2,10.1,6.2,20.6,9,31.6C63.8,160.4,62.2,155.3,60.6,149.7"/>
				<path class="st5" d="M65.5,165.5c0.4,0.4,0.6,0.8,0.7,1.2c0.1,0.3,0.1,0.6-0.1,0.7c-0.1,0.1-0.2,0-0.4-0.3L65.5,165.5"/>
				<path class="st5" d="M66.3,168.4l0.7,1.2v0.6l-0.4-0.2L66.3,168.4"/>
				<path class="st5" d="M67.1,171.3l0.8,1.2c0.1,0.3,0.1,0.6-0.1,0.6c-0.1,0.1-0.2,0-0.3-0.2C67.3,172.6,67.2,172,67.1,171.3"/>
				<path class="st5" d="M68,174.1c0.4,0.4,0.6,0.8,0.7,1.2v0.6l-0.4-0.2L68,174.1"/>
				<path class="st5" d="M69.1,178.6c-0.2-0.3-0.3-0.9-0.3-1.6l0.8,1.2l-0.1,0.6C69.4,179,69.2,178.9,69.1,178.6"/>
				<path class="st5" d="M70.3,181.8l-0.4-0.3c-0.2-0.3-0.3-0.9-0.3-1.6l0.7,1.2V181.8"/>
				<path class="st5" d="M70.4,182.8c0.4,0.4,0.6,0.8,0.7,1.2v0.6c-0.1,0.1-0.2,0-0.4-0.2L70.4,182.8"/>
				<path class="st5" d="M71.6,187.2c-0.2-0.3-0.3-0.9-0.3-1.6l0.8,1.2c0.1,0.3,0.1,0.6-0.1,0.7C71.8,187.6,71.7,187.5,71.6,187.2"
					/>
			</g>
		</g>
	</g>
</g>
</svg>
