<?xml version="1.0" encoding="utf-8"?>
<!-- Generator: Adobe Illustrator 26.0.1, SVG Export Plug-In . SVG Version: 6.00 Build 0)  -->
<svg version="1.1" id="Capa_1" xmlns="http://www.w3.org/2000/svg" xmlns:xlink="http://www.w3.org/1999/xlink" x="0px" y="0px"
	 viewBox="0 0 210.1 210.8" style="enable-background:new 0 0 210.1 210.8;" xml:space="preserve">
<style type="text/css">
	.st0{fill:url(#);}
	.st1{fill-rule:evenodd;clip-rule:evenodd;fill:url(#SVGID_1_);}
	.st2{fill-rule:evenodd;clip-rule:evenodd;fill:#FFFF00;fill-opacity:0.3961;}
	.st3{fill-rule:evenodd;clip-rule:evenodd;fill:#0066FF;fill-opacity:0.3922;}
	.st4{fill-rule:evenodd;clip-rule:evenodd;fill:#FF0000;fill-opacity:0.3882;}
	.st5{fill-rule:evenodd;clip-rule:evenodd;fill:#373535;}
	.st6{fill-rule:evenodd;clip-rule:evenodd;fill:#DBD0E8;fill-opacity:0.8;}
	.st7{fill:none;stroke:#FFFFFF;stroke-width:1.3255;stroke-miterlimit:7.797;}
	.st8{fill-rule:evenodd;clip-rule:evenodd;fill:#FFFFFF;}
	.st9{fill-rule:evenodd;clip-rule:evenodd;fill:#C9B9DC;}
</style>
<g>
	<path class="st5" d="M130.6,77.4l0.3-1.3c0.2-1.2,0-2-0.6-2.2c1-0.8,1.9-0.9,2.6-0.5c0.7,0.4,1.2,1,1.4,1.9c0.2,1,0,1.7-0.6,2.3
		c-0.7,0.7-1.7,0.8-3.1,0.4C130.5,78.1,130.5,77.8,130.6,77.4 M132.1,76.1c-0.1,0.8,0.1,1.2,0.6,1.2c0.4,0,0.7-0.5,0.7-1.4
		c0-0.8-0.1-1.3-0.4-1.6h-0.9L132.1,76.1"/>
	<path class="st5" d="M69.8,73.6v2.1c-0.1,1.2,0,2.1,0.3,2.4l-0.9,0.2l-0.9,0.1c0.3-0.3,0.5-1,0.7-2c0.1-1.1-0.1-1.8-0.7-1.9
		C68.3,74.2,68.5,74,69,74L69.8,73.6"/>
	<path class="st5" d="M130,74.2c-0.4,0.9-0.6,1.5-0.6,1.8c-0.1,0.5,0.2,0.8,0.9,0.9l-0.4,1c-0.2,0.3-0.6,0.3-1.1,0.2
		c0.1-0.9-0.1-1.5-0.6-1.8c-0.3,0-0.4,0.3-0.4,0.9c0,0.6,0.3,0.8,0.7,0.6c-0.1,0.3-0.4,0.6-1,0.7l-1.1-0.1c0.4-0.4,0.7-1.1,0.7-2.2
		c0-1.1-0.2-1.8-0.7-2.2l1.5-0.3h1.8C129.7,74,129.8,74.2,130,74.2 M128.8,75.4v-1.2h-0.9c-0.1,0.5,0,0.8,0.1,1
		C128.1,75.5,128.4,75.6,128.8,75.4"/>
	<path class="st5" d="M136.9,75.1c0.1-0.3,0.3-0.4,0.6-0.3v1.4c0,0.5-0.1,0.9-0.3,1.1c-0.2,0-0.3-0.2-0.3-0.6l-0.2-0.6
		c-0.3,0-0.4,0.1-0.4,0.5l0.1,1c0.6,0.2,1,0.1,1.3-0.2c0.3-0.4,0.6-0.7,0.8-0.7v1.8l-1.8-0.1l-1.8-0.2c0.4-0.4,0.6-1.1,0.7-2.1
		c0.1-1.1-0.2-1.8-0.7-2.1c0.2-0.3,0.7-0.4,1.4-0.4l1.9,0.1l0.3,0.9v1.2c-0.3,0-0.5-0.3-0.7-0.9c-0.2-0.5-0.6-0.7-1.1-0.6
		c-0.2,0-0.2,0.2-0.2,0.4l-0.1,0.8C136.7,75.6,136.9,75.5,136.9,75.1"/>
	<path class="st5" d="M64.7,74.2h2.1c-0.3,0.3-0.5,0.8-0.5,1.5c-0.1,0.5-0.1,1.2-0.1,2.1c0.6,0.2,0.9,0.1,1.2-0.2l0.4-0.9
		c0.2,0,0.3,0.2,0.3,0.8v1.1h-3.3c0.4-0.4,0.6-1.1,0.7-2.1C65.3,75.3,65.1,74.6,64.7,74.2"/>
	<path class="st5" d="M143.8,74.8c-0.3,0.3-0.6,1-0.7,2.1l-0.2,2.4c-0.4-0.4-0.8-0.9-1.2-1.5l-0.9-1.8c-0.3,0.2-0.4,0.6-0.4,1.3
		c0.1,0.7,0.3,1.1,0.6,1.1c0,0.3-0.2,0.4-0.7,0.4l-1.1-0.1c0.4-0.4,0.6-1.2,0.6-2.2c0-1.1-0.2-1.8-0.6-2.2h1.2l0.9,1.2
		c0.4,0.5,0.6,1,0.6,1.4c0.4-0.4,0.5-0.8,0.4-1.2l-0.4-1.2C143,74.5,143.6,74.6,143.8,74.8"/>
	<path class="st5" d="M124,75.7c-0.2,0.6-0.3,1.3-0.3,1.9c0.1,0.8,0.4,1.3,0.9,1.4c0.3-0.3,0.5-0.9,0.6-1.6c0.1-0.8,0-1.4-0.3-1.8
		H124 M122.9,76.4c0.4-1.3,1.2-1.9,2.6-1.6c0.7,0.9,0.9,2,0.5,3.2c-0.4,1.3-1.3,1.9-2.6,1.6C122.7,78.7,122.6,77.7,122.9,76.4"/>
	<path class="st5" d="M120.2,79.1l-0.5,1.3c-0.4,1.1-0.2,1.7,0.7,1.9l-0.8,0.8l-1.2,0.4c0.6-0.6,0.7-1.2,0.3-1.9
		c-0.4-0.7-1-1.1-1.8-1.1c-0.1-0.4,0.1-0.7,0.6-0.9l0.9-0.6c0.2,0.1,0.2,0.4,0.2,0.8c0,0.3,0.1,0.6,0.4,0.8l0.6-0.9l-0.4-0.3
		c-0.2-0.1-0.2-0.3-0.2-0.6c0.6,0,1-0.2,1.2-0.6C120.3,78.4,120.3,78.7,120.2,79.1"/>
	<path class="st5" d="M106.2,98.9c-0.3-0.3-0.4-0.8-0.3-1.6v-2C106.4,95.4,106.5,96.6,106.2,98.9"/>
	<path class="st5" d="M113.3,139.2l2.6,0.1h5.1l-4.8,0.3l-5.1,0L113.3,139.2"/>
	<path class="st5" d="M86.9,139.8l3.1,0c-0.4,0.4-1.2,0.6-2.3,0.7l-3.1-0.1C84.9,139.9,85.6,139.7,86.9,139.8"/>
	<path class="st5" d="M114.3,139.8l2.5,0h4.8l-4.4,0.4l-4.8-0.1C112.6,139.9,113.3,139.8,114.3,139.8"/>
	<path class="st5" d="M119.1,140.8l-5-0.1c0.4-0.3,1.1-0.4,2.2-0.3h2.6h4.8L119.1,140.8"/>
	<path class="st5" d="M94.8,142.8c-0.1,0.3-0.5,0.4-1.2,0.4l-1.6-0.1c0.4-0.4,0.9-0.7,1.3-0.8C93.9,142.3,94.4,142.4,94.8,142.8"/>
	<path class="st5" d="M100.5,149.5l4.1-0.2c1.6,0.2,2.8,0.6,3.7,1.1h2.1l1.1,0.1c0.4,0.2,0.2,0.2-0.4,0.2l-5.3-0.4l-5.5-0.2l0.4-0.3
		C100.8,149.6,100.7,149.6,100.5,149.5"/>
	<path class="st5" d="M121,150.1c-0.3,0.3-0.7,0.4-1.4,0.2l-1.6-0.2c0.3-0.3,0.7-0.4,1.3-0.2L121,150.1"/>
	<path class="st5" d="M120.1,151l-1.9,0.1l-2.3-0.1c-0.1-0.3,0.4-0.4,1.7-0.4L120.1,151"/>
	<path class="st5" d="M109.2,151l3.7,0.2c1.8-0.1,2.8,0.1,3.2,0.6l-1-0.1l-1.1-0.2l-2.8,0.1C110.2,151.7,109.5,151.5,109.2,151"/>
	<path class="st5" d="M112.3,151.9l5.4,0.6c0,0.3-1.6,0.3-4.8-0.1l-2.1-0.4L112.3,151.9"/>
	<path class="st5" d="M109.8,154l0.7-0.7c0.3-0.2,0.7-0.3,1.2-0.2l0.5,0.1l0.2,0.5l1.9,0.1l1.9,0.2l0.2,0.2l-0.4,0.1l-3-0.2
		L109.8,154"/>
	<path class="st5" d="M92.4,154.9c0.2-0.3,0.6-0.4,1.3-0.3h1.7l-0.6,0.9c-0.2,0.2-0.2,0.5,0,0.9c-0.5,0-0.9-0.2-1.3-0.6L92.4,154.9"
		/>
	<path class="st5" d="M99.9,185.9l-1.2,0.1l-1.5,0.1c0.1-0.3,0.5-0.5,1.2-0.6C99.1,185.5,99.6,185.6,99.9,185.9"/>
	<path class="st5" d="M112,185.9l-1.2,0.1l-1.5,0.1c0.1-0.5,0.5-0.7,1.2-0.6L112,185.9"/>
	<path class="st5" d="M188.4,57.7l-2.7-2.7c-1.4-1.2-3.3-2.6-5.8-4.2l-6.2-4.2c-0.5-0.4-2.4-1.9-5.8-4.7c-2.3-1.9-4.2-3.2-5.9-4
		c0-0.1-0.1-0.2-0.3-0.2l-0.2,0.1l1,1c2.8,2.2,5.7,4.7,8.8,7.5l9.4,8.9c1.7,0.5,3.6,1.7,5.8,3.5c2.3,1.9,4.2,3.2,5.7,3.7
		c0.4-0.2,0.4-0.5,0-0.9l-0.9-0.6L188.4,57.7 M193.8,62.8c-1.9-0.2-4-1.2-6.4-2.9l-2.9-2.2l-2.8-2.1c-0.2,0.2,0.2,0.8,1.2,1.7
		c0.9,0.8,1.1,1.2,0.8,1.3c-0.3,0.2-0.6,0.1-0.8-0.3L183,58c-1.3,0.2-3-0.3-5.1-1.5c-3-1.7-5.8-4.1-8.4-7.2
		c-0.2,0.6-0.6,0.8-1.2,0.7l-2.1-0.4c-0.6,0.9-1.1,2.4-1.7,4.5c-0.6,2.2-1.1,3.7-1.6,4.5c0.1,0.4-0.1,0.6-0.6,0.7
		c-0.6,0-0.9,0.1-0.9,0.2c0.2,0.5,0.3,1.1,0.1,2.1c-0.2,1.1-0.2,1.9-0.1,2.4c-0.7,0.3-1.3,0.6-1.7,0.9c-0.5,0.4-0.9,0.9-1.1,1.4
		l4.6,0.2l4.4-0.8l-2.3,2l-2.4,1.9c1,0.5,2.7,0.7,5,0.6l5.5-0.3c-1.2,1.5-3.1,2.5-5.6,3.1l-7.9,0.8c0.2,2.2,0.5,4.8,1,7.9l1.4,7.7
		l-1.2,0.7l-1.4-0.1V95c1.3-1,2.5-2.2,3.6-3.9l1.5-2.7v-0.1l0.1-0.2c0.3-0.8,0.5-1.6,0.5-2.4c0.4-0.1,1-0.5,1.8-1.3
		c0.6-0.7,1.2-0.8,1.9-0.5l0.5-0.8c0.1-0.4,0.2-0.8,0.1-1.3l4.4-3.7l4.3-3.8c-0.3,1.3-1.1,3-2.4,5.2l-3.1,5.4L172,85l-1.1,0
		c0.1,0.7,0,1.4-0.3,2.2c-0.3,0.9-0.5,1.5-0.6,2l-1.6,0.6c-0.7,0.2-1.1,0.5-1.4,0.9l0.2,14.5l0.6,14.1c-0.5,0.4-0.9,0.6-1.2,0.7
		l-1.4-0.1c-0.6,10.1-1.9,18.8-4.1,26.2c-2.5,8.8-6.1,15.5-10.7,20.1c-1.9,1.9-4,3.5-6.5,4.9c-2.7,1.4-5.3,2.3-7.9,2.6
		c-4.2,0.6-8.8,0.2-13.7-0.9c-4.1-1-8.1-2.5-12.2-4.5c1.5,2.8,4,6.2,7.6,10.4c4,4.6,6.7,7.9,8.1,10.1c-0.4,0.4-0.8,1-1.2,1.8
		l-5.8-6.8l-5.7-6.8c2.3,8.7,5.3,16.3,9,22.9h-3.3c-1.6-3.8-3.4-7.4-5.4-10.9l0.3,2.5c0,1-0.1,1.8-0.3,2.4c-1,0.6-2.4,1.1-4.2,1.5
		l-5.7,0.7c-4.8,0-7.5-1.2-8.2-3.8c-0.1-0.4,0-1,0.2-2c0.2-0.8,0.1-1.6-0.2-2.3l-6,11.8h-1.8c0.1-0.3-0.1-0.4-0.6-0.3
		c-0.5,0.1-0.7,0-0.6-0.3c2.4-4.2,4.4-8.1,6-11.7c2-4.5,3.4-8.8,4.2-12.7l-6.5,8l-6.8,7.7c0-0.4-0.1-0.8-0.5-1.1
		c-0.3-0.4-0.4-0.7-0.4-1.1l6-7.6l6-7.4l2.2-2.4c0.8-0.9,1.3-1.8,1.4-2.5c-3.7,1.9-7.6,3.3-11.7,4.2c-4.8,1.1-9.2,1.4-13.3,0.9
		c-5-0.6-9.5-2.8-13.5-6.6c-3.5-3.3-6.3-7.5-8.5-12.6c-2.1-4.9-3.8-10.4-5-16.4c-1.2-5.7-1.9-11.7-2.2-17.9l-1.4-0.2
		c-0.8-0.2-1.2-0.5-1.3-1l0.7-13.9l0.2-14.3c-1.3-0.5-2.3-1.2-2.9-2c-0.8-1-1.1-2.2-1-3.8L36.9,85l-0.8-0.5l-1.9-3.8
		c-1-1.6-1.7-2.8-2-3.8l1.3,1.9l1.4,2l1,2.3c0.4,0.8,0.9,1.3,1.4,1.4c0.5-0.5,0.6-1.1,0.2-1.9l-1.3-1.8l-1.6-1.6
		c-0.6-0.6-1-1.2-1.1-1.7l-1.8-1.4c-0.6-0.6-0.9-1.3-0.9-1.9l4.5,3.8c2,1.8,3.5,3,4.5,3.8v1.1l0.3,0.8c0.8,0,1.5,0.3,2.2,0.8l1,1
		l-1,0.2L41.5,86l0.8,1.1l0.7,1.2c0.4-0.2,0.6-0.7,0.6-1.3c0-0.6-0.1-1.1-0.3-1.6l0.6,0.6c0.2,1.8,1.1,3.8,2.6,5.8l4.2,5V92
		l-1.3-0.2c-0.7-0.1-1.2-0.3-1.3-0.8c0.2-1.9,0.6-4.6,1.2-8.1l1.4-9c-2.9-0.4-5.2-0.8-6.9-1.3c-2.4-0.7-3.9-1.7-4.5-2.9l8.7-0.3
		c-0.1-0.6-0.7-1.3-1.7-2.1c-0.9-0.8-1.4-1.4-1.3-1.8l3.1,0.3l3.5,0c-0.1-0.6-0.4-1.1-1-1.6c-0.7-0.5-1.2-1-1.4-1.4
		c-0.1-0.4-0.2-0.9-0.1-1.7l0.1-1.9c0-0.2-0.3-0.3-0.8-0.4c-0.5,0-0.7-0.2-0.7-0.5l-1.5-5.2c-0.6-2.1-1.2-3.7-1.8-4.8
		c-0.6,0.4-1.3,0.7-2,0.8c-0.9,0.1-1.4-0.1-1.5-0.8c-3.6,4.6-8.5,7.9-14.8,9.7c0.1-0.4,0.6-1.1,1.6-2.1c0.8-0.8,0.9-1.1,0.5-0.9
		l-2.8,1.9L22.8,59c-2.2,1.6-4.3,2.7-6.3,3.2l4-4.1c1.7-1.6,2.6-3.1,3-4.3c0.4-0.6,1.2-1.3,2.3-2.1l2.5-2.1l0.8-1.2
		c0.3-0.6,0.5-1,0.8-1.2l2.2-1.6l2.6-1.7c7.9-6,14.6-10.2,20.2-12.8c8.6-3.9,17.3-5.6,26.2-5l0.7,0.4L81.2,27c1-0.5,1.8-0.3,2.6,0.5
		l0.8,0.9l0.1,0.2l0-0.2c-0.1-0.2,0.1-0.3,0.5-0.2l1.4,1.6l1.3,1.4l0.1,0.6l-0.1,0.3l0.3,0.2c0.1-0.1,0.2,0,0.3,0.1l1.2,3.2l1,3.2
		c0.9,2.2,2.4,3.5,4.4,3.8l0-1.9c-0.1-0.7-0.1-1.2,0-1.4l1.2,0.2c0.3,0.1,0.4,0,0.4-0.4c-0.2-0.6-0.2-1.7,0.2-3.5
		c0.3-1.6,0.2-2.6-0.2-3.2l0.9-0.2l0.6-0.7c0.5-0.9,0.8-1.8,0.7-2.9l-0.7-2.8c-0.4-1.2-0.5-2.1-0.5-2.7c0-0.9,0.4-1.7,1.1-2.4
		l1.5,0.1l1.5,0.8c0.2-0.4,0.5-0.7,1.1-1l1.3-0.8h2.4c2.7,0.5,4.5,2.7,5.4,6.5l0.8,5.1c0.3,2.2,0.6,3.9,1,5l2.4,2.1
		c0.1,0.8,0.1,1.7-0.2,2.6c-0.3,1-0.4,1.8-0.4,2.3c1.8-0.1,3.2-1.2,4.1-3.6l1-3.1l0.9-3l0.7-0.6c0.2-0.2,0.3-0.6,0.2-1.2
		c1.6-2,3.5-3.4,5.5-4.1c2.1-0.7,4.9-1,8.3-0.7c5.6,0.4,11.2,1.7,16.9,3.9c5.2,2,9.7,4.4,13.4,7.2c-0.6,0.1-1.2-0.1-1.8-0.5
		l-1.6-1.2c-8.8-5.5-18.4-8.5-28.9-9l3,1.2l3,1.2l-5.9-0.6c-2.7-0.1-4.5,0.5-5.2,1.8c0.1,0.1,0.4,0.3,1.1,0.6
		c0.5,0.2,0.8,0.5,0.7,0.9c-0.6,0.1-1,0.3-1.2,0.6l4.6-0.9l5.1-0.3c-0.1-0.3-0.5-0.4-1.2-0.4l-1.6,0.1c0.4-0.6,1.2-0.9,2.2-1
		l2.6,0.1l4.2,0.7c1.6,0.4,2.7,0.8,3.3,1.1l-0.2,0.2l-0.4,0.1l3.6,0.9l4.2,1.2l3.1,1.2l3.3,0.9l-0.2,0.3c0.5,0,1.2,0.3,2,0.7
		c1.1,0.6,2,0.8,2.7,0.5c3.7,2.5,7.2,5.1,10.4,7.8c3.2,2.6,6.2,5.5,9.1,8.6l0.2,0.6l-0.2,0.6l3.5,3.5
		C191.7,61,192.9,62.1,193.8,62.8 M144.1,32.6l3.7,0.9l3.8,0.7c1.6,0.3,2.8,0.6,3.7,1.1l0.7,0.6c0.6-0.2,1.4-0.1,2.4,0.3
		c1.2,0.5,2.1,0.7,2.7,0.6l-9.9-3.1c-3.8-1-7.4-1.7-10.9-2L144.1,32.6 M140.1,32.3l-2.6,0.1c1.5,0.9,3.2,2.3,5.1,4.1l4.9,4.6
		c4,3.6,7.9,5.6,11.7,6.1c-1.8-1.8-4.1-3.8-6.8-5.9l-7.3-5.2l-2.5-1.6l-2.1-1.8c1.8,1.1,4.1,2.6,6.7,4.4l6.6,4.6l6.8,4.4
		c2.8,1.6,5.4,2.8,7.9,3.4c0.1-0.8-0.2-1.5-0.9-2.3l-1.8-1.9l-7.6-6.6l-1.9-1.9c-0.8-0.7-1.5-1.2-2-1.5l-2.8-0.7l-2.6-0.5l-3.1-0.8
		l-2.9-0.7L140.1,32.3 M148.1,32.4l-5.1-1.2c-2.3-0.5-3.9-0.5-4.8,0l5.3,0.6L148.1,32.4 M100.5,21.2c-0.2-0.1-0.4-0.2-0.8-0.2
		l-1-0.1c-0.6,0.7-0.8,1.6-0.8,2.8c0.1,1.2,0.5,2.1,1.1,2.9c-0.2-0.4-0.1-0.6,0.3-0.6c0.4,0,0.6-0.1,0.6-0.3
		c-0.5-0.6-0.6-1.4-0.3-2.2L100.5,21.2 M99.3,26.7c0.3,0.7,0.2,1.6-0.3,2.6c-0.5,1.3-0.7,2.3-0.6,3.1c0.3-0.1,0.5,0,0.7,0.2l0.6,0.4
		c-0.1-0.6-0.1-1.3,0.1-2.2l0.6-2.1l0.2-1.6C100.4,26.8,100,26.7,99.3,26.7 M101.1,27l0.2-2.7c-0.1-1.3-0.3-2.2-0.8-2.5
		c-0.4,1.1-0.6,2.1-0.6,2.9C99.9,25.9,100.3,26.7,101.1,27 M101.6,25.1c0.1,1.3,0.4,2.2,0.8,2.8v-1.2c0.6-0.1,1.5,0.7,2.6,2.6
		l1.9,3.4l1.3,1.6l1.1,1.4l0.8,2.1c0.3,0.9,0.5,1.5,0.8,1.8l0.2-0.1l0.5,0.2l0.2,0.6l0.4,0.4c1.1-1.3,1.5-3,1.2-5.2
		c-0.7-2.7-1.1-4.8-1.2-6.2v-1.2v-1.1c-0.3-1.5-0.9-2.8-1.7-3.9c-0.8-1-1.7-1.8-2.8-2.2l-3.2-0.3c-1.1,0.3-2.1,0.9-2.9,1.9
		L101.6,25.1 M97.3,34.7l-0.4,2.5c-0.3,2.1,0.1,3.4,1.2,3.9c-0.3-0.9-0.4-1.9-0.1-3l0.9-2.6c0.3-0.9,0.4-1.6,0.2-2
		c-0.2-0.5-0.9-0.8-2-0.9C97.4,33.1,97.4,33.8,97.3,34.7 M100.2,33.6c0.7-0.4,1.2-1.3,1.4-2.8c0.2-1.4,0.1-2.7-0.2-3.8
		c-0.5,1-0.8,1.9-1,2.8C100.1,31,100.1,32.3,100.2,33.6 M103,29.5c-0.2-0.5-0.5-0.9-0.9-1c0.4,3.1,1.8,5.1,4.2,6
		c0.1-0.5-0.2-1.1-0.9-1.8l-1.8-1.8L103,29.5 M105.3,34.8c0.4,0.3,0.7,0.8,1,1.5l0.7,1.9c0.6,1.6,1.4,2.4,2.5,2.6l-1.7-3
		c-0.7-1.2-1.1-2.3-1.3-3.3c0,0.4-0.3,0.5-0.7,0.2L105.3,34.8 M105.2,29.9l-2.5-2.6c0.4,2.6,1.7,4.7,3.9,6.3
		C106.4,32.2,106,31,105.2,29.9 M102.6,31.2h-0.9l-0.6,5.3c-0.4,2.1-1,3.6-1.8,4.7l0.9-0.1c0.4,0,0.6,0.1,0.6,0.4l-0.8,1.8
		c-0.4,0.8-0.4,1.4-0.1,1.8c1.2-0.4,2.1-1.2,2.7-2.4c-0.5-0.6-0.9-1.3-1-2.2c-0.1-0.8-0.1-1.6,0.2-2.4c0.3-0.8,0.7-1.3,1.3-1.8
		c0.6-0.4,1.3-0.6,2.2-0.3c-0.1-0.7-0.5-1.6-1.3-2.4C103.2,32.6,102.8,31.9,102.6,31.2 M126.2,34.7l0.6-0.1l0.1,0.4
		c0.2,0.4,0.3,0.3,0.5-0.1c-0.2,0.1-0.2-0.2-0.1-0.9c0.1-0.7,0.2-1.1,0.4-1.2c0.3,0,0.6,0.1,0.9,0.3c0.3,0.2,0.6,0.3,0.9,0.3
		c0-0.4,0.2-0.6,0.7-0.8l0.8-0.7l-1.3-0.1c-0.4-0.1-0.6-0.4-0.5-0.9c0.3-1.1,1.5-1.8,3.6-2l4.8-0.1c-2.5-1.5-5.4-1.7-8.6-0.5
		c-2.5,0.9-4.6,2.3-6.1,4.1l-1.6,5.4l-2.3,5.4c0.9,0.5,1.7,0.1,2.2-0.9c0.5-1.4,0.8-2.3,1.1-2.7c0.5,0,0.7,0.3,0.6,1.1
		c-0.1,0.7-0.1,1.1,0,1.1c0.4-0.4,0.6-1.1,0.6-2.1c0-0.8-0.1-1.6-0.3-2.4c0.7,0.1,1.2-0.2,1.5-0.9h0.1l-0.1,0l0.1,0l0.8-1.5
		L126.2,34.7 M124.6,30.3c0.1-0.2,0-0.2-0.3,0.1l-0.9,1.1l0.4-0.3L124.6,30.3 M127.6,33.6c0,0.6,0.2,0.9,0.4,0.8
		c0.3-0.1,0.7-0.3,1.1-0.4c0.8,1.1,2.9,3.4,6.2,6.9c2.7,2.7,4.6,5.2,5.7,7.3c-1.2-1.6-2.7-3.5-4.6-5.5l-4.9-5.1l-1.6-1.9
		c-0.7-0.7-1.3-1-2-0.8c-0.1,0.6,0.2,1.2,0.8,1.8l1.6,1.2c3.5,3.8,6,7.6,7.5,11.4c0.3,0,1.1,0.4,2.1,0.9c0.9,0.5,1.6,0.6,2.1,0.2
		l-0.8-1.1c-0.3-0.5-0.4-0.9-0.2-1c1.1,0.5,2.4,0.8,4,0.9c-1.6-2.6-4-5.4-6.9-8.4l-7.8-7.5c-0.2,0.6-0.8,0.7-1.6,0.2l-0.8-0.4
		C127.8,33.2,127.7,33.3,127.6,33.6 M133.9,32.6l-3,0.4l6.5,6.6c2.7,2.7,4.8,5,6.1,7c0.3,0.1,1.2,0.4,2.6,1c1,0.4,2,0.7,2.9,0.8
		l-1.4-2.2l-1.9-1.9c-4.2-4.3-8-8-11.4-11.1c1.6,0.9,3.2,2.1,4.8,3.8l4.1,4.6c1.6,1.8,3.2,3.1,4.6,4.1c1.9,1.2,4,1.9,6.4,2.2
		c-1.9-2.3-4.6-4.9-8.2-7.9l-8.7-7.4L133.9,32.6 M126.8,35.9c0,0.1,0,0.3,0.2,0.4L131,42c1.4,2.4,2.2,4.6,2.4,6.6
		c-0.7-3.2-2.4-6.6-5.1-10.2l-1-1.4c-0.5-0.6-0.9-0.8-1.4-0.6l2.7,5.8c0.5,1.1,1,2.2,1.4,3.5l1,3.4c0.1,0.4,0.5,0.8,1.1,1.2
		c0.7,0.5,1.2,0.6,1.6,0.2c-0.2,0.1-0.3-0.2-0.4-0.8c0-0.6,0.1-0.8,0.4-0.8l2,1.4l2.5,0.1l-0.2-0.6l0.5,0.6c0.2,0.4,0.1,0.6-0.2,0.6
		c-0.9,0.1-1.8,0-2.6-0.4l-1.9-1.1l0.2,0.9c0,0.3-0.2,0.5-0.6,0.6c-0.5,0-0.9-0.2-1.4-0.6l-1.1-0.9c-0.1,0.2-0.1,0.6,0.2,0.9
		c0.2,0.3,0.1,0.5-0.2,0.6l-2.1-0.2l-1.7-0.7c-0.3,0.4-0.7,0.6-1.2,0.6l-1.5-0.2c0,0.3-0.2,0.5-0.5,0.6l-0.8,0.3
		c-0.6,1.6-1.5,3-2.8,4c-0.9,0.7-2.3,1.4-4.1,2.1l-0.2,5.1c-0.1,1.9-0.3,3.2-0.7,3.9l0.6-11c0.1-4.5-0.2-8-0.9-10.6l-0.1,1.6
		l-0.5,1.1c-0.4,0.1-0.6,0-0.8-0.3l-0.5-0.6c-0.1,0.6,0,1.3,0.2,2l0.4,1.9c0.5,0.2,0.7-0.1,0.6-0.7c-0.1-0.7,0-1.1,0.3-1.1l-0.6,4.1
		c-0.1,1.7,0.3,2.7,1.2,3.2l-0.7-0.1c-0.2-0.1-0.4-0.2-0.6-0.2l-0.5,10.3c-0.4,4-1.4,6.9-2.8,8.7c-0.4,3.6-1.6,6.4-3.6,8.4
		c2.8-0.5,5-1.1,6.5-1.7c2.5-1,4.2-2.4,4.9-4.1l0.1-0.8l-0.1-0.8l1.5-5.1c0.5-2.1,0.5-3.6,0-4.6c-0.4-0.7-1-1-1.8-1.1l-2.3-0.1
		l0.9-0.4l0.8-0.2c2.3,0.1,3.3,1.9,3,5.3c-0.2,1.9-0.8,4.4-1.8,7.7c2.9-2.2,5.6-3.7,7.8-4.5c3.4-1.3,7-1.6,10.8-0.9l-0.1-2.7
		c-0.2-1.1-0.2-2-0.2-2.8c1.9-1,4.8-1.3,8.6-0.8l4.8,0.7l4.7,0.4c0.3-0.4,0.4-0.9,0.3-1.5c0-0.6,0.1-1.1,0.2-1.5
		c0.1,0.7,0.2,1.1,0.5,1.3c0.3,0.2,0.5,0,0.7-0.7c-0.2,1,0.1,1.4,0.9,1.4l0.8-0.3c0.3-0.2,0.4-0.5,0.3-0.9c-0.4,0.1-1-0.1-1.8-0.4
		c-0.6-0.3-0.9-0.2-1.2,0.2l-0.2-1.4l-0.1-1.6l1.5-1.6c0.6-0.7,1.2-1.1,1.8-1.2c0.1-1.6,0.8-3.3,2.3-5.1l1.9-2.2l1.6-2.4
		c-0.9-0.3-2.3-1.1-4.2-2.4c-1.7-1.2-3-1.9-3.9-2.1l1.6,1.4c0.6,0.5,1,1.2,1.1,1.9c-0.9,0-2-0.2-3.4-0.8l-2.7-0.7
		c0.6,0.3,0.9,0.9,0.9,1.8c-0.9,0.1-1.9-0.1-3.2-0.6c-1.2-0.5-2.1-0.7-2.5-0.6c0.2,0.1,0.4,0.4,0.6,0.9c0.1,0.5,0,0.8-0.3,0.9
		c-0.7,0.1-1.6-0.1-2.7-0.6c-1-0.5-1.8-0.6-2.2-0.6c0.8,0.5,1.2,1.2,1.2,2.1l-2.2-0.2l-1.8-0.1l0.7,0.9c0.2,0.5,0.2,0.8-0.1,0.9
		c-0.7,0.1-1.5-0.1-2.4-0.7c-0.8-0.5-1.4-0.7-1.8-0.6c-2.6-5.8-6.2-10.6-10.8-14.4L126.8,35.9 M125.9,35.8c0.4-0.2,0.6-0.3,0.5-0.4
		l-0.5,0.1l-0.4,0.2C125.4,36,125.5,36,125.9,35.8 M124.6,36.3c0.2,0.4,0.2,0.9,0,1.6l-0.7,1.4c1.1,1.7,1.9,3.2,2.4,4.5
		c0.8,2,1.1,3.8,0.9,5.4l-1.1-4.9c-0.5-1.7-1.3-2.9-2.2-3.8c0,0.6-0.3,1.1-0.8,1.5l-1.3,1.2c0.5,0.3,0.9,0.8,1.2,1.6l0.6,2.3
		l0.7,2.1c0.4,0.7,1,1.1,1.7,1.2l0.4-0.4l0.5-0.5l1.7,0.9c0.8,0.2,1.4,0.2,1.9,0c-0.1-2.9-0.8-5.6-2-8.1
		C127.8,40.5,126.4,38.5,124.6,36.3 M124.1,38.1l0.2-0.6h-0.6l-0.2,0.1l-0.1,0.2c0.2,0,0.3,0.2,0.3,0.4c0,0.3,0.1,0.5,0.2,0.5
		L124.1,38.1 M122.2,41.1l0.3-0.4v-0.8c-0.2,0-0.3,0.2-0.3,0.4V41.1 M115.7,38.7c-0.3-0.7-0.8-1.2-1.6-1.5c-0.2,0.1-0.5,0.7-1,1.7
		l-1.1,2.2l0.5,1.4c0.3,0.6,0.4,1.1,0.4,1.6c0.6-0.1,1.2-0.5,1.7-1.1c0.5-0.6,0.9-1.3,1.1-2.2C115.9,40.1,115.9,39.3,115.7,38.7
		 M118.7,42.7l0.2-1c-0.2,0.5-0.7,0.9-1.5,1.2l-1.8,0.8c0.3,1.4,0.5,3.6,0.6,6.6c0,3.2,0.1,5.5,0.3,6.7c1.1-0.7,1.4-2.4,0.9-5
		l-0.5-3.2c-0.1-1.1-0.1-2,0.2-2.6l0.6,4.8l0.3,4.9c1.2,0.1,1.8-0.4,1.8-1.6l-0.2-1.6l-0.4-1.4l-0.8-3.1c-0.3-1.2-0.4-2.2-0.4-2.9
		c-0.1-0.3-0.4-0.3-0.7-0.2l-0.5-0.1l2.4-0.9C118.9,43.8,118.7,43.3,118.7,42.7 M119.2,44.7H118l1.2,4.8l0.9,5.1
		c0.7-0.2,1-0.9,1-1.9l-0.4-2.6l-0.6-2.6l-0.6-2.2l-0.2-0.3L119.2,44.7 M114.7,43.2c-0.8,0.4-1.3,1-1.4,1.9c-0.1,0.9,0.2,1.6,1.1,2
		l0.3-2.1C114.9,44.1,114.9,43.5,114.7,43.2 M121.3,43.2l-0.2,0.3l-0.4,0.3c0.6,0.7,1,1.8,1.4,3.2l0.7,3.8c1.3,0,1.6-1.1,0.8-3.6
		l-1.2-2.6C122,43.8,121.6,43.3,121.3,43.2 M121.7,47c-0.4-1.9-1-2.8-1.9-2.9c-0.1,0.8,0.2,2.3,0.8,4.3c0.5,2.1,0.8,3.8,0.8,5.1
		c0.4,0,0.7-0.3,0.9-0.9c0.2-0.7,0.4-1.1,0.6-1.2c-0.2-0.4-0.4-1.1-0.6-2L121.7,47 M108.6,40.8c0.4,0.9,0.7,2.6,1,5
		c0.4,2,1.3,3.2,2.7,3.4c0.6-1.4,0.7-3.1,0.3-5.1c-0.4-1.7-1-3.2-1.8-4.2c-0.3,1.5-0.2,3.2,0.3,5.1l0.9,3.6l-1.1-2.7
		c-0.4-1.2-0.7-2.2-0.8-3l0.2-1.2c0.1-0.5-0.1-0.8-0.5-0.9c0,0.3-0.2,0.4-0.5,0.3L108.6,40.8 M102.3,38.6c-0.3,1-0.1,2.1,0.5,3.3
		c0.6,1.2,1.5,2.1,2.7,2.8c1.2,0.8,2.5,1.1,3.8,0.9c0.1-0.6,0-1.2-0.3-1.9s-0.4-1.4-0.3-1.9c-1.2-0.2-2.2-0.9-2.8-2
		c-0.4-0.8-0.8-2.1-1.1-3.8C103.4,36.6,102.6,37.4,102.3,38.6 M105.3,36.3c-0.1,1.2,0.2,2.3,0.8,3.2c0.6,1,1.2,1.4,2,1.3
		c-0.3-0.3-0.7-1.1-1.2-2.4C106.4,37.3,105.9,36.6,105.3,36.3 M103.2,42.9l-1.7,1.5c-0.6,0.6-1.4,0.9-2.2,0.9l-1.1,2.2l-1.3,2
		c0.4,1.3,0.6,2.8,0.5,4.5c-0.1,1.6-0.3,3-0.8,4.2c0.5,0.7,0.8,1.8,1,3.1l0.5,3.4l0.8,2.2l0.7,2.4l0.2,2.6c0.1,0.6,0.4,1.1,0.9,1.6
		c0.5,0,0.9-0.3,1.2-0.8l0.8-1.2v2.7c1.1,0.2,1.9-0.2,2.3-1.2c0.4-1,0.4-1.8-0.2-2.4l-0.5,0.7l-1,0.2l-0.2-0.9
		c-0.1-0.3-0.2-0.6-0.4-0.6l-0.5,0.7l-1,0.2c-0.2-0.2-0.3-0.5-0.3-1.1c-0.1-0.6,0.1-0.9,0.3-1l0.1,1.3c0.1,0.4,0.4,0.6,0.8,0.5
		l0.4-1.2l0.5-1.1c0.1,1.1,0.3,2.1,0.6,3c0.5,0.1,0.8-0.2,1-0.9c0.2-0.7,0.3-1.1,0.5-1.2l0.2,1.4c0.1,0.5,0.4,0.8,0.7,1l0.8-1.2
		c0.3-0.5,0.7-0.8,1-0.9l0,1.2c0,0.5-0.1,0.8-0.3,0.9v-0.8c0-0.3-0.1-0.4-0.3-0.5c-0.2,1-0.8,1.5-1.8,1.5l-0.1,1.7
		c0,0.7,0.1,1.2,0.3,1.3c0.3-0.1,0.6-0.4,0.9-0.9l0.6-1.1l0.1,0.6c0.1,0.2,0.2,0.3,0.5,0.2c-0.2-0.8-0.1-1.4,0.2-1.9l0.7-1.1
		c0.3-0.7,0.5-1.6,0.6-2.8l0.1-2.3l0.3-0.2l0.3-0.4L110,64l-0.2-1l0.6-1.9c0.2-0.8,0.1-1.4-0.3-2c-0.2,0.6-0.7,0.8-1.3,0.5
		c-0.6-0.3-0.9-0.6-1.1-1.1c-0.2,0.5-0.3,1.3-0.3,2.4s0.1,1.9,0.3,2.4c0.6,0,1.1-0.4,1.4-1l0.7-1.7v2.1c-0.3-0.3-0.6-0.2-0.9,0.3
		c-0.4,0.6-0.9,0.8-1.5,0.6c-0.2-0.1-0.3-0.4-0.2-1.1c0-0.6-0.1-1-0.3-1.1c-0.2,1.1-0.9,1.6-2.1,1.5c-0.2-0.5-0.3-1-0.2-1.5
		c0-0.6,0.2-1.1,0.5-1.5l-0.2,1.5c-0.1,0.4-0.1,0.8,0.2,1.2c0.6-0.2,1.1-0.5,1.5-1.1l0.6-1.9l-0.9-0.8l-0.6-1.1l-0.8,0.9
		c-0.3,0.3-0.8,0.4-1.3,0.3l-0.1-1.6c0-0.7,0.1-1,0.3-1.1v2.4c0.7,0,1.2-0.3,1.5-1.1l0.9-1.6v1.6c0,0.7,0.1,1.1,0.3,1.4
		c0.6,0,1-0.3,1.2-1l0.5-1.7c-0.1,1.3,0,2.3,0.3,3c1.2-0.1,1.8-0.7,1.9-1.9l-0.4-3.2c-0.2,0.7-0.9,1-2.1,0.9c0.1-0.2,0-0.5-0.2-0.8
		c-0.1-0.2-0.2-0.4-0.1-0.8c-0.4,0-0.8,0.2-1.2,0.6c-0.4,0.4-0.8,0.6-1.2,0.6l-0.4-0.9l-0.5-0.6l-0.8,0.6l-1.2,0.3
		c-0.3-0.5-0.3-1.2-0.2-2.1c0.1-0.7,0.4-1.3,0.8-1.9c0.1,0.5,0,1.1-0.3,1.6c-0.3,0.6-0.4,1.2-0.3,1.7c0.6,0.3,1.2,0.2,1.8-0.4
		l1.2-1.8l-0.2,1.4c-0.1,0.6-0.1,1,0.2,1.3c0.8,0.1,1.4-0.1,1.7-0.7l0.7-1.8l0.2,1.7l0.4,1.4c1.6-0.1,2.3-1.2,2.1-3.4
		c-0.5,0.1-0.9,0-1.2-0.4l-0.6-1.1l-0.8,1l-1.2,0.5c-0.2-0.1-0.4-0.4-0.5-0.8l-0.4-1c-0.2,0.6-0.6,1-1.2,1.2
		c-0.8-0.4-1.1-1.3-0.9-2.7l-0.9,0.2l-0.9,0.1c-0.2-0.2-0.3-0.6-0.3-1.2c-0.1-0.7,0.1-1.1,0.3-1.2v1.2c0,0.4,0.1,0.7,0.3,0.9
		c0.4,0.1,0.7-0.1,0.9-0.4c0.3-0.3,0.6-0.5,0.8-0.5v1.9c0.1,0.7,0.4,1.1,0.9,1.1c0.4-0.1,0.7-0.6,0.9-1.3c0.2-0.8,0.5-1.2,0.9-1.4
		l-0.3,1.7c-0.1,0.7,0,1.3,0.3,1.6c0.7,0,1.2-0.2,1.6-0.8l1.1-1.3l0.1,1.6c0.1,0.6,0.4,0.8,0.8,0.8V50c0-0.6,0.1-0.9,0.3-1l-0.3-0.2
		c-0.3-0.3-0.5-0.9-0.5-2c-0.4,0.1-0.7,0.4-1.1,1.1c-0.3,0.6-0.7,1-1.1,1.1c-0.3,0-0.5-0.3-0.5-0.9c0-0.7-0.2-1.1-0.3-1.2l-0.5,0.9
		c-0.3,0.2-0.6,0.4-1,0.4l-0.7-1.6c-0.3-0.4-0.7-0.6-1.4-0.6l0.1-1.6L103.2,42.9 M103.2,44.6v1.4c0.9,0.2,1.3-0.1,1.2-1l-0.3-0.9
		l-0.6-0.4C103.3,43.7,103.2,44.1,103.2,44.6 M107.7,48.3c0.6-0.6,1-1.4,1.2-2.4l-1.8-0.3l-0.1,1.7
		C107.1,48.1,107.3,48.4,107.7,48.3 M105,44.7c-0.3,0.4-0.4,1-0.3,1.8c0.1,0.8,0.4,1.2,0.9,1.2l1.2-2.1L105,44.7 M110.5,49l0.2,2.4
		v2.8c0,2.2,0.7,3.4,1.8,3.8l-0.8-4.2c-0.2-1.7,0-3.2,0.5-4.2L110.5,49 M110.1,40.2c-0.2-2.8-1.2-5-3-6.7c0,1.5,0.3,2.8,0.9,4
		C108.5,38.4,109.2,39.3,110.1,40.2 M96.6,40c-0.2-0.3-0.6-0.4-1-0.4c0.1,0.7,0,1.6-0.2,2.8l-0.6,2.9c-0.5,2.3-0.1,3.8,1.2,4.4
		c-0.4-1.4-0.4-3,0.1-4.7c0.7-1.9,1.1-3.3,1.2-4.3L96.6,40 M98.4,41.1c0.9-0.4,1.6-1.4,1.9-3.1l0.8-4.2c-1.2,0.2-2,1.1-2.4,2.6
		C98.5,37.3,98.4,38.9,98.4,41.1 M90.9,41.1c-0.7-0.8-1.3-2.3-1.8-4.6c-0.6-2.5-1.2-4.2-1.8-5.1c0.5-0.1,0.4-0.3-0.2-0.4l-0.5-0.1
		L85,29.4L83.7,28c-0.1,0.2-0.2,0.2-0.3,0.1c-1.8-0.8-3.5-1.2-5.2-1.4c-2.4-0.3-4.2,0.2-5.3,1.4l5.2-0.2c2,0.3,3,1.2,3.2,2.6
		c-0.1,0.2-0.4,0.3-0.9,0.2c-0.5,0-0.8,0.1-0.9,0.4c0.3,0,0.7,0.2,1,0.6l0.8,0.6L82,32l1-0.2c-0.1,0.4-0.1,0.8,0.1,1.4
		c0.1,0.5,0.1,0.8-0.1,0.9c0.5,0.1,0.7,0,0.5-0.4c-0.2-0.4-0.1-0.5,0.1-0.5l0.6,0.7l0.9,0.2c0.1,0.6,0.4,1.1,0.9,1.6l1.2,1.1
		c-0.3,0.6-0.4,1.3-0.4,2.2c0.1,1,0.4,1.6,1,1.7c0-0.1,0.1-0.4,0.2-0.9c0.2-0.3,0.1-0.5-0.2-0.6l-0.1,0.6l-0.2,0.4
		c0-0.5,0-0.9,0.1-1.2c0.1-0.3,0.4-0.4,0.8-0.3c-0.1,2,0.7,3.3,2.4,3.9c0.3,0,0.5-0.1,0.5-0.5c0.1-0.4,0.2-0.7,0.4-0.7
		c0,0.7-0.2,1.2-0.8,1.4l-1.4,0.4l-0.8,2.3l-0.8,2.7c-0.5,2.1-0.2,3.5,1,4.3c0.3-3.9,1-7,2.1-9.3l1.4,0.4c0.5,0.2,0.8,0.4,1,0.8
		l-0.4-0.2l-0.5-0.1l-1.3,5.4c-0.5,2.2-0.7,4.1-0.5,5.5h1.5l0.3-5.2c0.2-1.9,0.5-3.5,0.8-4.7l0,1.3l-0.2,1.4
		c-0.2,1.1,0.2,1.6,1.2,1.5c-0.3-0.8-0.3-1.8-0.1-3.1c0.3-1.5,0.5-2.6,0.4-3.2l-1.6-0.8l-1.2-0.8l-0.7-0.1L90.9,41.1 M91.2,43.8
		L90,48.6l-0.6,2.8c-0.1,1.2,0.1,2,0.6,2.4l1.2-5l1.2-5H91.2 M98.8,45.5l1.8-4.1c-1.9-0.2-3.2,0.6-3.9,2.4c-0.6,1.5-0.6,3.3,0,5.4
		C97.4,48.3,98.1,47.1,98.8,45.5 M95.4,50.9c-0.2-0.7-0.7-1.2-1.5-1.4c0.3,0.7,0.4,1.6,0.3,2.7L93.9,55c-0.1,1.1-0.1,1.9,0,2.4
		c0.2,0.7,0.7,1.2,1.5,1.5c-0.4-0.7-0.6-1.6-0.6-2.8l0.4-2.8L95.4,50.9 M91.6,55.4l-0.8-0.1l-2.1-2.2c-0.8-0.9-1.3-1.8-1.5-2.7
		l-0.8-0.3c-0.3-0.1-0.4-0.3-0.5-0.6l-1.8,0.2l-1.5-0.6c-0.3,0.4-0.8,0.7-1.5,0.8l-2.2,0.1l0.3-0.8c0.2-0.3,0.1-0.6-0.3-0.7
		l-0.9,1.1c-0.4,0.3-0.9,0.5-1.5,0.4c-0.3-0.1-0.3-0.4-0.2-0.8c0.2-0.4,0.1-0.6-0.2-0.7l-1.8,1.2l-2.7,0.3c0-0.3,0.1-0.5,0.2-0.8
		l0.3-0.7l-2,1c-0.8,0.4-1.6,0.6-2.5,0.5c0-0.3,0.1-0.7,0.4-1.1l0.5-1l-2,0.5L65,48.3c-0.1-0.4,0.1-0.8,0.6-1.2
		c0.4-0.4,0.5-0.7,0.3-0.8l-2.2,1l-2.7,0.5c-0.1-0.4,0-0.8,0.2-1.4c0.2-0.4,0.3-0.6,0.1-0.8l-2.6,1.2l-2.8,0c-0.1-0.3,0-0.7,0.5-1.1
		c0.3-0.4,0.4-0.6,0.1-0.7l-2.8,1.2l-3,0.2c0.1-0.5,0.6-1.1,1.4-1.9c0.8-0.6,1.1-1.1,1-1.4l-3.8,2.4l-3.7,2.6c0.4,0,0.6,0.2,0.5,0.6
		c-0.1,0.4,0,0.6,0.1,0.6C47,50,48,51,49.1,52.6l2.7,3.9c-0.2,0-0.3,0.1-0.3,0.6V58c1.4,0.3,2.5,1.2,3.1,2.8
		c0.5,1.4,0.7,2.9,0.5,4.7l4.5,0.1l4.8-0.6l4.5-0.3c1.5,0.2,2.8,0.6,3.7,1.4c0.1,0.7,0.1,1.6-0.1,2.6c-0.2,1.1-0.2,2-0.2,2.6
		c4-0.6,7.7-0.4,10.9,0.6c3.2,1,5.7,2.6,7.4,4.8c-0.6-3.1-0.8-5.6-0.5-7.5c0.4-2.8,1.9-4.1,4.4-3.9c-0.3-0.1-0.5-0.5-0.4-1.1
		l0.1-1.6l-0.5-2.2L93,58.6c0.5,0,0.8-0.2,0.9-0.6l-0.7-1.4c-0.3-0.6-0.5-1-0.8-1.2L91.6,55.4 M93.3,55.9c0.3-1,0.4-2.1,0.4-3.3
		c0-1.6-0.2-2.6-0.7-3c0.1,0.6,0.1,1.7-0.2,3.5C92.6,54.4,92.8,55.4,93.3,55.9 M93.6,59.2c0.3,0.3,0.6,1.2,0.8,2.8
		c0.2,1.3,0.5,2.1,1.1,2.4l0-3.5C95.3,59.1,94.7,58.5,93.6,59.2 M95.7,61.9c0,1.3,0.3,2.2,1,2.6c0.1-0.5,0.3-0.9,0.4-1
		c0.2-0.2,0.4-0.1,0.8,0.4l-0.6-3.1c-0.3-1.1-0.7-1.9-1.2-2.4L95.7,61.9 M97.1,54.1c0.1-1.8-0.2-3.3-0.8-4.3
		c-0.5,1.3-0.8,2.7-0.9,4.2c-0.2,1.9,0,3.3,0.6,4.3C96.7,57.3,97,55.9,97.1,54.1 M113.8,53.3c0-2.3-0.3-3.8-0.9-4.7
		c-0.6,1.2-0.8,2.6-0.8,4.2c0,1.6,0.3,3,0.8,4.2C113.6,56.8,113.9,55.6,113.8,53.3 M111.7,57.9c-0.3-0.4-0.6-0.5-1-0.5
		c0.2,0.7,0.2,1.6,0.1,2.7l-0.3,2.8c-0.2,2.1,0.3,3.4,1.5,3.8c-0.3-1.4-0.4-2.9-0.3-4.3c0.1-1.7,0.4-3,0.9-3.8L111.7,57.9
		 M113.2,57.7c-0.6,1.2-1,2.6-1.2,4.2c-0.2,1.9,0,3.4,0.6,4.5c0.6-1,1-2.4,1.2-4.1C113.9,60.3,113.8,58.8,113.2,57.7 M109.9,68.5
		l-1,2.5c-0.3,0.9-0.5,1.7-0.4,2.2c0,0.7,0.4,1.4,1.1,1.9l0.6-4.2c0.3-1.5,0.8-2.6,1.5-3.3l-0.8-0.9l-0.8-0.9
		C110.3,66.6,110.2,67.5,109.9,68.5 M110.6,70.2c-0.6,1.6-0.6,3.2-0.2,4.6c0.8-1.1,1.4-2.3,1.9-3.7c0.5-1.6,0.6-3.1,0.3-4.4
		C111.7,68,111,69.2,110.6,70.2 M105.3,75.1c0-0.6-0.2-1-0.6-1.2c-0.3,0.7-0.8,0.8-1.4,0.5c-0.7-0.3-1-0.8-1-1.4
		c0,0.4-0.3,0.6-0.8,0.8c-0.6,0.2-0.9,0.3-1,0.4c0.3,0.1,0.5,0.6,0.6,1.4c0.1,0.8,0.4,1.2,0.9,1.2l0.6-0.8l0.6-0.8v1.8
		c0.7,0.2,1.2,0,1.5-0.6c0.3-0.7,0.6-1.1,0.9-1.2c0,0.9-0.4,1.6-1.2,1.9c-0.7,0.3-1.5,0.2-2.2-0.4c-0.6,0.5-0.8,1.4-0.7,2.6
		c0.1,1.3,0.6,2,1.2,2.2c-0.1-0.6,0.1-1.1,0.5-1.3l1.6-0.2l1.2-2.4l-0.6-0.2c-0.3-0.1-0.4-0.3-0.3-0.6l0.5,0.2l0.7,0.1l0.6-1.4
		c0.3-0.5,0.3-1,0-1.3c-0.3-0.1-0.6,0.1-0.8,0.3C106.1,75.2,105.7,75.2,105.3,75.1 M106.2,78.7c-0.9,1.9-0.9,3.3,0.1,4.2
		c0.1-1.4,0.4-2.8,1-4.2l1.7-3.4l-0.6-1c-0.3-0.4-0.5-0.5-0.6-0.2c0.1,0.6,0,1.3-0.4,2.1L106.2,78.7 M109.8,75.4
		c-1,1.2-1.8,2.3-2.2,3.1c-0.7,1.4-0.9,2.8-0.5,4.1l2-3.3C109.9,78,110.1,76.6,109.8,75.4 M96.6,65.2l-1.1-0.5
		c-0.5-0.2-0.8-0.1-1.1,0.2c0.5,0.5,0.8,1.2,1.1,2.2l0.5,2.6c0.4,2.2,1.3,3.4,2.7,3.6l-1.6-3.6C96.7,68.3,96.5,66.8,96.6,65.2
		 M91.8,69.1c-0.2,1.4-0.2,3,0,4.8l0.8,4.6l2.9,1.7c1.2,0.7,2.3,0.9,3.2,0.7l-1.9-7.6c-0.7-2.9-1.5-5.3-2.3-7.4
		c-2.6-0.4-4,1.1-4.2,4.4c-0.1,1.2,0,2.6,0.3,4.1c0.2,1.3,0.5,2.4,0.9,3.2l-0.8-5.3c-0.2-2.2,0.1-3.9,0.8-4.9L91,69.8
		c-0.2,1.1-0.2,1.7,0.1,1.7C91.2,70.3,91.4,69.5,91.8,69.1 M91.2,73.3v1.1c0.1,0.5,0.2,0.5,0.3,0.1v-1.1
		C91.5,72.9,91.4,72.9,91.2,73.3 M92.1,77.8c-0.1-2-0.3-2.8-0.6-2.4c-0.1,0.4,0,1.1,0.3,1.9l0.3,0.6C92.2,78.1,92.2,78.1,92.1,77.8
		 M97.9,75.5l0.3,2.6c0.3,2.1,1.1,3.2,2.4,3.4c-0.4-0.4-0.8-1-1-1.9L99.3,77c-0.2-2.2-0.9-3.4-2.1-3.7
		C97.5,73.8,97.8,74.5,97.9,75.5 M99.6,72.7c-0.4,1.5-0.4,3-0.2,4.6c0.2,1.5,0.7,2.7,1.3,3.8c0.6-0.4,0.7-1.7,0.3-3.9
		C100.8,75.3,100.3,73.8,99.6,72.7 M99.3,72.4c0.2-3.3-0.5-6.1-2.1-8.1c-0.4,1.5-0.4,3.1,0.1,4.7C97.7,70.6,98.4,71.7,99.3,72.4
		 M99.6,81.7c0.1,0.4,0.6,1.2,1.4,2.4c0.7,1,0.9,1.8,0.7,2.4l-0.8-1.9c-0.4-0.7-1-0.9-1.9-0.8l0.1,2.3L99,88.4l1.5-0.2l-0.3,0.2
		L98.3,89L96.6,89l1.1-0.2l1-0.4v-4.8c-1.2-0.1-2.2,0.1-2.9,0.6c-0.6,0.4-0.9,1-1,1.8c-0.1,0.6,0.3,1.5,1.1,2.8
		c0.7,1,0.7,1.8,0.1,2.3c3.3-0.6,5.7-1.5,7.2-2.7c-0.3-0.5-0.7-0.7-1.3-0.6l-1.2,0.3c0.8-0.3,1.3-1,1.5-2c0.2-1.3-0.2-2.7-1-4.3
		H99.6 M101.7,82.5c0.1,0.6,0.3,1.1,0.6,1.4c0.3-0.5,0.4-1.1,0.2-1.8c-0.2-0.7-0.6-1.1-1.1-1.2L101.7,82.5 M96.1,80.5
		c-2.3-0.9-3.9-1.7-4.7-2.4l-3.8-3.4c-1.4-1.3-2.8-2.1-4.3-2.6l-9.9-0.4l-4.9,0.6c-1.9,0.2-3.6,0.2-5.1,0.1c0.2,0.7,0.3,1.8,0.3,3.2
		v2.8c2.2,0.8,5.1,0.9,8.5,0.4l4.1-0.6l3.9-0.2c1.8,0.2,3.6,0.8,5.5,1.9l2.2,1.3l2.3,1l5,0.8l4.9,0.2C99.4,82.3,98.1,81.3,96.1,80.5
		 M90.6,85.7c-0.2,0-0.3-0.1-0.3-0.3l0.9-0.9c0.3-0.4,0.4-0.9,0.3-1.5c-1.5-0.2-3-0.9-4.7-2c-1.7-1.2-3.2-2-4.7-2.2
		c-1.4-0.3-3.2-0.3-5.3-0.1l-5.6,0.7l-4.8,0.2c-1.5-0.2-2.6-0.8-3.3-1.7c0.3-0.6,0.4-1.5,0.2-2.6c-0.2-1.5-0.3-2.4-0.2-2.8l-2,0.3
		l-1.9,0.6c4,8.4,8,16.5,12.1,24.1l0.7-6.9c0.3-2.6,0.8-4.7,1.4-6.1c2.3,2.2,5.2,3.7,8.5,4.5c0.3-0.4,1-0.8,2.2-1.1
		c1.2-0.3,2-0.7,2.3-1.1c0.5-0.2,1.4-0.2,2.7,0c1.3,0.2,2.2,0.2,2.7,0c0.2-0.5,0.1-0.8-0.2-0.8l-0.7-0.4c0.9-0.5,1.4-1.4,1.5-2.7
		c-0.4,0.1-0.7,0.5-0.9,1.3C91.3,85.1,91,85.6,90.6,85.7 M91.5,85.7c0.8,0.1,1.4-0.1,1.9-0.6l1.1-1.2c0,0.4,0.2,0.7,0.6,0.9
		c0-0.2,0.2-0.4,0.6-0.7c0.3-0.2,0.4-0.5,0.3-0.8h-3.3l-0.4,1.3L91.5,85.7 M94.2,84.8l-1.6,1.4l-1.7,1.3c-1.8-0.4-3.5-0.4-5.2,0.1
		c-1.7,0.4-2.9,1.2-3.8,2.3c0.5,0.1,1.6-0.2,3.3-0.8c1.4-0.5,2.5-0.6,3.3-0.1l-1.9,0.9c-0.8,0.4-1.4,0.8-1.7,1.1
		c1,0.9,2.2,0.8,3.8-0.2l1.9-1.4c0.7-0.5,1.3-0.9,1.8-1l1.8,2.4l0.8-0.2l0.8-0.1c0.1-0.3,0.1-0.7-0.1-1.2c-0.3-0.5-0.6-0.6-0.8-0.3
		c-0.3-0.3-0.5-1-0.6-2.2L94.2,84.8 M91.2,89.9l1.1,0.1c0.5,0,0.7-0.1,0.7-0.4c-0.2-0.2-0.5-0.3-0.9-0.2L91.2,89.9 M90.8,90.3
		c-0.6,0.1-1,0.3-1.4,0.5c-0.4,0.2-0.5,0.4-0.3,0.6l2.2,0.1c1.2,0.1,1.9,0,2.2-0.4C93.2,90.2,92.3,89.9,90.8,90.3 M110.1,83
		l-2.7,0.4c-1.2,0.1-2.1,0.4-2.7,0.8c0.2,0.5,0.7,0.8,1.3,0.9l1.4,0c2,0.3,4.2,0.2,6.4-0.1c1.8-0.3,3.6-0.7,5.4-1.4
		c0.9-0.3,2.2-1.1,4-2.2c1.7-1.1,3-1.8,3.9-2.1l5-0.2l6.2,0.7l5.4,0.2c1.6-0.2,2.6-0.7,3-1.6c0.2-0.5,0.2-1.4-0.1-2.8
		c-0.3-1.3-0.3-2.2-0.2-2.6l-7.1-0.3l-6.7-0.9c-3.4,0.1-6.6,1.2-9.8,3.4l-3.9,3l-3.7,2.9c-0.7,0-1.5,0.3-2.4,0.8L110.1,83 M110.1,86
		c0,1.1,0.4,1.9,1,2.4c0.6,0.5,1.3,0.7,2.2,0.6s1.4-0.5,1.8-1.1c0.5-0.8,0.5-1.7,0.2-2.7l-2.6,0.4L110.1,86 M109.8,85.7l-2.6-0.4
		c-1.2-0.1-2,0.1-2.2,0.7c1.9,1.3,3.8,2.2,5.7,2.7l-0.4-1.5L109.8,85.7 M103.5,80.5c-0.5,1.6-0.8,2.9-0.9,3.9
		c-0.1,1.7,0.2,2.9,0.9,3.6l0-2.4c0.1-0.8,0.2-1.4,0.6-1.8l-0.2,2.3l-0.1,2.5c0.8-0.3,1.1-1.1,0.8-2.4l-0.4-1.8l-0.2-1.5
		c0.7-0.6,1.1-1.4,1.2-2.2l-0.8-0.2L103.5,80.5 M106.2,87.2c-0.4-0.4-0.8-0.6-1.2-0.7c-0.2,0.9,0.1,1.6,1,2.1l2.3,0.9l2.5,0.9
		c1,0.3,1.8,0.3,2.4,0c-0.4-0.8-1.2-1.3-2.5-1.6l-1.6-0.3l-1.6-0.5L106.2,87.2 M102.9,89c-1.9,1.1-4,1.9-6.2,2.4l-7.7,0.3l-1.2,0.6
		l-1.5,0.3L85.3,92c-0.3-0.4-0.7-0.6-1-0.6c-4.4-0.2-7.7-1.4-10-3.6c-0.5,2.6-0.8,6.1-0.9,10.5v11.4h31.3l0.2-0.7
		c0-0.4-0.1-0.4-0.2,0.1c-0.1,0-0.3-0.5-0.7-1.5l-0.8-2l-0.2-0.1l-1.5,0.2l-1.8,0c-0.8-0.7-1.1-1.7-1.1-3c0-1.4,0.6-2.2,1.8-2.4
		c-0.1,0.6-0.1,1.1,0,1.6l0.6,1.1c1-0.3,1.8-0.5,2.3-0.4c0.7,0.1,1.3,0.4,1.8,1.1c-0.1-1.1-0.9-2-2.2-2.8l-1.4-0.9
		c-0.5-0.4-0.8-0.9-0.9-1.4c-0.2-0.6-0.1-1.3,0.1-2l0.8-1.7c0.6-1.5,0.7-2.8,0.1-3.9c1.1,0.5,1.7,0.8,1.8,0.9c0.3,0,0.7-0.1,1.2-0.4
		v-0.2l0.1,0.1l0.5-0.4c0,0.3,0.1,0.6,0.2,0.8l0.7,0.4l0.7-0.9c0.3-0.3,0.7-0.4,1.2-0.4c0.1,0.4,0.1,0.8-0.1,1.2l-0.2,1.2
		c0.7,0.5,1.2,1.2,1.4,2.1c0.3,0.9,0.4,1.8,0.2,2.7c-0.2,1-0.6,1.7-1.2,2.2c-0.7,0.6-1.5,0.9-2.6,0.8l0.4,2l0.2,1.6
		c0.1-0.5,0.5-0.9,1.2-1.2l1.3-0.7l0.3-0.3l0.7-1.7c0.3-0.7,0.8-1.1,1.4-1.2c0.6,2.1,0.2,3.8-1,5.1c-1.1,1.1-2.8,1.7-5,1.9
		c-0.1,0.5-0.1,1,0.1,1.6l0.2,1.4l3.1,0.1l2.7-0.4l-1-0.9l-0.8-1.2c0.2-0.7,0.8-1.4,1.7-2.1c0.8-0.7,1.8-1.2,2.9-1.5
		c-0.6-2-0.6-3.8,0.2-5.4c0.8-1.7,2.1-2.3,4-1.6c0.4-0.7,1.2-1.2,2.3-1.5c1.3-0.3,2.2-0.6,2.5-0.9c3.7,0.1,6.4,0.5,8.1,1.2
		c0.1,0.6,0.6,1.4,1.5,2.6c0.6,1.1,0.4,1.9-0.6,2.6l-3.2-1.2l-3.1,0l-0.8,0.6c-0.3,0.3-0.7,0.3-1,0c-0.1,0.6-0.5,1.1-1.2,1.5
		l-1.8,0.9c0.2,0.8-0.1,1.5-0.8,2c-0.8,0.6-1.1,1.2-1,1.9c0.2,0.3,0.5,0.5,1,0.5l1.5,0.1c1.2,0,1.8,0.4,1.7,1.2l-3.3,0.2
		c-1.4-0.2-2.4,0-3,0.6l-1.6-0.3l-1.7-0.2c0.1,0.4,0.1,0.6-0.2,0.8l-0.4,0.4H136l0.1-6.7l-0.1-6.6l-0.4-4.7c-0.2-1.6-0.6-3-1.1-4
		c-1,1.1-2.9,2-5.6,2.8c-3.4,0.9-5.5,1.6-6.4,2l-9.1-1.3c-3.6-0.5-6.2-1.4-7.8-2.6l-1.2,0.6L102.9,89 M102.9,93.5h4.5
		c-0.1-0.3,0-0.7,0.2-1.2c0.2-0.4,0.1-0.7-0.2-0.9l-0.5,0.8c-0.3,0.3-0.6,0.4-1,0.4c-0.2-0.5-0.6-0.9-1.1-1.1l-0.1,0.1
		c-0.1,0.7-0.4,1-0.9,0.9c-0.5-0.1-1-0.3-1.5-0.8c-0.1,0.4,0,0.7,0.2,1.1L102.9,93.5 M113.2,90.2l1.3,0.4c0.4,0.3,0.9,0.3,1.4,0.2
		l0.4-1.2c0.1-0.6,0.2-1,0.5-1.2c1.7,1.5,2.9,2.4,3.6,2.8c1.7,0.9,2.7,0.7,3.2-0.7c-0.4,0.3-1.1,0.1-2.1-0.6c-1-0.6-1.4-1.2-1.2-1.6
		c1.9,0.2,3.8,0.7,5.8,1.5c0-0.4,0.1-0.7,0.2-0.8L127,89l-3.9-1.2l-4.8-0.2c-0.3-0.2-0.6-0.7-1-1.4c-0.3-0.7-0.7-1.2-1.1-1.3
		c-0.2,0.3-0.3,0.9-0.4,1.8l-0.5,1.8c-0.1,0.2-0.5,0.5-1.2,0.8C113.6,89.5,113.3,89.8,113.2,90.2 M137.8,71.8l4.8,1.2
		c2.2,0.3,3.6-0.1,4.2-1.2c-0.7-0.3-2.3-0.7-4.8-1.1c-2.1-0.3-3.6-0.9-4.2-1.6V71.8 M128.5,79.3c-1.2,0.2-2.4,0.7-3.6,1.5l-2.7,1.9
		l-2.1,0.9c-0.9,0.3-1.7,0.8-2.4,1.2l0.4,0.9l0.2,1.1c3.6,0.1,6.8,0.8,9.6,2.1c1.4-0.5,2.9-1.1,4.3-1.9l3.8-2.6
		c0.6,1.9,1,4.4,1.4,7.6l0.8,8.3c1.7-3.7,3.9-8.2,6.7-13.5l6.8-13.3l-4.8-0.6v6.3c-1.3,1-3.2,1.4-5.6,1.1l-3.3-0.6l-3.4-0.5
		C131.8,79.2,129.8,79.2,128.5,79.3 M116.2,90.8l-0.6,0.3c-0.3,0.1-0.3,0.2,0,0.3c0.2,0,0.5-0.1,0.7-0.6
		C116.8,90,116.8,90,116.2,90.8 M119.8,91.1c-0.3-0.6-1-0.9-1.9-0.9c-0.9,0-1.4,0.4-1.4,1.2l1.8,0.1L119.8,91.1 M123.4,90.2l1.8,0.8
		l1.8-0.1l-1.7-0.7L123.4,90.2 M134,86.2l-2.1,1.6l-2.4,0.8c-0.9,0.3-1.5,0.7-1.8,1.3c0.9,0.5,2.2,0.3,3.9-0.6l1.9-1.2
		c0.7-0.4,1.2-0.6,1.6-0.6c0.7,2.7,1.1,6.3,1.2,10.8v12c-6.8-0.3-17.3-0.4-31.6-0.3c-14.3,0.1-24.8,0-31.6-0.3L73,98
		c0.1-4.4,0.6-8,1.3-10.8c1.1,1.4,2.8,2.5,5.2,3.2c2.7,0.9,4.8,0.7,6.2-0.6l-2.2,0.4l-2.3,0.2l0.2-1.1c0-0.3-0.3-0.5-0.8-0.4
		c-1.4-0.3-2.7-0.9-4-1.7l-3.2-2.5c-0.8,3.2-1.3,7.1-1.7,11.6c-0.3,4.1-0.3,8.2-0.1,12.1c0.2,4.4,0.5,8.2,1,11.4
		c0.6,3.7,1.4,7.1,2.6,10.2c2.9,8.1,7,15.6,12.3,22.6c5,6.7,10.8,12.4,17.2,17.1c6.6-5.1,12.4-11,17.4-17.8
		c5.2-7.1,9.2-14.8,12.1-23.2c1.8-5.3,2.9-11.6,3.2-19.1l0.1,3.2l0.2,8.1c1.1-0.7,2.3-2,3.8-3.9l3.7-4.8v-10.8
		c0-4.2-0.2-7.6-0.6-10.1c-0.4,1.5-1.6,3.8-3.6,7.1c-1.9,3.1-3,5.5-3.3,7.1l-0.2,2.1c0.2-7.7-0.3-15.2-1.6-22.5
		C135.5,85.3,134.8,85.6,134,86.2 M177.6,46.3l-3.7-2.8l-3.6-2.7c-1.5-1-2.9-1.5-4.2-1.5c3.5,2.5,8.4,5.8,14.8,9.9
		C180.1,48.3,179,47.4,177.6,46.3 M165.1,39.5l1.3,1.1c1.8,1.5,4.2,3.3,7.2,5.4l7.2,5.1l2.8,2.3c1.1,0.9,2.1,1.3,2.9,1.4
		c-2.2-2.3-5.7-5-10.7-8.2c-5.3-3.4-8.9-6.1-10.9-8.1C164.5,38.6,164.6,39,165.1,39.5 M168.2,47.4l6.4,6.4c2.6,2.1,5.4,3.5,8.4,4.2
		l-0.3-0.6c-2.1-2.4-5.7-5.7-10.8-10.1c-4.2-3.6-7.4-6.5-9.6-8.7l-1-0.8l0-0.2l-0.3-0.4h0.9l-1.2-0.1l-1.5-0.2
		c1.9,2.1,4.9,5,9.1,8.8l9.6,9l-9.9-8.8c-3.7-3.4-6.8-6.5-9.3-9.4l-1.3-0.3L156,36l0.7,0.7l1.6,1.6l5.1,4.4L168.2,47.4 M165,50.1
		l-0.4-0.2l-1.6,2.2l-1.7,2.3l-1.5,2c-0.4,0.8-0.1,1.3,0.9,1.6C162.4,54.6,163.8,52,165,50.1l-2.2,4.8l-2.7,4.3
		c-0.1,0.9,0.2,1.3,0.9,1.2l0.2-1.1l0.1-1l0.8,0.4l0.7-0.1c0.2-1.1,0.6-2.5,1.1-4.1l1.2-4L165,50.1 M156,35.9l-0.1,0.1L156,36
		L156,35.9 M157,60.8c-0.1-0.1-0.1-0.1-0.2,0.2L157,60.8 M159.3,58.8c-0.4,0.3-0.6,0.5-0.7,0.7l0.6,0.3l0.7,0.3
		c-0.1-0.3-0.1-0.7,0-1.3c0.1-0.5,0.1-0.8,0-0.8L159.3,58.8 M158,60.4c0.2,0,0.3-0.3,0.1-0.7c-0.1-0.4-0.3-0.5-0.4-0.2l0.1,0.6
		L158,60.4 M158.3,60.3l0.2,0.4l0.3-0.3l0.3-0.3l-0.4-0.2l-0.5-0.1L158.3,60.3 M160.1,64.2l0.9-0.5v-1.5l-1.6-0.4
		c-0.6-0.1-1,0.1-1.4,0.4c-0.4,1.1-0.1,1.8,0.9,2.1L160.1,64.2 M158,61.1l-0.6-0.1c-0.3,0.4-0.5,0.9-0.5,1.4c-0.1,0.7,0,1.1,0.5,1.2
		c0-1.1,0.4-1.9,1.2-2.4L158,61.1 M161.3,60.7l-1.6-0.2c-0.5,0-0.8,0.2-0.9,0.8l1.6,0.3C161.1,61.6,161.3,61.3,161.3,60.7
		 M158.3,66.7l-0.1-0.6h-0.9c-0.2,0.5-0.1,0.8,0.4,1.1c0.4,0.3,0.7,0.2,0.9-0.2L158.3,66.7 M157.7,67.6l0.1,1.2
		c0.1,0.3,0.4,0.4,0.8,0.4v-1.6H157.7 M158,71.2c-0.1,0.5,0,0.8,0.3,1.1l0.9,0.4v-1.2L158,71.2 M158.6,69.4l-0.6,0.1
		c-0.2,0-0.3,0.1-0.4,0.2l0.4,0.9c0.1,0.4,0.4,0.6,0.8,0.6C159,70.3,158.9,69.7,158.6,69.4 M154.1,69.4l-5.9,11.4l-5.9,11.5l-3,5.8
		c-1.1,2.4-1.5,4.5-1.2,6.2l14.4-28.9l2.6-4.8c1-1.9,1.5-3.5,1.6-4.9c-0.5,0-1,0.5-1.6,1.4L154.1,69.4 M151.1,79.3l-3,5.8l-1.6,3.1
		c-0.6,1.3-1,2.2-1.1,2.9c-0.1,0.5-0.1,1.2,0.1,2l0.2,1.9v8v8.8l6.9-7.8l6.6-8.5l-0.5-13.8c-0.3-4.9-0.7-9.4-1.3-13.5
		c-0.7,0.6-1.3,1.4-1.9,2.4l-1.4,2.9L151.1,79.3 M158.6,74.5c-0.2,1.1,0.1,1.7,0.9,1.8v-1.5L158.6,74.5 M158.3,72.7
		c-0.1,1.2,0.3,1.8,1.2,1.8l-0.4-1.2C159,73,158.7,72.8,158.3,72.7 M158.9,77.8c-0.1,0.6,0,1,0.2,1.3l1,0.5c0.1-0.6,0-1-0.2-1.2
		C159.8,78.2,159.4,78,158.9,77.8 M159.8,76.6c-0.6,0-1-0.1-1.2-0.3c-0.1,0.9,0.3,1.4,1.2,1.5V76.6 M159.8,73.6
		c7-0.1,11.1-1.2,12.3-3.3l-5,0.5c-2,0-3.6-0.3-4.9-0.8l2-1.8l1.9-1.9l-7.2,0.6C159.1,70,159.4,72.2,159.8,73.6 M155,67l-8.2-0.9
		c-3.3-0.4-6.1-0.4-8.3-0.1c-1.5,1.7-0.8,3,2,3.9l3.7,0.9l3.1,0.8v1.2l2.4,0.1L152,73L155,67 M160.3,81.8c-0.5-0.3-0.9-0.2-1.1,0.2
		l0.6,0.7c0.2,0.3,0.5,0.4,1,0.2C160.9,82.5,160.8,82.1,160.3,81.8 M158.9,79.9c0.3,0.6,0.5,0.9,0.8,1c0.2,0.1,0.3,0,0.4-0.3
		c0.1-0.2,0-0.4-0.2-0.6L158.9,79.9 M161,84.8h-1.9c0,1.6,0.6,2.6,1.9,3c0.3-0.3,0.4-0.8,0.2-1.5L161,84.8 M161,83.6l-0.8-0.3
		l-1.1-0.6v1.8h1.9V83.6 M160.8,89.9c0.7-0.1,1-0.4,1.1-0.9c-0.3,0.1-0.4-0.1-0.3-0.6c0.1-0.5,0-0.7-0.3-0.6
		c-0.2,0.6-0.6,0.6-1.1,0.2l-1.1-1.2v2.7C159.6,89.9,160.2,90,160.8,89.9 M170.9,83.3l2.9-3.6c1.3-1.5,2.1-2.6,2.3-3.4l-3.2,3
		c-1.5,1.2-2.6,2.2-3.1,3l0.6,0.5L170.9,83.3 M171.9,84.1l0.5,0.4l2.3-3.9c0.9-1.6,1.5-2.8,1.6-3.7l-2.6,3.4c-1.2,1.4-2,2.6-2.5,3.6
		C171.5,83.8,171.8,83.9,171.9,84.1 M170.9,83.6c-0.7-0.1-1.1,0.2-1.2,1.1c-0.1,0.8,0.2,1.3,0.9,1.3c-0.1-0.5,0-0.8,0.3-1.1l0.6-0.7
		l-0.4-0.2L170.9,83.6 M169.7,83.8l0.7-0.8c-0.3,0.1-0.6,0.3-1.1,0.7l-1.1,0.8l0.6,0.3c0.1,0.2,0.4,0.3,0.6,0.2
		C169.3,84.6,169.4,84.1,169.7,83.8 M170,86c-0.1-0.3-0.5-0.4-1.2-0.2l-0.9-0.1c0-0.2,0.1-0.3,0.4-0.4c0.3,0,0.5-0.1,0.5-0.2
		c-0.3-0.3-0.6-0.4-0.9-0.2c-0.3,0.2-0.5,0.4-0.6,0.8l1,0.6c0.4,0.3,0.7,0.5,1.1,0.6l0.3-0.5L170,86 M166,86.2l0.4-0.8
		c-0.4,0.1-0.6,0.3-0.8,0.5c-0.1,0.1-0.1,0.2-0.1,0.4L166,86.2 M166.3,86.1c-0.3,0.2-0.4,0.7-0.4,1.2c0,0.6,0.2,1.1,0.6,1.5
		c0.4,0.5,0.9,0.6,1.6,0.5l0.8-0.9c0.4-0.3,0.5-0.7,0.4-1.2l-0.8-0.2l-0.7-0.4c-0.3,0.1-0.6,0.4-0.8,0.8l-0.7,1
		c-0.1-0.5,0.1-1,0.4-1.3l0.8-0.8C167.1,85.9,166.7,85.8,166.3,86.1 M168.8,89.6l1-0.8c0.4-0.5,0.3-0.9-0.1-1.2
		c0.2,0.5,0,0.9-0.6,1.3C168.8,89.2,168.6,89.4,168.8,89.6 M166.4,89c-0.3-0.1-0.6,0-0.8,0.2c-0.1,0.5,0,0.8,0.2,0.9l0.9,0.2
		c-0.1-0.3,0-0.5,0.2-0.7l0.4-0.5L166.4,89 M165.2,88.2c0-0.1-0.1-0.2-0.3-0.1l-0.2,0l-0.1,0.4l0.3,0.6
		C165.2,88.7,165.3,88.4,165.2,88.2 M165.5,88.4l-10.7,13.4l-11.3,13.8l-5.2,6.1c-1.9,2.5-3,4.7-3.2,6.8l11.1-13.8l11.4-14.1
		l4.2-4.6c1.9-2.1,3-3.7,3.4-4.8v-1.3c-0.1-0.5,0-0.9,0.3-1.1l0.2-0.1C165.7,88.3,165.6,88.3,165.5,88.4 M165.6,94
		c0.2,0.5,0.5,0.7,1.1,0.7c0.2-1.4-0.2-2.2-1.2-2.4C165.5,93.1,165.5,93.6,165.6,94 M166.6,91.1c-0.3-0.4-0.7-0.6-1.1-0.6l0.1,1.3
		c0.1,0.4,0.4,0.6,0.8,0.5C166.9,92,166.9,91.6,166.6,91.1 M61.4,32.1l0.4,0.1l-0.1,0.2l-6,1.5c-2.3,0.6-3.9,1.2-4.9,1.8l8.9-2.4
		l9.2-2.1L70,31l-1.1-0.2l-4,0.8L61.4,32.1 M60.5,33.3l-9.3,7.3c-3.6,2.9-6.4,5.3-8.4,7.4c2-2.4,4.7-4.9,8-7.6l8.8-6.9
		c-1.6,0.2-3,0.7-4.2,1.6c-0.7,0.5-1.7,1.4-3,2.6l-7.5,6.6L43,46l-0.6,0.6c-0.5,0.7-0.7,1.3-0.6,2c1.3,0,2.7-0.4,4.1-1.1l3.7-2.2
		L60,38.4l10.2-6.9l-1.7,0.2l-1.7,0.1c-7,5.1-12.4,8.8-16.2,11.1c1.6-1.3,4.2-3.2,7.9-5.6l7.2-5.2l-2.5,0.7L60.5,33.3 M63.2,30.9
		c2.3-0.7,4.2-1.2,5.8-1.2l2.3-0.1c0.9,0.1,1.6,0.4,2.2,1h-1.8c-0.8,0-1,0.1-0.7,0.3l5,0.4l4.1,0.5c-0.4-0.2-0.7-0.5-0.9-0.9l1-0.3
		c0.5-0.1,0.7-0.4,0.5-0.9c-0.8-1.1-2.5-1.5-5.1-1.4l-5.4,0.5c1.5-0.8,3.3-1.5,5.4-2.1c-5.4-0.1-11.2,0.9-17.3,3.2
		c-5.4,2-10.3,4.7-14.5,7.9c1.6-0.8,3.7-1.6,6.2-2.5l7.3-2.3L63.2,30.9 M72.7,31.3c0-0.1-0.2-0.1-0.4-0.1c-3.4,1.7-6.8,3.7-10.2,6.1
		c-3.4,2.4-6.3,4.8-8.8,7.2l-1.4,1.1c-0.5,0.5-0.6,0.8-0.2,1c3.7-1,7.5-3.2,11.2-6.6l4.6-4.2c1.8-1.7,3.4-3,4.9-3.9L72.7,31.3
		 M72.1,32.3c-0.8,0.5-1.8,1.4-3.2,2.8L62,40.9c-2.5,2.3-4.4,4.2-5.8,5.9c2.3-0.2,4.2-0.8,5.9-1.8c1.1-0.7,2.4-1.9,4-3.6l5.1-5.2
		c2-1.9,3.7-3.4,5.2-4.4C74.8,31.3,73.4,31.5,72.1,32.3 M66.9,30.3c-1.5,0.3-3.1,0.8-4.7,1.5l4.9-0.9l5.1-0.6
		C70.7,29.9,68.9,29.9,66.9,30.3 M83.7,28v-0.2C83.6,27.9,83.6,27.9,83.7,28 M78.2,33.9c-2.2,1.8-4.6,4.1-7,6.9
		c-1.8,2.1-3.8,4.6-6,7.5l2.2-0.3l2-0.6l-0.6,1.2l-0.6,1.1c0.7,0,1.5-0.2,2.2-0.6c0.9-0.5,1.5-0.8,1.9-0.9c0.7-2,1.8-4,3.3-6.1
		l4.2-5.1l1.5-1.5c0.6-0.6,0.9-1.2,0.9-1.8c-0.6-0.1-1.3,0.1-2,0.8l-1.7,1.7l-1.7,1.8l-1.7,1.9l-3.3,3.7l-3,3.2
		c1.3-2,3.2-4.3,5.8-7.1l6.2-6.8c-0.5-0.4-1-0.5-1.6-0.2L78.2,33.9 M82.5,32.1L82,32.5c-0.3,0.1-0.4,0.3-0.4,0.5l0.6,0.3l0.6,0.3
		v-0.9C82.8,32.2,82.7,32.1,82.5,32.1 M83.2,34.6l-0.4-0.1l-6,7.1c-2.1,2.8-3.6,5.5-4.6,8.3c1,0.1,1.9-0.1,2.7-0.5
		c0.9-0.6,1.6-1,2.1-1.2c0.1,0.9,0,1.5-0.3,1.8c0.6,0,1.1-0.1,1.6-0.5l1.1-1c0.2-2.2,0.9-4.6,2.1-6.9l1.5-2.9l1.5-3.1
		c-0.5-0.1-1,0.1-1.4,0.7l-1,1.4c-2.1,2.8-3.9,6.2-5.4,10.2c0.5-2.3,1.5-4.7,2.9-7l4-5.9L83.2,34.6 M86.5,29.9l-0.7-0.9
		c-0.3,0.1-0.2,0.4,0.1,0.7l0.8,0.8C87,30.5,86.9,30.2,86.5,29.9 M84.5,34.5c-0.1-0.1-0.3,0-0.5,0.3c0.3,0.3,0.5,0.4,0.6,0.3
		l0.2-0.3L84.5,34.5 M75.8,32.6c-0.2,0.2-1.2,1-2.9,2.4l-4.2,4L65,42.9l-2.1,2.1c-0.8,0.8-1.3,1.6-1.5,2.4l2.9-0.8
		c1.3-0.6,2.1-0.9,2.5-1.1c1.4-1.9,3.4-4.2,6.2-6.9l6.5-6.6C78.2,31.8,77,31.9,75.8,32.6 M30.9,46.8c-0.7,0.5-1.1,1-1.2,1.5l7.1-4.8
		l7.1-4.8l0.2-0.5c0-0.1-0.1-0.2-0.5-0.2c-1.7,0.7-3.7,1.9-5.8,3.5l-5.1,4.1L30.9,46.8 M40.9,41.8l5.4-4.3c-0.5,0-0.9,0.1-1.2,0.3
		L39.9,42l-5.7,3.7c-4.9,3.1-8.3,5.9-10.4,8.4l5.9-3.8l5.5-4.3L40.9,41.8 M28,57.1c2.7-1,5.3-2.5,7.8-4.4c1.9-1.4,4-3.4,6.4-5.8
		l0.2-0.2l0.3-0.4L43,46l5.2-5.4c2.3-2.3,4.5-4.2,6.6-5.6l-1.5,0.2l-1.5,0.4c-2.5,2.8-5.6,5.9-9.3,9.4l-10,8.8
		c2.1-2.1,5.2-5,9.5-8.9l9.5-8.9l-1.7,0.2L49,36.3h0.3c0,0.3-0.1,0.6-0.3,0.9C43,42,36.6,47.9,29.8,54.7l-1.5,1.2
		C27.6,56.5,27.6,56.9,28,57.1 M23.8,57.7c2.4-2,4.4-3.2,5.9-3.7c2.1-2.1,4.9-4.8,8.5-8l8.7-7.7l1.2-0.8c0.5-0.4,0.6-0.9,0.2-1.3
		L48,36.4c-0.1,0.1-0.1,0.1,0.1,0.2h0.3v0.3c-0.9,0.3-1.8,0.8-2.8,1.5c-0.5,0.4-1.3,1-2.3,1.9L29.9,50.3c-5.2,4-9.2,7.7-12.2,11
		C19.5,60.9,21.5,59.7,23.8,57.7 M34.1,78.1l1.7,1.9l1.4,2.1c0.6,0.8,1.2,1.1,2,0.9c0.2-0.7-0.1-1.4-0.9-2.1l-2.2-1.6l-1.9-1.8
		c-0.7-0.7-1.3-1.1-1.8-1.2L34.1,78.1 M40.9,84.2c-0.3,0.1-0.7-0.1-1.2-0.5c-0.3-0.3-0.5-0.3-0.6-0.1c0.3,0,0.5,0.2,0.5,0.5l0,1
		c0.3,0,0.6-0.1,0.8-0.3L40.9,84.2 M39.3,84.4l-0.6-0.6c-0.3-0.1-0.5,0-0.8,0.4l0.3,0.9l0.6,0.9c0.3-0.1,0.5-0.3,0.5-0.7
		C39.5,85,39.5,84.7,39.3,84.4 M39.6,86.5l0.4,0.3c0-0.3,0.1-0.4,0.5-0.6c0.4-0.1,0.5-0.3,0.4-0.6c-1-0.1-1.6,0.1-1.8,0.6L39.6,86.5
		 M41.1,85.5l0.7,0.2l0.1-0.9l-0.5-0.4c-0.6-0.1-1,0.2-1.1,1L41.1,85.5 M39.1,87.5c-0.2,0.6,0,1.1,0.5,1.6c0.5,0.4,0.8,0.5,1,0.2
		c-0.3-0.1-0.6-0.3-0.9-0.8L39.1,87.5 M39.9,88.2c0.2,0.5,0.7,0.9,1.6,1.1c0-0.2,0.2-0.3,0.4-0.4l0.5-0.2c-0.1-0.9-0.3-1.5-0.8-1.8
		c-0.4-0.2-0.8-0.1-1.2,0.2C40,87.4,39.8,87.8,39.9,88.2 M85.7,36.9l-0.2-1.2c-1.8,2.4-3.1,4.4-3.9,6.1c-1.2,2.5-1.8,5.2-1.8,8.1
		l2.8-0.7c0.8-0.2,1.5-0.1,2.3,0.4c0.7-0.5,1.3-1.8,1.8-3.7c0.5-2,1.1-3.2,1.8-3.8c-0.5-0.1-1-0.5-1.4-1l-1-1.4
		c-0.7,0.9-1.4,2.2-1.9,4.1l-1.3,4.6c0.1-1.9,0.5-3.7,1.2-5.5c0.5-1.2,1.2-2.7,2.3-4.4C86.1,38.2,85.9,37.7,85.7,36.9 M86.7,38.1
		c-0.1-0.6,0-1.1,0.3-1.5c-0.7-0.1-1,0-0.8,0.5C86.2,37.5,86.4,37.9,86.7,38.1 M86.1,49.2l0.6,0.4l0.9,0.1c0.4-3.1,1.1-5.5,2.1-7.2
		c-0.4,0.1-0.6-0.1-0.6-0.6c-0.8,0.6-1.4,1.7-1.9,3.2L86.1,49.2 M49,53c-0.9-1.2-1.8-2.1-2.7-2.9l1,1.9l1.2,2.1l0.9,2.2
		c0.4,0.8,1,1.1,1.8,0.8C50.8,55.8,50.1,54.4,49,53 M51,60c-0.7,0-1,0.2-0.8,0.7c0,0.3,0.3,0.4,0.8,0.4l0.8-0.4
		C52,60.2,51.7,60,51,60 M53.2,59.6c-0.1-0.3-0.2-0.6-0.5-0.7l-0.5,0.5c-0.3,0.1-0.5,0.2-0.5,0.4l0.5,0.4c0.2,0.2,0.4,0.3,0.7,0.2
		C53.2,60.2,53.3,59.9,53.2,59.6 M52.4,60.7l0.6,1c0.3,0.4,0.4,0.9,0.3,1.4c0.6,0.1,1-0.2,1.2-0.9c0.2-0.7,0.1-1.3-0.2-1.8l-1,0.1
		L52.4,60.7 M51.8,59.2l0.6-0.7c-0.6,0-1-0.1-1.2-0.3c0,0.5-0.1,0.9-0.3,1.2L51.8,59.2 M49.3,58c0-1.1-0.5-2.5-1.3-4.2l-2.2-4
		l1.2,4.2l1.2,4.2l0.6-0.2L49.3,58 M49.9,60.1c0.5-0.4,0.8-1,0.9-1.8c-0.2-0.3-0.5-0.4-0.9-0.2c-0.4,0.1-0.7,0.2-0.9,0.5
		c0.4-0.1,0.5,0.2,0.5,0.7C49.6,59.8,49.7,60.1,49.9,60.1 M49.6,61.9c-0.1,0.5,0,1,0.3,1.4l0.9,0.1c-0.3,0-0.5-0.3-0.6-0.7
		L49.6,61.9 M51.8,61.2c-0.5-0.1-1,0-1.5,0.3c0.1,0.8,0.3,1.3,0.7,1.7c0.4,0.4,1,0.6,1.8,0.4c-0.1-0.2,0-0.4,0.1-0.7l0.2-0.8
		C52.6,61.7,52.2,61.3,51.8,61.2 M52,64c0,0.5,0.2,0.8,0.4,1l1.2,0.2l0-1c-0.1-0.3-0.2-0.5-0.5-0.5L52.7,64H52 M53.8,63.9
		c-0.1,0.7,0.2,1,0.7,1c0.2-0.3,0.3-0.9,0.3-1.8C54.2,62.9,53.9,63.2,53.8,63.9 M65.5,70.1l3-0.4c1.2-0.2,2-0.5,2.6-0.9
		c0.7-0.5,1.1-1.3,1.1-2.4c-0.6-0.8-1.6-1.2-3-1.3l-3.7,0.1l-5.1,0.6l-4.8,0.3l1.6,3.7c0.7,1.4,1.3,2.5,2,3.3
		c0.3-0.2,0.8-0.4,1.5-0.6l1.5-0.4c0.3,0.1,0.4-0.1,0.3-0.6c-0.1-0.5,0-0.7,0.3-0.6C63.5,70.5,64.3,70.3,65.5,70.1 M55.6,67
		c-0.4-0.8-0.9-1.4-1.4-1.8c-0.1,1.4,0.3,3.1,1.2,4.9l2.4,4.5l6.7,13.7c2.6,5.3,4.9,9.8,6.8,13.4c0-2.1-0.5-4.2-1.4-6.1l-2.8-5.3
		l-5.4-10.8l-5.2-10.3L55.6,67 M53.6,67.6c-0.8,3.8-1.4,8.6-1.7,14.5l-0.8,15l6.3,7.9l6.3,7.8l0.7,0.4c0.2,0.2,0.3,0,0.2-0.4v-8.2
		v-7.6l0.4-3.6c0.1-1.5,0.1-2.7-0.1-3.6l-1.1-2.8l-1.6-2.9l-4.4-8.4L53.6,67.6 M53,67l-0.3,0.3H52v1.1c0,0.5,0.1,0.7,0.4,0.8
		l0.8-0.9C53.4,67.7,53.4,67.3,53,67 M52,67c1.1,0.1,1.6-0.4,1.5-1.5c-0.5,0-0.8,0.1-1,0.5L52,67 M52.4,71.2L52,71.5l-0.6,0.1v1.2
		c0.4,0.1,0.8-0.1,1.1-0.6C52.8,71.8,52.8,71.4,52.4,71.2 M51.4,71.2c0.5,0.1,1-0.2,1.3-0.8c0.3-0.6,0.3-1.1,0-1.4l-0.3,0.2
		l-0.7,0.1C51.8,70.4,51.7,71,51.4,71.2 M49,69.4L44.4,70L40,70.3c1.2,0.9,2.8,1.6,4.9,2.2l5.9,1.1l0.5-3.6l0.4-3.7l-3-0.2L46,66.4
		l1.5,1.6L49,69.4 M51.1,74.1c0,0.4,0.1,0.7,0.3,0.7l0.8-0.6c0.2-0.3,0.3-0.6,0.2-1.1h-1.2V74.1 M50.5,78.4c0.5,0,0.9-0.2,1.2-0.7
		s0.3-0.9,0-1.1l-1,0.6C50.5,77.5,50.4,77.9,50.5,78.4 M50.8,76.6c1,0,1.4-0.6,1.2-1.8C51,74.8,50.6,75.4,50.8,76.6 M51.5,80.9
		c0.1-0.4,0-0.7-0.3-0.7l-0.8,0.6c-0.3,0.2-0.4,0.5-0.4,0.9h1.2L51.5,80.9 M49.3,85.7h1.8l0.3-1.2c0.2-0.4,0.1-0.7-0.3-0.9
		c-0.2,0.6-0.8,0.9-1.8,0.9V85.7 M49.3,86c-0.2,0.6-0.4,1.1-0.4,1.6c-0.1,0.5,0,1.1,0.1,1.7c1.4-0.3,2.1-1.4,2.1-3.3H49.3
		 M49.6,84.2c0.9-0.1,1.4-0.6,1.5-1.5h-1.5V84.2 M44.2,89.9c0.2-0.2,0.4-0.6,0.4-1.2c0-0.6-0.2-0.9-0.7-0.9
		C43.2,88.3,43.3,89,44.2,89.9c-0.3,0.9-0.1,1.9,0.8,3l2.5,3l9.7,11.9l9.3,11.3l3.9,4.6c1.3,1.6,2.3,3,3.1,4.2l-0.3-0.2
		c-0.3-0.3-0.4-0.1-0.3,0.4l1.6,9.7c0.6,4,1.2,7.2,1.8,9.4c1.6,7,4.2,11.9,7.8,14.6c3.5,2.7,9,4.3,16.2,4.8
		c-5.7-4.6-10.8-10.2-15.2-16.8c-4.1-6.1-7.8-13.1-11-21.1c0.1-1.7-0.3-3.2-1.2-4.5c-0.5-0.8-1.5-2-3-3.6l-13-15.9
		C51.6,98.3,47.4,93.4,44.2,89.9 M42.6,90.2l1-0.1v-0.9c-0.2-0.3-0.6-0.4-1-0.2c-0.4,0.1-0.7,0.2-0.8,0.5L42.6,90.2 M43.3,92.3
		c-0.8,0.4-1.1,1.2-0.9,2.4c0.6,0.1,1-0.2,1.2-0.9C43.8,93.2,43.7,92.7,43.3,92.3l0.3-1c0.1-0.5,0-0.8-0.3-0.8l-0.8,0.6
		c-0.2,0.3-0.3,0.7-0.2,1.2H43.3 M51.1,87.8l-1,1.4l-1.8,0.1c-0.2,1-0.1,1.6,0.5,2l1.8,0.1l0.6-1.8C51.6,88.8,51.5,88.2,51.1,87.8
		 M50.2,80.2c1.1-0.1,1.6-0.7,1.5-1.8C50.7,78.5,50.2,79.1,50.2,80.2 M71.9,69.8c0.1-0.7,0-1.2-0.3-1.3c-0.6,0.8-2,1.3-4.1,1.6
		c-2.5,0.3-4.1,0.7-4.7,1.1c0.6,1.1,2,1.5,4.1,1.1c2.4-0.6,4-0.9,4.9-0.8V69.8 M65.3,91.1L65,102.4l0,11.6c2.8,3.6,5.2,6.5,7.2,8.7
		l-0.4-6.1l-0.5-6.5l0.1-3.9l-0.1-3.3c-0.2-0.8-0.6-1.7-1.3-2.9l-1.7-2.9l-1.5-3.2L65.3,91.1 M66.8,120l-3.2-4l-2.8-3.2l0.5,7.5
		l1,8.1l0.9,7.1l1.2,7.1c1.1,5,2.3,9.2,3.8,12.8c1.9,4.9,4.1,8.1,6.5,9.5c1.9,1.1,4.9,1.7,9.2,1.6c5-0.2,8.7-0.3,11-0.1
		c-7.2-0.8-12.5-4.3-15.9-10.8c-1.4-2.6-2.5-5.8-3.5-9.6c-0.6-2.6-1.3-6.3-2-10.9l-0.4-4.4c-0.2-1.8-0.4-3.1-0.8-4.1
		c-0.3-0.8-1.1-1.9-2.3-3.3L66.8,120 M43.6,94.7L43,94.8L42.4,95l0,1.2c0,0.5,0.1,0.8,0.3,0.8c0.3-0.1,0.5-0.4,0.6-1L43.6,94.7
		 M42.4,98.3c0,0.4,0.1,0.6,0.3,0.6l0.5-0.9c0.2-0.4,0.1-0.8-0.2-1l-0.6,0.4L42.4,98.3 M42.4,100c-0.1,0.7,0.1,1.1,0.6,1l0.4-1.1
		c0.1-0.6,0-0.9-0.4-1C42.7,98.9,42.5,99.3,42.4,100 M42.4,101.8v1.3c0.5,0.2,0.8-0.1,1-0.8c0.1-0.7,0-1.1-0.4-1.3
		C42.7,101.1,42.5,101.4,42.4,101.8 M43.6,103.1c-0.6-0.2-1,0.1-1.2,0.7c-0.2,0.6-0.1,1.1,0.3,1.4l0.7-0.9
		C43.7,104.1,43.8,103.7,43.6,103.1 M42.5,105.8c-0.3,0.4-0.4,0.8-0.4,1.2c0.6,0.2,1.1-0.1,1.4-0.7c0.3-0.6,0.2-1.1-0.2-1.4
		L42.5,105.8 M43.3,109c-0.4,0.2-0.6,0.2-0.6-0.2c0.3,0,0.6-0.3,0.8-0.8c0.2-0.5,0.2-0.8-0.2-1c-0.2,0.4-0.6,0.6-1.2,0.6v1.5
		l0.7,0.2l0.8,0.1C43.7,109,43.6,108.8,43.3,109 M43.3,109.7h-1.2l-0.2,1.2c-0.1,0.3,0.1,0.5,0.5,0.6l0.8-0.6
		C43.4,110.6,43.5,110.2,43.3,109.7 M41.8,113.1l0.9,0.2l1.2-0.2l0-1.4c0-0.6-0.1-0.9-0.3-1.1l-0.7,0.9l-1.1,0.3V113.1 M41.9,116.7
		c0,0.8-0.1,1.6-0.4,2.3c0.2,0.4,0.7,0.6,1.4,0.6l1.6-0.3v-2.2c-0.1-0.8-0.3-1.4-0.6-1.6c0.1,0.6-0.1,1.1-0.5,1.6s-0.8,0.6-1.2,0.2
		c0.7-0.2,1.3-0.8,1.6-1.6c0.3-0.8,0.4-1.6,0.2-2.4l-1.2,0.2l-0.9,0.4L41.9,116.7 M44.7,114.8c0.3,2,0.4,3.6,0.1,4.6l-0.4,0.4
		c-0.2,0.1-0.2,0.3-0.2,0.5c0,0.9,0.1,2.2,0.4,3.8l0.5,3.7c0.5,5.9,1.4,10.9,2.8,14.9c1.6,4.8,3.9,8.4,6.9,10.7
		c-0.2-0.2-0.3-0.5-0.5-0.9c-0.2-0.5-0.1-0.8,0.2-0.9l0.8,2.8c0.5,1.1,1,1.5,1.6,1.4L56,154c-0.3-0.8-0.3-1.4,0-1.8
		c0.3,1.4,0.6,2.5,1,3.4c0.5,1,1.2,1.8,2,2.4l-1.3-3.7c-0.6-1.5-0.9-2.7-0.8-3.6l1.7,5.4c0.8,2,1.8,3.3,3.1,3.9l-2.4-6.3
		c-0.8-2.6-1.2-4.8-1.2-6.6l1.1,4.3l1.1,4.3c1.1,3.3,2.6,5.2,4.4,5.8c-1-2.1-1.9-4.1-2.7-6.2c-0.9-2.5-1.5-4.6-1.8-6.4
		c0.7,1.7,1.6,4.4,2.7,8.2c1.1,3.1,2.6,5.2,4.5,6.3l-2.9-6.7c-1.1-2.7-1.8-5-2-6.9L64,154l1.6,4.7c1.4,3.6,3.1,5.4,5.2,5.5
		c-1.3-1.4-2.5-3.2-3.6-5.4c-1-2.2-1.6-4.3-1.9-6.3l1.5,4.2c0.6,1.8,1.2,3.1,1.7,4.1c1.6,3,3.7,4.4,6.4,4.3
		c-0.6-0.3-1.2-0.7-1.8-1.3l-1.4-1.7c-3.6-4.7-6.3-12.2-8.2-22.5c-1.1-6.2-2.1-15.4-3-27.5l-8.2-10.1l-8.3-9.8v8.4
		c-0.1,3.9-0.1,6.9,0,9L44.7,114.8 M79.4,166.6c-7.6-0.8-14.1-3.3-19.6-7.5c-4.8-3.7-8.8-8.8-12-15.1c1,3.9,2.1,7.3,3.4,10.2
		c1.4,3.3,3.1,6.2,5.1,8.5l1,0c0.5,0,0.7,0.1,0.8,0.4l-0.9-0.1c-0.4,0-0.6,0.1-0.6,0.4c0.1,0.2,0.5,0.3,1.2,0.2
		c0.7,0,1.1,0.1,1.2,0.4c-0.1,0.2-0.3,0.2-0.8,0.2c-0.4,0-0.7,0.1-0.7,0.4c0.1,0.2,0.5,0.3,1.3,0.3c0.8-0.1,1.3,0,1.4,0.3l-1.1-0.1
		c-0.4,0-0.7,0.1-0.7,0.4c0.2,0.5,0.9,0.6,1.9,0.5l2,0.1l-1.4,0.2c-0.7,0-1.1,0.1-1.3,0.4c0.3,0.6,0.9,0.9,2,0.8l2.2-0.2l-1.2,0.4
		c-0.6,0.1-1,0.3-1.1,0.5l2.9,0.3c1.1-0.1,1.9-0.3,2.5-0.6c-0.1,0.6-0.7,0.9-1.8,0.9l-2.4,0.4c0.3,0.5,1.1,0.7,2.6,0.6l2.6,0
		c-0.2,0.3-0.7,0.4-1.7,0.3c-0.9-0.1-1.5,0-1.6,0.3c0.6,0.6,1.7,0.8,3.2,0.5l2.6-0.8c-0.3,0.4-0.9,0.7-1.7,0.9l-2,0.6
		c0.9,0.7,2,0.7,3.4,0.2l2.6-1.1c-0.2,0.5-0.7,0.8-1.6,1c-1,0.3-1.5,0.6-1.7,1.1c1.2,0.4,2.3,0.4,3.3-0.1c1-0.3,1.8-0.9,2.3-1.8
		c-0.1,0.6-0.4,1.1-1.1,1.5l-1.6,0.9l1.2,0.2l1.2,0.1l1.1-1c0.4-0.5,0.8-0.7,1-0.5l-0.8,0.9c-0.4,0.4-0.3,0.6,0.2,0.6
		c0.6,0.2,1.3,0,1.9-0.6c0.6-0.5,0.9-0.7,1.1-0.6l-1.2,1.2c0.7,0.2,1.2,0.1,1.7-0.3l1.1-0.9l-0.3,0.6l-0.3,0.6
		c0.8,0.1,1.4,0,1.9-0.5l1.2-1.3c0.1,0.3,0,0.6-0.3,0.8c-0.3,0.2-0.4,0.5-0.3,0.8c0.6,0.1,1.1,0,1.5-0.4l0.9-1.1l-0.2,0.7
		c-0.1,0.2-0.2,0.4-0.2,0.5l1.5-0.4l0.9-0.9c0.3,0.7,0.8,0.8,1.3,0.3l0.7-0.8c0.3-0.3,0.5-0.4,0.6-0.5l-0.2,0.5l-0.1,0.4
		c0.7,0.1,1.2,0,1.5-0.5l0.9-1.2l-0.2,0.6l-0.2,0.6c0.7,0,1.2-0.2,1.7-0.6l1-1.2v0.9l3-1.3l2.8-1.7l-10.6-0.3
		C84.7,166.9,81.4,166.8,79.4,166.6 M87.8,185.5l2.5-3.2l4.9-5.9c1.8-2.4,2.8-4.7,2.9-6.8l-12.1,15l-2.2,2.3c-0.8,1-0.9,2-0.4,2.9
		c0.3,0.2,0.7,0.1,1-0.2l0.8-1L87.8,185.5 M89.4,199.4l5.4-10.9l-1.2,0.1l-1.2,0.2c-0.8,1.3-1.7,3-2.8,5.2l-2.7,5.3H89.4 M166.7,95
		l-0.6-0.2l-0.6-0.1l0.2,1.6c0.2,0.5,0.5,0.8,0.9,0.8V95 M165.9,100.4c0.1,0.4,0.4,0.6,0.9,0.7l-0.1-1.5c-0.1-0.4-0.4-0.6-0.8-0.6
		C165.8,99.6,165.8,100.1,165.9,100.4 M165.8,101l0,1.5c0.1,0.5,0.4,0.7,0.9,0.6l-0.1-1.4C166.6,101.3,166.3,101,165.8,101
		 M166.7,97.4c-0.3,0-0.6-0.1-0.9-0.4c-0.1,0.9,0.2,1.6,0.9,1.9V97.4 M166.7,103.8c-0.1-0.4-0.4-0.6-0.8-0.7
		c-0.1,1.2,0.2,1.9,0.9,2.1L166.7,103.8 M165.8,109.4l0.6-0.1l0.6-0.2v-1.5c-0.3,0.1-0.5,0-0.7-0.2c-0.2-0.3-0.3-0.4-0.5-0.4
		c-0.1,0.5-0.1,0.9,0,1.3l0.6,0.8l-0.4,0.1L165.8,109.4 M165.8,105.2c-0.1,0.7,0,1.2,0.1,1.4c0.2,0.4,0.5,0.5,1.1,0.4
		C167.2,105.8,166.8,105.2,165.8,105.2 M167.3,112.2l-0.9-0.5c-0.4-0.2-0.6-0.4-0.6-0.8c-0.4,0.2-0.6,0.4-0.7,0.8
		c0,0.3,0.1,0.7,0.4,1l0.9,0.6c0.4,0.1,0.7,0,1-0.3V112.2 M167.1,110.8c-0.1-0.4-0.2-0.8-0.1-1.1h-1.2c0,0.5,0.1,0.9,0.3,1.2
		l0.9,0.6C167.2,111.4,167.3,111.1,167.1,110.8 M164.9,115.2c-0.2,0.9-0.3,1.8-0.2,2.6c0.2,2.1,1.1,2.5,2.9,1.3l-0.2-0.7
		c-0.1-0.2-0.2-0.5-0.1-0.8c-0.7,0.2-1.3,0-1.7-0.6c-0.4-0.6-0.5-1.1-0.1-1.5l0.4,1.2c0.2,0.4,0.6,0.6,1.1,0.6l0.3-1.5V114l-0.9-0.4
		l-0.9-0.2C165.3,113.7,165.1,114.3,164.9,115.2 M164.3,118.5c-0.1-1.1-0.1-2.6,0.2-4.4l0.6-4.6c0.2-4.8,0.1-10.5-0.3-17.1
		l-16.2,19.9l-0.1,2.8l-0.2,2.3l-1.4,14.1c-0.6,5.2-1.4,9.6-2.3,13.4c-1.8,7.6-4.3,13.6-7.7,17.9l0.8-1.2c0.9-1.4,1.9-3.3,2.9-5.7
		c2.3-5.1,4.1-12.1,5.6-20.8c1.1-6.9,1.9-14.2,2.3-21.9l0-0.2l-0.2,0l-2.8,3.6l-3,3.9l-3,3.2c-1.2,1.3-2,2.4-2.4,3.3
		c-0.4,1.1-0.7,2.5-0.8,4.4l-0.4,4.6c-1.3,9.1-3.3,15.8-5.8,20.2l-0.9,1.4c0.8-1.2,1.4-2.7,2.1-4.4l1.9-6.6
		c1.5-5.9,2.6-12.2,3.3-18.7c-1.2,1.1-2.2,2.7-3.2,4.9l-2.2,5.6c-2.6,5.5-5.8,10.7-9.8,15.7c-3.4,4.4-7.5,8.7-12.2,12.9
		c5-0.7,8.7-1.5,11.3-2.5c2.8-1,5-2.4,6.8-4.2c-3.2,3.5-7.4,5.6-12.5,6.4c1.9-0.3,5.3-0.3,10.2-0.1c4,0.1,7-0.2,8.9-1l2.1-1.5
		l-1.5,1.5c2.9-0.2,5.1-1.9,6.6-4.9l1.6-4.1c0.6-1.8,1.2-3.1,1.7-4l-2.3,6.6c-1,2.2-2.1,4-3.4,5.5c2.3-0.7,4.1-2.8,5.4-6.2l1.3-4.5
		c0.6-1.7,1.2-3.1,1.8-4c-0.4,1.8-1.2,4.2-2.4,7.1c-1.4,3.2-2.2,5.3-2.4,6.4c0.4-0.5,1-0.8,1.8-0.9c0.8-1.6,1.7-3.9,2.8-6.8
		c1.2-3.4,2.1-5.6,2.7-6.8c-1.3,4.5-2.9,8.8-4.9,12.9c2-1,3.5-3.1,4.5-6.4c0.9-3.9,1.7-6.7,2.4-8.4c-0.2,1.8-0.8,4.1-1.7,6.9l-1.9,6
		c1.1-0.7,2.1-2.1,2.8-4.2l0.9-2.7c0.4-1,0.7-1.9,1.1-2.4l-1.2,3.8c-0.6,1.6-0.9,2.7-0.9,3.4c0.6-0.5,1.2-1.4,1.8-2.6l1.2-3.1
		c0.1,0.6-0.1,1.3-0.6,2.2c-0.4,0.8-0.5,1.4-0.3,1.6c0.6-0.3,1-1,1.4-2c0.5-1.4,0.8-2.2,1-2.5l-0.3,1.2c-0.2,0.5-0.2,0.8,0,0.9
		c2.5-2.8,4.6-6.1,6.2-9.9c1.7-4,2.7-8.4,3.2-12.9l0.6-5.6c0.3-2.2,0.4-3.9,0.3-5.2l-0.3-0.8L164.3,118.5 M161,144
		c-2.9,6.5-6.9,11.6-11.8,15.3c-5.5,4.1-12.1,6.6-19.8,7.3c-1.4,0.1-4.8,0.2-10.2,0.2l-10.6,0.7v1.9c0.1,0.7,0.4,1,0.9,1.1l-0.7,0.1
		c-0.2,0.1-0.3,0.2-0.2,0.5c-0.1,0.3,0.1,0.4,0.6,0.3c0.5-0.1,0.7,0,0.6,0.3h-0.9c-0.3,0-0.4,0.2-0.3,0.6c0.1,0.2,0.3,0.3,0.8,0.4
		s0.7,0.2,0.7,0.5l-1-0.2c-0.4-0.1-0.6,0.1-0.5,0.6c0.1,0.2,0.4,0.4,1,0.5c0.5,0.2,0.8,0.4,0.8,0.7l-1.1-0.4
		c-0.5-0.1-0.7,0.1-0.7,0.8c0.1,0.2,0.4,0.4,1,0.5c0.6,0.1,0.8,0.3,0.8,0.8c-0.2-0.2-0.5-0.3-0.9-0.4c-0.5-0.1-0.7,0.1-0.6,0.6
		c0.1,0.2,0.3,0.3,0.8,0.4c0.4,0.1,0.7,0.2,0.7,0.5l-1-0.2c-0.3-0.1-0.5,0.1-0.5,0.6c0.1,0.2,0.4,0.3,0.9,0.4
		c0.5,0.1,0.8,0.2,0.9,0.5l-1.2-0.2c-0.4-0.2-0.7,0-0.7,0.5c0,0.4,0.4,0.6,1.1,0.8c0.7,0.1,1.1,0.4,1.1,0.8l-1-0.4l-1.2-0.2v0.9
		c0,0.4,0.1,0.6,0.3,0.6c0.3-0.4,0.8-0.5,1.4-0.2c0.6,0.2,0.9,0.5,1,0.8c-0.5-0.3-1-0.4-1.3-0.5l-1.4,0.2v6.3c0.9-0.4,2.3-0.4,4.1,0
		l3.5,0.4l-3.6-10.6l-3.3-10.1l2.6,1.4l2.8,1.2l-0.2-0.6c-0.1-0.1,0-0.2,0.2-0.3l1.1,1.2c0.4,0.4,1,0.6,1.6,0.6l-0.2-0.8
		c-0.2-0.2-0.1-0.4,0.2-0.5l0.6,1.2c0.3,0.4,0.7,0.6,1.2,0.5c0.2,0,0.3-0.1,0.3-0.4c0-0.3,0.1-0.5,0.2-0.5c0,0.6,0.3,1.1,1,1.4
		c0.7,0.3,1.2,0.1,1.4-0.5c-0.1,0.5,0.2,0.8,0.8,1l1.3,0.2c0.1-0.1,0-0.4-0.2-0.7c-0.2-0.3-0.1-0.4,0.2-0.5l0.7,1.2
		c0.4,0.3,0.8,0.4,1.4,0.3c0.1-0.2,0-0.5-0.3-0.9c-0.2-0.3-0.2-0.5,0-0.6c0.1,0.6,0.5,1.1,1,1.5l1.7,0l-0.5-0.5
		c-0.2-0.3-0.1-0.4,0.2-0.4c0.1,0.4,0.4,0.8,0.9,1.1c0.6,0.3,1.1,0.2,1.4-0.2c-0.4,0.1-0.7,0-0.9-0.5c-0.3-0.4-0.2-0.7,0.1-0.7
		c0.3,0.6,0.7,1,1.3,1.3l2-0.1l-0.9-0.7c-0.3-0.4-0.3-0.7-0.1-0.8c0.3,0.8,0.9,1.3,1.7,1.6c0.9,0.3,1.8,0.2,2.5-0.4
		c-0.7-0.1-1.3-0.4-1.8-0.8c-0.7-0.5-0.9-0.9-0.6-1.4c0.2,0.9,1.1,1.5,2.4,2c1.4,0.4,2.4,0.1,2.9-0.8l-2-0.5
		c-0.7-0.3-1.1-0.7-1.2-1.3c1,0.7,2,1.3,2.9,1.6c1.4,0.4,2.4,0.2,3-0.6l-2.2-0.3c-0.7-0.2-1.2-0.6-1.4-1.2c0.9,0.6,1.9,1,3.1,1.2
		c1.4,0.2,2.3-0.1,2.6-1l-2,0c-0.8,0.1-1.3-0.1-1.3-0.6l2.9,0.4c1.3,0,2.1-0.4,2.2-1l-2.8,0c-1-0.1-1.4-0.4-1.2-0.9
		c0.5,0.4,1.3,0.6,2.6,0.7c1.4,0.1,2.2-0.2,2.6-0.7l-1.4-0.2c-0.5-0.1-0.9-0.3-1-0.6l2.5,0.5c0.9,0,1.5-0.3,1.7-1.1h-1.7
		c-0.6-0.1-0.9-0.3-1.1-0.6l2.3,0.3c0.9,0,1.5-0.3,1.6-0.9h-1.1c-0.5,0.1-0.7,0-0.7-0.3h1.6c0.7,0,1-0.2,1.1-0.6l-1,0
		c-0.3-0.1-0.5-0.2-0.5-0.5h1.5c0.6,0,0.9-0.2,0.9-0.6h-1c-0.4,0-0.6-0.1-0.5-0.3h1.8c2-2.4,3.7-5.3,5.2-8.6
		C159.6,150.8,160.5,147.4,161,144 M130.6,95.9l-0.6,0.1c-0.2,0-0.3,0.1-0.3,0.2c0.3,0.2,0.5,0.9,0.5,2.1c0,1.1,0.2,1.8,0.7,1.9
		c0.3-0.5,0.4-1.2,0.3-2.2C131.2,96.9,131,96.3,130.6,95.9 M131.5,98c0.2,0.1,0.3,0.4,0.1,0.8c-0.2,0.5-0.2,1-0.1,1.3
		c0.4,0.1,0.6,0,0.8-0.3l0.1-1l-0.3-0.9C131.9,97.7,131.7,97.7,131.5,98 M127,94.7l-1.6,0.4l-1.5-0.4c0.3,0.3,0.6,1.1,1,2.5
		c0.3,1.1,0.8,1.8,1.4,2.1c0.3-0.6,0.4-1.2,0.1-2.1l-0.7-1.9c0.5,0.2,0.8,0.8,1,1.7l0.5,2.2c0.8-0.3,1.1-1,0.8-2.2
		C127.9,96,127.5,95.3,127,94.7 M128.4,97.6c0.1,1.2,0.6,1.8,1.3,1.9l-0.1-3.1c-0.2-1-0.8-1.5-1.7-1.4
		C128.1,95.3,128.3,96.1,128.4,97.6 M123.2,97.6c0.4,1.1,0.8,1.9,1.3,2.2c0.6-0.7,0.7-1.7,0.2-3c-0.6-1.4-1.4-2-2.6-1.8L123.2,97.6
		 M121.7,95.8c-0.5-0.4-1.1-0.4-1.6-0.2l0.9,1.5c0.5,0.6,0.8,1.1,0.9,1.6l0.2,1.4c0.1,0.6,0.3,0.9,0.7,1c0.4-0.5,0.6-1.1,0.6-1.8
		c0-0.7-0.2-1.4-0.5-2C122.6,96.6,122.2,96.1,121.7,95.8 M121.6,101.9c0.4-1.3,0.3-2.6-0.3-4c-0.7-1.4-1.7-1.9-2.9-1.4l1,1.6
		l1.1,1.5l0.3,1.4C120.8,101.5,121.1,101.8,121.6,101.9 M116.5,97.7c1.2,0.3,2,1.3,2.4,2.8c0.3,1,0.5,2.4,0.6,4.1
		c0.9-1,1.3-2.1,1.1-3.4c-0.2-1.1-0.8-2.1-1.7-3c-0.9-0.8-1.7-1.2-2.6-1.2c-1,0.1-1.6,0.7-1.8,1.9l0.7-0.9
		C115.5,97.7,115.9,97.6,116.5,97.7 M114.7,98.6l-0.5,2.1c-0.2,0.8-0.1,1.6,0.2,2.1l2.2-0.1l2.2-0.4c0-1.4-0.4-2.6-1.2-3.4
		C116.8,97.9,115.8,97.9,114.7,98.6 M117.7,103.4h1.2v-0.6h-1.2V103.4 M118.3,104L117,104c-0.5,0-0.7,0.2-0.6,0.6h1.2
		C118.1,104.6,118.3,104.4,118.3,104 M118.6,104.9c-0.5,0-0.8,0.2-0.9,0.6C118.1,105.5,118.4,105.3,118.6,104.9 M116.8,103.1
		l-1.4-0.1c-0.6,0-0.9,0.1-1,0.4c0.3,0.2,0.7,0.4,1.3,0.4C116.4,103.8,116.8,103.6,116.8,103.1 M115.9,104.3h-2.1v0.6h2.1V104.3
		 M115.2,105.2c-0.5,0-0.8,0.2-0.8,0.6l1.5,0.1c0.6,0,0.9-0.2,0.9-0.6H115.2 M115.9,106.4h-1.4c-0.6-0.1-0.9,0-1,0.3l1.3,0.3
		C115.5,107.1,115.9,106.9,115.9,106.4 M115.3,108.2c0.2,0.2,0.5,0.3,0.9,0.3h1.2c0.2-0.4-0.1-0.7-0.9-0.7
		C115.7,107.8,115.3,108,115.3,108.2 M119.2,107c-0.2,0.4-0.1,0.6,0.3,0.6c0.5,0.1,0.7,0,0.6-0.4l-0.4-0.2L119.2,107 M118.9,107
		c-0.3-0.2-0.7-0.4-1.3-0.4c-0.7,0-1.1,0.2-1.1,0.6l1.4,0.1C118.5,107.4,118.8,107.3,118.9,107 M118.6,106.1
		c-0.2-0.2-0.5-0.3-0.9-0.3c-0.4,0-0.6,0.2-0.6,0.6l1,0.1L118.6,106.1 M121.4,107.3c-0.7,0-1,0.2-1,0.6l1.4,0.1c0.6,0,0.9-0.1,1-0.4
		C122.5,107.4,122.1,107.3,121.4,107.3 M137.2,117.9c0.1,0.6-0.1,1.6-0.4,3.1c-0.3,1.2-0.4,2.1-0.1,2.6c0.5-0.5,0.8-1.3,0.9-2.6
		C137.7,119.7,137.6,118.7,137.2,117.9 M108.4,94.7c-0.5-0.6-1.2-0.9-2.2-0.9c0.6,1,0.9,2.2,0.8,3.6c-0.1,1.4-0.4,2.5-1.2,3.4
		c1-0.1,1.5-1,1.7-2.6c0.2-1.2,0.1-2.3-0.2-3.2c0.8,0.7,1,1.7,0.7,3.1l-0.9,2.7c0.7-0.2,1.2-0.7,1.6-1.4c0.4-0.7,0.5-1.5,0.4-2.4
		C109.1,96,108.9,95.3,108.4,94.7 M105.6,97.3c0,1.2,0.2,1.9,0.7,2.2c0.8-2.5,0.7-4.2-0.3-4.9C105.7,95.3,105.6,96.2,105.6,97.3
		 M104.4,100.4c-0.8-0.5-1.2-1.6-1.2-3.2c0-1.5,0.3-2.6,0.9-3.4c-0.9-0.1-1.7,0.2-2.2,0.9c-0.5,0.6-0.7,1.4-0.7,2.4
		c0,1,0.2,1.8,0.6,2.4c0.4,0.7,1,1,1.8,0.8c-0.8-0.3-1.3-1.2-1.5-2.6c-0.2-1.4,0.1-2.4,0.9-2.9c-0.6,1-0.7,2.1-0.3,3.6
		C103,99.9,103.6,100.5,104.4,100.4 M104.4,101.3c0,0.3,0.1,0.6,0.2,0.8l0.7,0.5v-1.2H104.4 M105,100.7l0.3-3.5l-0.3-3.4
		c-1.1,0.5-1.6,1.6-1.5,3.4C103.6,98.9,104.1,100.1,105,100.7 M105.3,102.5c0.1,0.6,0.3,1,0.6,1.2
		C105.9,103.1,105.7,102.7,105.3,102.5 M103.1,105.6L103.1,105.6l0.2,0.1l1.1,0.8l-0.4-1.1l-0.5-1l-1.5,0.2l-1.5,0.1l-0.7-1.2
		c-0.3-0.5-0.3-0.9,0-1.2c0.1,0.7,0.4,1.4,0.9,2.1c1-0.4,2-0.4,2.8,0l1.7,1.2l-0.7-1.7c-0.3-0.6-0.8-0.9-1.4-1l-0.8,0.4l-1,0.2
		c-0.5,0-0.8-0.4-0.9-1.1c-0.2-0.8-0.5-1.2-0.8-1.2c-0.6,0.6-0.7,1.4-0.5,2.4c0.2,0.9,0.5,1.6,1.1,2.1l2.5-0.1L103.1,105.6
		 M106.2,105.8c2-1.1,3.5-2.6,4.5-4.5c-0.1,1.1-0.6,2.1-1.6,2.9l-2.6,1.9c1.5-0.2,2.7-0.8,3.6-1.9c1.1-1.2,1.2-2.5,0.3-3.8
		c-0.1,0.7-0.6,1.4-1.4,2.2l-0.1,0.1l-0.2,0.2l-0.4,0.4C107,104.5,106.3,105.3,106.2,105.8 M112.4,105.5c-0.6,0-0.9,0.1-1,0.3
		l1.3,0.3c0.6,0.1,1-0.1,1.1-0.6L112.4,105.5 M110.8,106.4c0.2-0.1,0.3-0.3,0.2-0.6h-0.7l-0.1,0.3l-0.2,0.3L110.8,106.4 M110.1,107
		l-0.2,0.3c-0.2,0.1-0.3,0.1-0.3,0.2l0.8,0.2c0.2,0.2,0.4,0.1,0.4-0.2l-0.3-0.2L110.1,107 M112.9,107.3c0.1-0.4-0.1-0.6-0.6-0.6
		l-1.2,0.1c-0.1,0.4,0.1,0.6,0.6,0.6L112.9,107.3 M111.8,108.5c-0.6-0.1-1,0-1.1,0.3c0.3,0.3,0.7,0.4,1.4,0.4c0.7,0,1-0.2,1-0.6
		H111.8 M113.7,107.8l0.5,0.2c0.2,0,0.4-0.1,0.5-0.4h-0.9C113.6,107.7,113.6,107.7,113.7,107.8 M99.9,167.5
		c-1.1,2.5-2.3,5.9-3.8,10.4l-3.5,10.6l3.7-0.8l3.8,0.1v-6.3l-1.6-0.1l-1.1,0.1c0.4-0.3,0.8-0.4,1.2-0.5c0.6-0.1,1.1-0.1,1.4,0.2
		v-1.5c-0.3-0.1-0.8,0-1.2,0.3c-0.4,0.3-0.7,0.3-0.8,0c0.1-0.1,0.5-0.3,1.4-0.5c0.6-0.2,0.9-0.6,0.7-1.2l-1.1,0.2
		c-0.4,0.2-0.6,0.1-0.8-0.2l1.2-0.2c0.4-0.1,0.7-0.3,0.7-0.7c0-0.3-0.3-0.4-0.8-0.1c-0.4,0.2-0.7,0.2-0.8-0.2l1.2-0.4l0.7-0.9
		l-1.2,0.1l-0.6-0.1c0-0.2,0.4-0.4,1-0.5c0.6-0.1,0.8-0.3,0.8-0.8c0-0.5-0.3-0.6-0.9-0.3l-0.9,0c0.1-0.1,0.5-0.3,1.1-0.4
		c0.5-0.1,0.8-0.4,0.8-0.8c-0.1-0.4-0.3-0.4-0.8-0.1c-0.4,0.2-0.7,0.2-0.7-0.1c0-0.1,0.3-0.2,0.9-0.2c0.5,0,0.7-0.2,0.6-0.6
		c0-0.2-0.2-0.3-0.5-0.3l-0.4-0.3c0.8,0.1,1.1,0,0.8-0.5l-0.6-0.7l0.2-0.1l0.4-0.4l0.1-1.4C100.5,167.7,100.3,167.5,99.9,167.5
		 M100.8,167.5l-0.1,10.8c-0.2,4.8-0.2,8.3-0.2,10.6c-0.4,0.7-1.1,1.4-2.2,2.1c-1.2,0.8-2,1.4-2.4,1.9c0.4,0.8,1,1.4,1.9,1.9
		c0.7,0.4,1.7,0.6,2.9,0.8l1.1-13.2l0.8-13.6l-0.8-0.5l-0.8-0.4L100.8,167.5 M113,176.2l2.6,3.4l6,7.2l1.5,1.9
		c0.6,0.7,1.2,1.1,1.8,1.1c0.4-0.7,0.3-1.6-0.3-2.6l-1.8-2.2l-5.8-6.8l-5.7-6.5C111.6,173.4,112.2,174.9,113,176.2 M104.6,170.2
		l-0.8-0.3c-0.3-0.1-0.6-0.1-0.9,0c-0.3,7.9-0.9,16.4-1.8,25.6l3.8,0.3l3.7-0.6l-1.2-13.1c-0.5-5.3-1-9.6-1.5-12.8
		C105.7,170.2,105.2,170.5,104.6,170.2 M106.8,173.5l1.2,10.9l0.9,10.8l3-0.6c0.9-0.4,1.4-1.1,1.6-2l-2.8-1.5
		c-1.1-0.7-1.8-1.5-2-2.5c-0.2-0.9-0.3-2.5-0.3-4.8l0-5.8l0.1-5.6c0-2.2-0.1-3.8-0.3-4.9c-0.9,0.5-1.4,1.3-1.5,2.6
		C106.6,170.4,106.6,171.5,106.8,173.5 M112.6,188.6l-1.7,0l-1.7-0.2c0.1,1,0.6,1.8,1.5,2.4l2.8,1.2l-0.3-1.9
		C113.1,189.3,112.9,188.8,112.6,188.6 M96.6,188.9l-0.1-0.4l-0.2-0.2l-0.2,1.9l-0.4,1.8l2.9-1.3c1-0.7,1.4-1.5,1.1-2.4
		c0,0.5-0.1,0.7-0.2,0.5l-0.4-0.5l-1.3,0.2L96.6,188.9 M115.1,188.6l-1.3-0.4l2.7,5.8l2.7,5.7h2.4l-2.5-5.4l-2.6-5.4L115.1,188.6"/>
	<path class="st5" d="M108.1,24.3c0.3,0.5,0.5,1,0.5,1.5l-1.7-0.2c-0.5-0.3-0.9-0.6-1.2-1s-0.3-0.8,0-1.1c0.3-0.3,0.8-0.5,1.7-0.4
		L108.1,24.3 M105.9,23.3c-0.1,0.7,0.1,1.2,0.5,1.5l1.7,0.3l-0.6-1.4C107.2,23.4,106.6,23.3,105.9,23.3"/>
	<path class="st5" d="M146.5,34.3l1.9,1.4l5.9,3.9c2.3,1.6,4.1,3.1,5.6,4.5c-5.5-4-10.6-7.5-15.4-10.6
		C145.1,33.6,145.8,33.9,146.5,34.3"/>
	<path class="st5" d="M161.5,42.8c2.6,2.2,4.7,4.4,6.1,6.4c-2.2-2.4-4.8-4.9-8-7.5l-8.8-6.7c0.6,0.1,1.3,0.4,2.1,1l1.8,1.4
		L161.5,42.8"/>
	<path class="st5" d="M112.6,78.8c-0.4,1.3-0.9,2.3-1.5,2.9c0.8-1.7,1.5-3.8,2.2-6.5l1.7-7c0.1,0.9,0,2-0.4,3.3l-1.1,3.6L112.6,78.8
		"/>
	<path class="st5" d="M114.1,75.1l1.4-5.1c0,1.1-0.3,2.7-0.9,4.8l-1.5,5.1C113.2,78.8,113.5,77.2,114.1,75.1"/>
	<path class="st5" d="M116.5,71.5c0,0.7-0.2,1.8-0.7,3.2l-1.2,3.4c-0.1-0.7,0.2-1.8,0.7-3.2L116.5,71.5"/>
	<path class="st5" d="M85.5,94.1c-1.1,0.2-1.9,0.7-2.5,1.7c-0.6,1-0.7,2.1-0.2,3.2L80.5,99c-1.1,0.2-2.1,0.5-3.2,1.1
		c-1-0.7-1.2-1.6-0.6-2.7l1.8-2.4l1.8-0.6c-0.5,0.9-0.8,1.6-0.9,2.1c-0.2,0.9-0.2,1.7,0,2.4c0.7-0.1,1.1-0.7,1.3-1.8
		c0.2-1.4,0.4-2.3,0.5-2.5c-0.1,0-0.2-0.1-0.4-0.2l-0.3-0.1l1.6-0.3C83.1,94,84.2,94,85.5,94.1 M89.1,95.3c-0.5-0.3-1.1-0.2-1.7,0.3
		c-0.6,0.4-1,1-1.4,1.8c-0.3,0.8-0.5,1.5-0.3,2.1c0.2,0.7,0.6,1.1,1.3,1.2c-0.1-1.1,0.1-2.2,0.7-3.2L89.1,95.3 M87.6,98.1
		c-0.3,0.7-0.4,1.3-0.3,1.9c0.1,0.7,0.4,1.2,0.9,1.6c0-1.1,0.3-2.1,1-3l1.8-2.1l-0.1-0.3l-0.2-0.3c-0.6,0-1.2,0.2-1.8,0.6
		C88.3,96.9,87.9,97.4,87.6,98.1 M84,98.2c0,0.6,0.3,1.1,0.8,1.4l1-2.5l1.1-2.4c-0.4-0.2-0.8-0.1-1.3,0.2c-0.5,0.3-0.9,0.8-1.2,1.4
		C84.2,97.1,84,97.7,84,98.2 M81.1,96c-0.4,1.4-0.2,2.2,0.8,2.6c0-0.5,0.2-1.4,0.8-2.4c0.4-1,0.6-1.7,0.4-2.1
		c-0.4,0-0.8,0.2-1.2,0.6C81.5,95,81.3,95.5,81.1,96 M78,96.7c-0.1,0.6-0.1,1.5-0.1,2.9c0.6-0.1,1-0.7,1-1.9
		c0.1-1.3,0.2-2.1,0.5-2.4C78.6,95.2,78.1,95.7,78,96.7 M82.8,98.9l0.9-1.1l0.6-1.5c0.5-1.3,1.2-2.1,2.1-2.2c0.7-0.1,1,0.2,0.9,0.9
		c0.8-0.3,1.7-0.1,2.8,0.6c1.2,0.8,2.2,1.1,3.2,0.9c-0.2-0.3-0.3-0.6-0.3-0.9l0.6,0.9l0.7-0.7c0.2,0,0.5,0.1,0.8,0.4l0.3-0.3v-0.6
		l0.3,0.4c0.1,0.2,0.2,0.1,0.2-0.1c1,1.1,1.2,2.6,0.6,4.5l-1.1,2.6c-0.5,1.1-0.8,2.1-0.9,2.9c-0.3-0.1-0.5,0-0.6,0.3l-3.7-0.9
		c-1.3-0.5-2-1.4-2-2.6l-2.2-1.4c-1.1-0.7-1.9-1.3-2.3-1.9H82.8 M89.7,100.7l0.4,0.1c0.1,0.1,0.2,0,0.2-0.1
		c-0.4-0.8-0.1-1.6,0.8-2.3l2.2-1.6c-1-0.2-1.9,0.1-2.8,0.7c-0.8,0.6-1.3,1.3-1.7,2.3c-0.4,1-0.4,1.9-0.2,2.8c0.2,1,0.8,1.7,1.7,2.1
		l-0.5-1.8C89.7,102.1,89.6,101.4,89.7,100.7 M77.6,99.5c-0.1-0.2-0.2-0.6-0.2-1.3c0-0.6-0.1-1-0.3-1.2
		C76.5,98.8,76.7,99.6,77.6,99.5 M96.3,99.2l-0.6,0.8c-0.3,0.4-0.3,0.6-0.1,0.7l0.8-0.8C96.7,99.6,96.7,99.4,96.3,99.2 M96.3,98.3
		l-0.6,0.6c-0.4,0.2-0.4,0.4,0,0.6l0.6-0.7C96.6,98.6,96.6,98.4,96.3,98.3 M93.8,97.9l0.3,0.7c0.7,0.1,1.3,0,1.9-0.4
		c0.5-0.4,0.6-0.8,0.2-1.2l-1.2,0.3c-0.5,0.1-1,0-1.5-0.3L93.8,97.9 M93,100.1c0,0.3,0.2,0.4,0.6,0.3c0.1-0.7-0.1-1.1-0.6-1.2V100.1
		 M92.1,99.9c0,0.3,0.2,0.5,0.5,0.5v-0.8c0-0.3-0.1-0.4-0.3-0.4C92.2,99.4,92.1,99.7,92.1,99.9 M90.9,101c0,0.2,0.3,0.3,0.8,0.3
		c0.5,0,0.7,0.2,0.7,0.6c-0.5-0.1-0.7,0.1-0.8,0.4s0.1,0.5,0.5,0.5l0.4-0.9L93,101c0.2,0,0.3,0.2,0.2,0.4l-0.2,0.5
		c0.4,0.1,0.6,0,0.7-0.3l-0.1-0.9l-0.9,0.1l-0.6,0.5l0-0.8l-0.3,0.2c-0.4,0.3-0.7,0.2-0.8-0.3V101 M90,101.9h0.6v-0.6H90V101.9
		 M95.1,100.4l-0.7-0.9l-0.8-0.6c0,0.4,0.2,0.9,0.6,1.3C94.5,100.7,94.8,100.8,95.1,100.4 M93.5,102.6l-0.5-0.1l0.1,0.5l0.2,0.4
		l0-0.2l0.2-0.1L93.5,102.6 M93.6,104.9h-0.9c-0.1,0-0.2,0.1,0,0.2l0.4,0.2L93.6,104.9 M92.5,103.2l-0.5,0.2l0.5,0.5l0.1-0.3
		L92.5,103.2 M90.6,104.3l0.6,0.3l0.6,0.3c0.2-0.4,0-0.7-0.4-0.9S90.7,104,90.6,104.3"/>
	<path class="st5" d="M94.2,106.1c0.9-0.6,2-0.6,3.4,0c1.5,0.8,2.6,1.3,3.2,1.5l-2.8,1.1c-1.1,0.2-2.1,0-3-0.8l-0.1-1.2
		C95,106.5,94.7,106.3,94.2,106.1 M98.2,108c0.7,0.1,1.2,0,1.5-0.4c-0.5-0.5-1.3-0.7-2.4-0.6C97.1,107.5,97.5,107.9,98.2,108
		 M96.9,107.5c-0.4-0.4-0.9-0.6-1.5-0.4c-0.2,0.7,0.1,1.2,0.9,1.4c0.8,0.3,1.4,0.2,1.8-0.2C97.8,108.2,97.4,108,96.9,107.5
		 M97.8,106.4l-1.3-0.3c-0.6-0.1-1,0-1.2,0.3l1.2,0.3C97.2,106.9,97.6,106.8,97.8,106.4"/>
	<path class="st5" d="M73.4,112.2H136c0.1,4-0.4,8-1.4,11.9c-0.7,2.7-1.8,6-3.4,10h-53c-1.6-4-2.8-7.3-3.5-10
		C73.8,120.3,73.3,116.3,73.4,112.2 M75.1,124.2c0.7,3,1.9,6.3,3.4,9.7h25.3v-3.3c-1.7,0.1-3-0.1-3.9-0.6s-1.4-1.2-1.5-2.2
		c-0.1-0.8,0.4-1.9,1.6-3.4c1.1-1.4,1.6-2.6,1.4-3.6l-3-0.1c-0.6-0.4-1-1-1-1.8v-0.2l0.2,0.6c0.1,0.4,0.4,0.8,0.8,1.1
		c0.4,0.3,0.8,0.4,1.3,0.4c0.6,0,1.3-0.4,1.9-1.2c0.8-1,1.6-1.6,2.2-1.8l2.5-0.1c0.8,0.2,1.4,0.9,2,1.9l-3.2,0.2l-3.1,0.4l-0.8,2.6
		l-1,2.4c2.2,0.1,4.6,0.5,7.2,1.2l6.7,1.8c-0.5-0.9-1-2.4-1.5-4.5l-1.5-4.8c-1.4-3.6-3.6-5.4-6.7-5.4c-1.4-0.1-3,0.4-4.7,1.6
		c-0.8,0.5-1.3,1-1.8,1.6l0.2-0.2c0.5-0.9,1.2-1.5,2.1-2c1.7-1,3.6-1.2,5.7-0.8c1.9,0.4,3.3,1.3,4.2,2.6c0.8,1.1,1.5,2.8,2,5.1
		c0.6,2.8,1.1,4.5,1.3,5.1l2,2.4c1,1.2,1.4,2.1,1.3,2.8c-0.2,1-1,1.4-2.2,1.2c-0.6-0.1-1.6-0.4-3-0.9l-2.8-1.7
		c-0.9-0.5-1.8-0.7-2.7-0.5c-0.4,0.2-0.6,0.8-0.6,1.7v2.3h25.3c1.5-3.4,2.6-6.6,3.4-9.8c0.9-3.7,1.4-7.6,1.4-11.6h-62
		C73.7,116.5,74.2,120.4,75.1,124.2 M105.3,119.6c1.3-0.1,2.1-0.3,2.4-0.8c-0.9-0.5-2-0.7-3.2-0.6c-1.4,0.2-2.1,0.8-2.2,1.8
		L105.3,119.6 M104.1,128.1l0,1.6l-0.1,1.8c-0.1,1.4,0.3,2.1,1,2.2c0.3-0.6,0.4-1.5,0.3-2.9l-0.1-3.2c-0.5,0-0.9-0.1-1.2-0.3V128.1
		 M106.9,128.2l-1.2-0.5v1.3c-0.1,0.5,0,0.8,0.3,0.8c0.1-0.2,0.3-0.3,0.7-0.3l0.8-0.2C107.4,128.9,107.2,128.5,106.9,128.2
		 M102.7,126.2c-1.8,0-3.2,0.5-4,1.6c0.9-0.5,2.2-0.8,3.8-0.9c1.5-0.1,2.9,0.1,4.1,0.6c1.5,1.8,2.8,3,3.9,3.7
		c1.8,1.2,3.7,1.6,5.8,1.1c0.4-0.8,0.4-1.5-0.1-2.1l-1.4-1.6c-0.9,0.1-2.1-0.1-3.5-0.6l-3.7-1.2L102.7,126.2 M103.8,127.2
		c-2-0.1-3.6,0.2-4.8,0.9c0.2,0.9,0.7,1.5,1.6,1.8l3.2,0.3V127.2 M99.3,126.3c0.9,0,1.5-0.2,1.8-0.6h-1.2
		C99.4,125.7,99.2,125.9,99.3,126.3"/>
	<path class="st5" d="M80.8,138l1.3,3.1c3.2,0.4,6.1,1.4,8.7,3l3.2-0.2l2.8,0.2c0.3-0.1,0.2-0.3-0.3-0.6c-0.6-0.3-0.7-0.5-0.3-0.6
		c0.5,0.7,1.3,1.1,2.4,1.4l3.6,0.4l5.3,0.4c1.3-0.1,2.4-0.7,3.1-1.9l-6.9-0.1l-6.2-0.4l-2,0c-0.7,0-1.2-0.3-1.4-0.9
		c1-0.6,2.2-1.6,3.5-2.9l3.2-3.1c-0.1,0.8,0.5,1.1,1.8,1l1.3-0.3l0.5-0.6c0,0.6,0.7,0.9,2.1,0.6l2.7-0.1l0.1,3.5
		c0,1.4-0.1,2.5-0.4,3.1h2.8l-0.9,0.8l-1,0.7l3.5-0.3l3.5,0.3l-0.1,0.1l0.7-0.3l2.4-0.8l2.4-0.8l2.5-1.1c0.9-0.4,1.6-0.6,2.2-0.7
		c-0.8,0.6-2,1.2-3.5,1.8l-6,1.8l-2,1.2l-1.9,1l-6.7,0.7l-7.2-0.4c-2.2-0.2-5.1-1.1-8.9-2.7c-3.6-1.5-6.2-2.3-7.9-2.4
		c0.3,0.9,1,2.2,2,3.9l2.5,4.2c1.6,0.2,3.6-0.1,6-0.9c3.1-0.9,5.1-1.4,6-1.6l6.7,0.2l6.9,0.4l5.4-0.6l5.4,0.3l2.6-4.3
		c1-1.8,1.7-3.1,1.9-4.1c-0.2,0.5-0.6,0.9-1.1,1.3l1.6-2.5c0.7-1.1,1.1-2.1,1.4-3l-25.6-0.1c-10.5,0-18.9,0.1-25.2,0.3
		C79.7,136,80.3,136.9,80.8,138 M87.9,150.7l3.5-0.4l3.7-0.5l0.8-0.5c0.3-0.3,0.6-0.4,0.8-0.4l5.7-0.4l5.4-0.5
		c-3-0.5-6.2-0.4-9.7,0.2l-4.1,0.9l-4,0.9l-1.2-0.1C88.4,149.9,88.1,150.2,87.9,150.7 M78.5,135c6.5-0.3,15.2-0.4,26-0.4l26.4,0.1
		c-2.7,6.4-6.3,12.4-10.7,18.1c-3.9,5-8.7,9.8-14.3,14.4l-1-0.2c-0.5-0.1-0.5,0-0.2,0.2c0.3-0.1,0.5-0.1,0.6,0l-0.1,0.4l-0.3,0.2
		c-0.1,0-0.2,0-0.2-0.2c-5.6-3.9-10.6-8.7-15.1-14.3C85.5,148,81.8,141.9,78.5,135 M104.4,136.8l0,3.2c-0.1,1.4,0.1,2.2,0.7,2.5
		c0.8-0.3,1.4-1,1.8-2.2l1.2-2.9c0.3-0.1,0.4-0.3,0.3-0.6H104.4 M98,139.2c-0.4,1.1-0.2,2,0.4,2.7c0-0.4,0.3-1.3,0.9-2.5
		c0.5-1,0.6-1.8,0.3-2.3C98.9,137.5,98.4,138.2,98,139.2 M100.5,139.5c0.1-1.1,0-1.9-0.3-2.4l-0.7,2.5l-0.8,2.3l0.9,0.1l0.9,0.2
		V139.5 M100.8,142.5l1.6-0.2l1.8-0.1l0-2.6c0-1.1-0.1-1.8-0.3-2.2l-0.9,2.6l-1.2,2.2c0.2-0.8,0.5-1.7,0.9-2.8l1.2-2.6h-3l0.2,3
		C101.2,141,101.1,141.9,100.8,142.5 M97.4,140.4c0.1-0.6,0.1-1-0.2-1.2l-1.1,1.2l-1.1,1.2l1.4,0.4c0.7,0.1,1.2,0,1.3-0.4
		C97.4,141.4,97.3,141,97.4,140.4 M98.2,145.1l1.5-0.1l-1.6-0.4c-0.6-0.3-1.1-0.2-1.4,0.1L98.2,145.1 M100.8,146.5l5.9,0.3l6.2-0.3
		c0.6-0.1,1.3-0.5,2.2-1.1l1.5-0.9l-1.8,0.4l-1.9,0.1c-0.2,0.1-0.5,0.2-0.9,0.5l-0.9,0.4l-2.3-0.1l-2.6-0.2l-0.8,0.3l-0.8,0.3
		c-1.8,0-4.1-0.4-6.9-1.1c-2.6-0.6-4.6-0.9-6-0.8l4.3,1.2L100.8,146.5 M92.8,150.4l-4.3,0.6c1,1.6,2.4,3.4,4.2,5.3l4.8,4.6l1.5,1.5
		l1.2,0.8c-0.2-0.1-0.3-0.4-0.3-0.8l2.2,0.1c0.7,0.2,1.3,0.4,1.7,0.8h-1.4c-0.6,0-0.8,0.1-0.3,0.3l1.7-0.1c0.7,0,1.1,0.1,1.3,0.4
		l-1,0c-0.4,0-0.6,0.1-0.5,0.3l1.4,0.1l1.2,0.5l-1.1,0.1c-0.6,0-0.7,0.1-0.4,0.2l1.4,0.3l1.3,0.3l0.7-0.7l1.1-1.1
		c2.2-2,4.6-4.4,7.2-7.2c2.7-2.9,4.6-5.3,5.8-7.2l-6-0.2l-6.3,0.2c-0.7-0.5-1.5-0.7-2.4-0.8l-2.7,0.4l-7.8,0.2L92.8,150.4
		 M108.7,139.6c0-1.1-0.1-1.8-0.3-2.2c0,0.7-0.3,1.5-0.9,2.4c-0.5,0.9-0.8,1.7-0.9,2.4h2.1L108.7,139.6 M108.6,145.5h2.8
		c-0.2-0.5-0.7-0.8-1.5-0.9C109.1,144.7,108.7,145,108.6,145.5 M104.4,145.5l1,0c0.4,0,0.6-0.1,0.5-0.3H105
		C104.6,145.2,104.4,145.3,104.4,145.5 M114.1,148.6l2.5,0.2l2.6,0.5c2,0.2,3.3-0.2,3.9-1.3c-2-0.4-4.6-0.4-7.6-0.2l-7.4,0.8
		c0.7,0.4,1.7,0.5,2.8,0.4L114.1,148.6 M103.5,166.3l-0.4-0.7l-0.3-0.1l0.1,0.4L103.5,166.3 M106.5,166c-0.4-0.1-0.7-0.1-0.9,0
		c-0.1,0-0.2,0.1-0.1,0.2c0.1,0.1,0.2,0.2,0.4,0.2L106.5,166"/>
	<path class="st5" d="M90.6,151.3h6.7c0.3-0.1,0.4,0,0.5,0.2l0.1,0.7l2.4-1.2l-1.8-0.2l-2.1,0.2c0.5-0.7,1.6-0.9,3.3-0.7l3.7,0.7
		l2.4,0.1l2.7,0.2l0.2,2l0.3,1.9h7.2c0.1,0.5-0.1,0.7-0.7,0.6l-1.4,0v1.2c0.1,0.4,0.4,0.5,0.9,0.3c-0.9,1.6-2.4,2.7-4.7,3.3l-6-0.2
		l-0.2,0c0.3,0.4,0.9,0.8,1.6,1l2.5,0.1c0.2,0.2-0.1,0.3-0.9,0.3c-1,0-1.5,0.2-1.5,0.6c-1.7,0-3.3-0.3-5-0.8l-4.2-1.7
		c0.5-0.5,0.4-1-0.3-1.4l-0.9-0.6l-0.9-0.6l1.6-2.2l1.5-2.3h-2.9h-3.5c-0.1-0.3,0.1-0.4,0.6-0.3c0.5,0.1,0.7,0,0.6-0.3
		c0-0.3-0.4-0.4-1.1-0.3C90.7,152,90.5,151.8,90.6,151.3 M98.1,152.8c0.5,0.3,0.9,0.1,1.2-0.4l0.3-0.4c0.1-0.1,0.2,0,0.3,0.1
		c-0.4,0.6-0.7,1.4-0.9,2.4l-0.6,2.7h2.1v-3.4v-2.6l-1.9,1c-0.9,0.5-1.3,1.2-1.4,2h1.5c0.1-0.3-0.1-0.5-0.4-0.7
		C98,153.5,98,153.2,98.1,152.8 M101.4,152.2v3h0.9l-0.2-1.1c0-0.3,0.1-0.5,0.5-0.7l-0.8-0.1c0.5-0.3,0.7-0.4,0.8-0.4l-0.6-0.1
		l-0.3-0.2L101.4,152.2 M104.1,151.3c-1.2,1.6-1.8,3.6-1.8,6h2.1l0.1-3.2C104.5,152.8,104.4,151.8,104.1,151.3 M103.5,151.3
		l-1.1-0.1l-1-0.2c-0.2,0.5,0.1,0.7,0.9,0.7C103.1,151.7,103.5,151.6,103.5,151.3 M104.7,152.5v2.7h1.5l-0.1-1.1
		c-0.1-0.3,0.1-0.5,0.4-0.7c-0.5,0.2-0.9,0.1-1.1-0.2L104.7,152.5 M110,156.1c-0.2,0-0.2,0.1-0.2,0.2l0.5,0.1l0.8-0.4H110
		 M107.8,154.7c0-1.2-0.1-2-0.4-2.5l-0.9,2.6c-0.4,1.2-0.3,2,0.3,2.5h0.6C107.7,156.8,107.8,155.9,107.8,154.7 M104.5,160.4l3.1-0.1
		c2.4-0.2,4-1,4.9-2.4c-1.8,0.3-4.6,0.3-8.3,0.1c-3.7-0.2-6.4-0.1-8.2,0.1c0.7,0.7,1.7,1.2,2.9,1.5l3.8,0.6l-0.8,0
		c-0.3,0-0.4,0.1-0.5,0.3l2.8-0.2l0-0.1l0.2,0.1H104.5 M96.3,155.2l-0.5,0.9c-0.3,0.3-0.4,0.6-0.4,0.9h1.2v-1
		C96.7,155.5,96.6,155.2,96.3,155.2 M97.5,157.6c0.4,0,0.6-0.1,0.6-0.4h-0.6c-0.2,0-0.3-0.1-0.3-0.3l0.2-0.1l-0.2-0.2l-0.3,0.5
		l-0.3,0.4L97.5,157.6"/>
	<path class="st5" d="M97.2,183.5c0.4-0.6,0.9-0.9,1.7-0.9l0.7,0.1l0.1,0.2l-1.1,0.2L97.2,183.5"/>
	<path class="st5" d="M112,183.2l-0.9,0l-1.2-0.3c-0.8-0.1-0.9-0.2-0.3-0.3l0.9,0.1L112,183.2"/>
	<path class="st5" d="M97.2,185c0-0.2,0.2-0.4,0.4-0.5l0.8-0.4l1.2,0.3l-0.3,0.1C98.2,184.6,97.5,184.8,97.2,185"/>
	<path class="st5" d="M112,184.7l-1.1,0l-1.1,0c-0.3-0.4-0.1-0.6,0.7-0.5C111.3,184.2,111.8,184.4,112,184.7"/>
	<path class="st5" d="M81.1,74.6l-1,0.6c-0.1,0.4,0,0.6,0.3,0.8l0.6,0.4c0.1,0.4,0,0.7-0.3,0.9l-1.2,0.1V76
		c-0.1-0.4-0.3-0.6-0.6-0.6c-0.4,0.2-0.5,0.5-0.2,0.9l0.5,0.9c-0.9-0.1-1.8-0.1-2.7,0l-2.8,0.3l0.3-2c0.1-1-0.1-1.6-0.3-1.9
		l-0.3,1.2c-0.1,0.5,0,1,0.3,1.4c-0.1,0.7-0.5,1.2-1.2,1.4l-2.2,0.4c0.4-0.4,0.6-1.1,0.6-2.1c0-0.9-0.1-1.7-0.3-2.4L77,73v1.5
		c-0.3,0-0.6-0.2-0.8-0.6c-0.2-0.4-0.5-0.5-1-0.4l-0.3,0.4v0.8c0.4,0.1,0.6,0,0.6-0.4c0-0.4,0.2-0.6,0.6-0.4v1.4
		c0,0.5-0.1,0.9-0.3,1c-0.1,0-0.2-0.2-0.2-0.5l-0.3-0.4l-0.3,0.4v0.8c0.6,0.2,1.1,0.1,1.3-0.3c0.3-0.5,0.5-0.8,0.8-0.9v0.8
		c0,0.3,0.1,0.4,0.3,0.4c0.3-0.6,0.5-1.3,0.5-2c0-0.8-0.1-1.4-0.5-1.9l2,0.3c0.8,0.1,1.2,0.4,1.3,0.9l0.3-0.4V73l1.6,0.2l1.5,0.3
		l-0.1,0.9c0,0.4,0.1,0.6,0.4,0.6c-0.3,0.4-0.5,0.4-0.8-0.1l-0.5-1.1c-0.3,0.4-0.4,1-0.3,1.9c0.1,0.9,0.3,1.5,0.7,1.7l0.9-1.4
		l0.6-1.9c0.7,0.2,1.1,1,1.3,2.3c0.2,1.5,0.5,2.5,0.8,2.8c0.3-0.5,0.4-1.2,0.2-2.2l-0.5-2.3c1.2,0.3,2.1,1,2.7,2.2
		c0.5,1.1,0.7,2.4,0.3,3.8c-0.7,0.3-1.5,0.1-2.2-0.6c-0.9-0.9-1.7-1.4-2.2-1.4l0.4-1c0-0.3-0.3-0.5-1-0.5c-0.3,0.1-0.3,0.2,0,0.4
		c0.4,0.2,0.5,0.5,0.3,0.8l-1.8-0.6l-1.8-0.6c0.4-0.2,0.6-0.7,0.7-1.5v-2.1L81.1,74.6 M78.8,74.5h0.9v-0.9h-0.9V74.5 M87.9,78.7
		c0.1,0.7,0.4,1.1,0.9,1.2v-2.1c0-0.8-0.3-1.2-0.9-1.2L87.9,78.7 M71.9,75.1c0.5,0,0.8-0.2,0.8-0.6c0-0.5-0.2-0.6-0.8-0.6V75.1
		 M71.9,77.2c0.7,0.1,1-0.3,0.9-1.2h-0.9V77.2"/>
</g>
</svg>
