<?xml version="1.0" encoding="utf-8"?>
<!-- Generator: Adobe Illustrator 26.0.1, SVG Export Plug-In . SVG Version: 6.00 Build 0)  -->
<svg version="1.1" id="Capa_1" xmlns="http://www.w3.org/2000/svg" xmlns:xlink="http://www.w3.org/1999/xlink" x="0px" y="0px"
	 viewBox="0 0 150.4 165.8" style="enable-background:new 0 0 150.4 165.8;" xml:space="preserve">
<style type="text/css">
	.st0{fill:url(#);}
	.st1{fill-rule:evenodd;clip-rule:evenodd;fill:url(#SVGID_1_);}
	.st2{fill-rule:evenodd;clip-rule:evenodd;fill:#FFFF00;fill-opacity:0.3961;}
	.st3{fill-rule:evenodd;clip-rule:evenodd;fill:#0066FF;fill-opacity:0.3922;}
	.st4{fill-rule:evenodd;clip-rule:evenodd;fill:#FF0000;fill-opacity:0.3882;}
	.st5{fill-rule:evenodd;clip-rule:evenodd;fill:#373535;}
	.st6{fill-rule:evenodd;clip-rule:evenodd;fill:#DBD0E8;fill-opacity:0.8;}
	.st7{fill:none;stroke:#FFFFFF;stroke-width:1.0335;stroke-miterlimit:6.0793;}
	.st8{fill-rule:evenodd;clip-rule:evenodd;fill:#FFFFFF;}
	.st9{fill-rule:evenodd;clip-rule:evenodd;fill:#C9B9DC;}
</style>
<g>
	<path class="st5" d="M74.2,32.9c0.1-0.5,0.2-0.5,0.4-0.2l0.1,1.1c-0.1,0.5-0.2,0.5-0.4,0.2C74.2,33.6,74.1,33.2,74.2,32.9"/>
	<path class="st5" d="M67.4,41.8c0.4-0.9,0.5-1.6,0.3-2c0.5,0.2,0.7,0.8,0.5,1.7l-0.5,1.8c-0.3-0.2-0.5-0.4-0.5-0.7
		C67.2,42.4,67.3,42.2,67.4,41.8"/>
	<path class="st5" d="M75.5,85.3l0.2,1.1c-0.1,0.5-0.2,0.5-0.4,0.1c-0.2-0.4-0.2-0.8-0.1-1.1C75.3,84.9,75.4,84.9,75.5,85.3"/>
	<path class="st5" d="M131.7,105.7c0.4,0.7,0.6,1.3,0.6,1.8c0,0.4-0.2,0.6-0.4,0.5c-0.2,0-0.4-0.2-0.4-0.6
		C131.3,106.9,131.4,106.4,131.7,105.7"/>
	<path class="st5" d="M131.2,110.7c0.3-0.7,0.4-0.6,0.5,0.1v1.9c-0.2,0.7-0.4,0.6-0.5-0.2V110.7"/>
	<path class="st5" d="M123.5,21.2l0.8,0.8l3-0.2l3,0.2l-4.8,0.7c-1.9,0-2.9-0.5-3.1-1.7c-9,1.2-17.1,3.8-24.3,8
		c-6.3,3.7-12.1,8.6-17.4,14.8c0.3,2,0.4,4.2,0.2,6.4l-0.7,6.9c0.7-0.2,1.4-0.7,2.2-1.3l2.2-1.8c2.1-1.6,4-2.6,5.9-2.8l3.2,0.3
		l3.2,0.7c2.4,0.2,6-0.2,10.6-1.1l5.1-0.8l4.6-0.1c1.9-1.3,3.5-3.2,4.8-5.9c0.8-1.6,1.8-4.2,2.9-7.7c1.2-3.6,2.1-6.2,3-7.8
		c1.3-2.7,2.8-4.7,4.7-5.9l-6.5,2.5l-7,2.1c-2.7,0.8-4.9,1.7-6.5,2.5c-2.2,1.1-4,2.3-5.2,3.8c0.7-1.4,2-2.6,3.8-3.6
		c1.5-0.9,3.5-1.7,6-2.6l6.8-2c2.8-0.8,5-1.5,6.6-2.2l0.6-0.5l0.5-0.7c0.5-0.4,0.9-0.4,1.4,0.1c-0.1,0.9-0.7,1.8-1.9,2.9
		c-1.5,1.3-2.3,2.2-2.5,2.6c-0.5,0.9-1,2.2-1.5,3.8l-1.3,4.7c-1.2,4.3-2.4,7.5-3.6,9.3l-2.8,3.2l-2.8,2.7c-1,1.1-1.6,2.1-1.9,3.2
		c-0.4,1.3-0.4,2.7,0,4.3c-1.2,1.4-2.5,3.3-3.8,5.8c-1.5,2.8-2.7,4.9-3.6,6.1c4.1,0.8,7.8,2.5,11.2,5c3,2.2,5.8,5.2,8.5,8.9
		c1.2,1.7,2.4,3.4,3.5,5.3c1.2,2,2,3.7,2.5,5.1c1,2.8,1.6,6,1.9,9.6c0.3,3.6,0.2,7.1-0.3,10.4c-0.6,3.6-1.5,6.6-2.8,9.1
		c-1.5,2.8-3.4,4.6-5.7,5.6c-1.2-3.7-2.2-6.4-3.1-8c-1.4-2.6-3.2-4.5-5.3-5.9c-0.9-0.6-2.1-1.1-3.6-1.6l-3.9-1.3
		c-3.1-1.1-5.2-2.6-6.4-4.4l-0.1,3v3.2c0,2.7-0.3,5.1-0.9,7.1c-0.3,1.1-1.4,2.8-3.2,5.2c-2.2,2.9-3.6,4.8-4.2,5.7l-2,4.4
		c-0.8,1.8-1.4,3.1-1.9,3.9c-0.8,1.2-1.7,2-2.8,2.4l-4.6-0.2l2-4.2c0.7-1.5,1-3,1-4.3c-0.1-0.7-0.7-1.2-1.8-1.5l-1.4-0.2l-1.2-0.3
		c-0.4-1.3-1.4-2.4-2.9-3.3c-1.9-0.9-3.2-1.7-4.1-2.2c-0.9,0.5-1.6,1.2-2.1,2.1l1.1-3.1l-0.2-1.9l-0.3-2l0.4-6.4
		c0.2-2.8,0.2-5.3,0.1-7.4c-1.1,1-1.9,2.4-2.4,4.4c-0.4,1.4-0.7,3.4-0.8,5.9l-0.5,6.4c-0.2,2.3-0.6,4.2-1.2,5.6
		c0-3.3,0.4-7.1,1-11.6l1.5-9.8l-5.4,3.6c-2.2,1.4-4.4,2.2-6.5,2.4c0.4-2.7,0.4-5.7-0.1-8.9l-1.4-8c-0.5-2.9-0.6-5.3-0.4-7.2
		c0.2-2.5,1-4.7,2.4-6.6c-2.5-0.4-5,1.2-7.5,4.8c-2.4,3.3-4.2,7.3-5.4,12.1c-1.6,6.3-1.9,12.9-1.1,19.8c0.8,7,2.7,12.2,5.5,15.5
		c2.9,0.9,5,2.5,6.5,4.9c1.3-0.2,2.5-0.1,3.6,0.4c0.5,0.2,1.4,0.8,2.6,1.8c1.1,0.8,2,1.2,2.8,1.4c1.1,0.2,2.4,0,3.8-0.6
		c0.1-0.7,0-1.4-0.2-2.2l-0.7-2.1c-0.6-1.7-0.6-3.1,0-4c-0.1,1.6,0.2,2.8,1,3.4c-1-2.1-1-4.5,0.2-7.2l1.3-2.6l-0.3,0.8
		c-0.4,1.2-0.5,2.9-0.5,5.1v5.5c0,2.1-0.3,3.7-0.8,4.9l-4.2-0.1c-0.8-0.3-1.8-0.8-2.8-1.5c-1.3-0.9-2.2-1.4-2.8-1.6
		c-1.1-0.5-2.3-0.7-3.6-0.7c-0.6-1.2-1.5-2.2-2.7-3c-1-0.8-2.2-1.4-3.8-1.9c-1.6-1.9-2.7-3.9-3.5-5.9c-0.9-2.4-1.4-5.1-1.4-8.1
		c-0.6,0.4-1.1,1.3-1.4,2.7l-0.6,3.3c-0.6,3.2-0.8,6.7-0.5,10.5c0.3,3.6,1,7.1,2,10.3c-1.4-2.3-2.3-4.9-2.6-7.8
		c-0.3-2.4-0.2-5.2,0.1-8.6l1.2-9.1c0.5-3.7,0.8-6.8,0.8-9.2c0-0.3-0.2-0.5-0.6-0.6l-1.2,0.1l-1.1-0.1l-0.1-0.1
		c0,2.5-0.2,5.3-0.6,8.4l-1.3,8.8c-0.5,3.4-0.7,6.2-0.6,8.5c0.1,3,0.6,5.7,1.5,8.1c-1.8-1.6-2.6-4.5-2.2-8.7l0.8-5.8l1-5.9
		c0.5-3.4,0.6-7.6,0.5-12.8l-0.3-6.7l-0.1-6.8c0.7,0.6,1.1,1.6,1.1,3.1l-0.3,4c-0.2,1.7-0.2,2.9,0,3.6c0.3,1.1,1,1.6,2.1,1.7
		c0.3-1.7,0.3-4.2-0.2-7.4c-0.6-3.8-0.9-6.4-0.8-7.9c0.2-3.8,0.9-7.2,2-10.3c1.2-3.2,2.9-5.7,4.9-7.5c-3.2,0.9-5.4,3.6-6.7,8.1
		c-0.9,3.2-1.3,7.3-1.2,12.3c-0.9-1.2-1.1-2.9-0.9-5.3c0.1-1.2,0.6-3.2,1.4-6.1l-8.5-3.2c-2.5-1.1-4.3-2.4-5.5-3.7
		c-0.9,0-1.9-0.4-2.9-1.1c-0.9-0.6-1.7-1.4-2.5-2.4c-1.6-2-3.1-4.8-4.5-8.2c-1.4-3.5-2.2-6.6-2.4-9.2c-0.2-2.8,0-5.8,0.6-8.9
		c0.5-2.3,1.3-5.1,2.4-8.5l2.8-8.2c0.9-3.1,1.5-5.8,1.6-8.1c2.2,0,3.7,0.6,4.5,1.8c0.6,0.9,0.9,2.4,1,4.6c-0.4-0.2-0.6-0.7-0.9-1.2
		l-0.4-1.7c-0.3-1.5-0.9-2.3-1.8-2.5c0.3,1.6,0.2,3.3-0.1,5.3l-1.1,5.3L24.2,46c-0.3,2-0.3,3.8,0,5.3l-0.3,0.4l-0.5-0.3
		c-0.4-0.6-0.5-1.1-0.2-1.6c-1.9,3.8-2.7,8.1-2.5,12.7c0.2,4.3,1.3,8.5,3.2,12.4c2,4,4.6,7.2,7.8,9.7c3.4,2.6,7.2,4.1,11.4,4.4
		l1.8-3.4c0.6-1.5,1.4-2.5,2.2-3l-6.6-3.9c-2.6-1.8-4.9-3-6.8-3.6c6.1-6.8,12.3-12.2,18.8-16.4c0.8,0.6,1.7,0.8,2.6,0.8
		c0.7,0,1.5-0.2,2.4-0.6l2.3-1.1c1-0.4,1.9-0.6,2.7-0.7c-0.6-0.8-1.2-1.9-1.8-3.2l-1.4-3.7c-1.3-3.3-2.7-5.6-4.2-6.9
		c-2.3-2.1-5.7-3.8-10.2-5l-5.8-1.4l-5.8-1.6c-0.5,0.6-0.6,1.5-0.3,2.7l0.5,1.5l0.3,1.3c-0.4,0.1-0.7-0.6-1.1-2.2l-0.9-3.7
		c0-0.3-0.1-0.5-0.4-0.7l-0.8-0.3c-0.7-0.3-0.9-0.7-0.8-1.4c1.8,1.2,4.3,2.2,7.3,3.2l8.2,2.4c3.1,0.9,5.6,1.9,7.5,3
		c2.5,1.4,4.4,3.2,5.8,5.3c-0.7-2.4-0.8-4.6-0.2-6.6c0.4-1.3,1.2-2.9,2.5-4.8l2.8-4.8c0.8-2,1.1-4.2,0.8-6.5
		c9.1,2.4,14.6,8.9,16.4,19.3c3.1-3.5,6.2-6.6,9.5-9.2c3.8-3,7.9-5.6,12.3-7.7c3.6-1.7,6.9-3.1,9.9-4c3.9-1.2,7.2-1.7,10-1.5
		C122.8,20.5,123.2,20.7,123.5,21.2 M92.5,61.1c-2,0.7-3.5,1.5-4.8,2.2c-1.6,0.9-2.8,2-3.7,3.2c0.8,0.7,1.3,1.6,1.5,2.9
		c0.2,0.1,0.7-0.1,1.4-0.4c0.6-0.3,0.9-0.1,1.1,0.4l-1.6,0.4c-0.6,0.2-0.9,0.6-0.9,1.1c-0.1,0.6,0.1,1,0.6,1.4
		c0.6,0.4,0.9,0.8,0.9,1.1c3.2-0.1,6.7-0.5,10.4-1.3l4.7-1.1l5.3-1.1l1.2-2.7c0.4-1.1,0.6-2.1,0.7-3.2l1.8-1.3
		c0.7-0.7,0.8-1.2,0.2-1.6c0,0.3-0.1,0.4-0.4,0.4c-0.3,0-0.5-0.1-0.6-0.4l2.5-0.4c0.7-0.4,1-1.2,1-2.6c-0.3-0.1-1,0.2-2,0.7
		c-0.8,0.4-1.3,0.3-1.5-0.2l1.8-0.5l1.7-0.5c-0.3-1.1,0-2.4,0.8-3.8l0.8-1.4c0.2-0.5,0.2-0.9,0-1.2c-0.1,0.5-0.5,1-1.4,1.4l-1.6,0.1
		l2-1c0.8-0.4,1.3-0.9,1.5-1.5c-1.6,0.1-3.5,0.5-5.6,1.4c-2.5,0.9-4.3,1.5-5.3,1.6l0.2-0.5l0.3-0.5l-3.3,0.3l-3.6,0.8
		c-3.2,0.5-5.9,0.2-8-1c-0.5,1-1.5,1.9-3.1,2.8l-4.3,1.8c-1.7,0.7-2.8,1.5-3.4,2.4c-0.9,1.2-1.1,2.6-0.6,4.4l2.8-0.9l2.1-1
		c-0.1,0.4-0.4,0.8-1.1,1.3c-0.6,0.5-0.9,1-0.9,1.6c0.7,0.6,1.6,0.7,2.5,0.4c0.6-0.2,1.5-0.8,2.6-1.6l2.6-1.8
		C90.8,60.9,91.7,60.8,92.5,61.1 M89.1,52.7c-1.3,0.4-2.4,0.7-3.2,1.1c-1.2,0.6-1.7,1.3-1.3,1.9l2.7-1.1
		C88.2,54.1,88.8,53.5,89.1,52.7 M94,52.6c0.6,0.1,1.3-0.1,2-0.4l-2.3-0.4c-0.5,0.1-0.6,0.2-0.6,0.4C93.2,52.4,93.5,52.6,94,52.6
		 M80.1,51.7c0.3-4.4,0-8.6-1-12.6c-1.1-4.1-2.7-7.2-4.9-9.2c-0.2,0.4-0.1,0.9,0.2,1.4l0.2,0.4c0,0.1-0.1,0.2-0.4,0.2l-0.9-2.8
		c-0.5-1-1.1-1.5-2-1.6c-0.1,0.2,0,0.6,0.4,1.2c0.3,0.4,0.2,0.6-0.4,0.8c0-1.4-0.7-2.5-2-3.3c-0.7-0.4-1.9-1-3.5-1.6l1.9,5
		c0.6,2.2,0.6,4,0.1,5.4l-0.5-2.6l-0.4-2.8c-0.4-2.2-1.1-3.7-2-4.4c0.1,1.2,0,2.8-0.3,4.8c-0.4,2.5-0.6,4.2-0.6,5v-2
		c0.1-0.9-0.1-1.3-0.5-1.4C63.2,32,63,33,63,34.6s-0.1,2.5-0.5,2.9v-2c0.1-0.9-0.1-1.4-0.5-1.5c-1.3,1.5-2.2,3.2-2.6,5.2
		c-0.4,2.2-0.1,4.2,1.1,5.8c-0.9,2.2-1.1,4.2-0.5,6.2c0.4,1.4,1.4,3,2.9,4.8l1.9,2.1l1.6,2.2c1.1,1.7,1.6,3.4,1.5,5l1,0.8l1,1.2
		l1.2-1.8l1.2-1.7l-1.2-2.1c-0.5-1-0.6-1.6-0.3-1.8l1.1,2.3c0.5,1,0.9,1.7,1.4,2.1c0-0.3,0.3-0.5,0.8-0.5h1.2l-0.1-2
		c-0.1-0.9,0.1-1.4,0.6-1.4l-0.1,1.8c-0.1,0.8,0.1,1.2,0.6,1.2c0-0.5,0.3-0.7,0.9-0.5l1,0.5c0-1.2,0.3-2.9,0.9-5.3
		C79.7,55.1,80,53.1,80.1,51.7 M80.4,65.4c0.3,0.5,0.2,0.7-0.3,0.6c-0.1-0.9-0.6-1.6-1.4-2.1c-0.9-0.6-1.8-0.6-2.5,0.1
		c0.5,0.1,0.9,0.6,1.2,1.4c0.4,0.8,0.3,1.4-0.2,1.6c0.1-0.8-0.1-1.6-0.6-2.3c-0.5-0.8-1-0.8-1.4-0.2c0.3,0.1,0.6,0.4,0.8,1
		c0.3,0.6,0.2,0.9-0.3,1c0-0.5-0.1-0.9-0.4-1.3c-0.4-0.5-0.6-0.9-0.6-1.2c-0.4-0.1-0.8,0.1-1.2,0.4l-1.3,0.1c0.2,1.1,0.2,2-0.1,2.5
		c-0.3,0.7-0.4,1.3-0.4,1.9c-0.5-0.3-0.6-0.9-0.3-1.9l0.2-0.9c0-0.3-0.1-0.5-0.4-0.6c-1,2-1.3,4-1,6c0.3,1.6,1.1,3.3,2.3,5.1
		l3.7,4.5c1.7,1.9,2.8,3.3,3.4,4.3c0.1-0.4,0.5-0.6,1-0.5l-0.2-1.1l-0.2-0.9h2.5c0-0.9,0.1-1.6,0.5-2.1s1.1-0.6,2-0.4
		c-0.2-0.7-0.1-1.2,0.2-1.5c0.2-0.2,0.6-0.4,1.2-0.4l1.5-0.2c0.5-0.1,0.8-0.4,1-0.8c-1-0.6-1.8-1.7-2.5-3.2L85,69.9
		c-0.7-1.8-1.3-3-2-3.8c-0.9-1.1-2-1.6-3.4-1.4C79.9,64.6,80.2,64.9,80.4,65.4 M90.5,73.5c0.2,0.5,0.5,0.8,1.1,1l1.9,0.2l1.8,0.3
		c0.6,0.2,1,0.5,1.2,0.9l-4.9-1l-4-0.5l0.9,1.1l0.6,1.4c0.5,1.1,1.2,1.8,2,2l0.4,0.5l0.5-0.2c0.6-0.4,1.1-0.5,1.5-0.3l0.8,1.1
		l0.7,1.3c2-0.1,3.6,0.6,4.8,2.1l1.4,2.2l1.3,2.1l-1.7,6c-0.6,2.4-0.7,4.4-0.2,5.9c-0.3,0.5-0.7,0.6-1.4,0.2l-0.6-0.2
		c-0.2,0-0.4,0.1-0.5,0.4c1.4,1,2.9,1.9,4.5,2.6c2,0.8,3.6,1.1,5,0.9l-1.2-1.2c-0.5-0.6-0.4-1,0.2-1.2c0.2,1.4,0.9,2.4,2.3,3.1
		c1.4,0.7,2.6,0.5,3.7-0.6c-1.4-0.5-2.6-1.6-3.5-3.3c-1-1.7-1.3-3.2-1-4.6c0.5,3.8,2.3,6.4,5.5,7.9l-1.4-3.3l-1.7-3.1
		c-1.3-2.5-1.8-4.4-1.5-5.9c0.3,0.2,0.6,0.8,1,1.8c0.3,0.9,0.6,1.4,1,1.6c0.3-1.5,0.3-2.8-0.1-3.8c-0.3-0.8-0.9-1.6-1.7-2.3
		l-2.1-1.9c-0.8-0.7-1.3-1.5-1.6-2.4l0.8-2.4c0.2-1,0.1-1.8-0.2-2.5c-1.2,0.1-2.1-0.1-2.9-0.6c-0.5-0.4-1.1-1-1.6-1.9l-1.4-2.1
		c-0.6-0.7-1.3-1.2-2.1-1.4c2.9,0.3,5.1,1.6,6.9,3.8c0.7,0.9,1.3,2,2,3.4l1.6,3.8l1.7,3.1c0.7,1.3,1.2,2.2,1.3,2.9
		c0.2,0.8,0.2,2,0,3.7s-0.2,2.9,0,3.8l0.7,1.8l1,1.7c0.8,1.3,1,2.5,0.8,3.5l-6.3,0.1c-1.1-0.2-2.9-0.7-5.6-1.6
		c0.6,2.3,1.6,4.3,3.2,5.9c1.2,1.2,2.9,2.4,5.2,3.5c0.7,0.3,2,0.8,4,1.4c1.8,0.5,3.1,1,4,1.6c1.8,1.1,3.4,2.9,4.7,5.2l1.6,3.1
		l2.1,3.1c0.3-1.6,0.9-3.4,1.7-5.2l2.2-4.7c0,1-0.3,2.1-0.8,3.3l-1.5,2.9c-0.6,1.2-1,2.1-1.2,2.9c-0.3,1.1-0.3,2.2,0,3.2
		c2.1-1.6,3.8-4,5.1-7.3c1.2-3,1.9-6.5,2.1-10.4c0.2-3.8-0.1-7.4-0.8-10.9c-0.8-3.6-1.9-6.6-3.5-9.1c0.1,1.2,0.6,3.3,1.3,6.2
		c0.5,2.6,0.4,4.5-0.3,5.6c0.2-4.5-0.6-9-2.4-13.5c-1.8-4.4-4.2-8.2-7.3-11.3c-3.3-3.3-7-5.5-11-6.5c-4.4-1.1-8.9-0.8-13.5,1
		c-0.8-0.1-2.1-0.1-3.6,0.1H90.5 M110.4,65.6l0.5-1.1c0.2-0.6,0-0.9-0.5-0.9c0.1,0.3,0,0.7-0.4,1.2
		C109.7,65.2,109.9,65.4,110.4,65.6 M25.1,29.4c-0.3,2.2-1,4.8-2,8.1l-2.9,8.4c-1.1,3.4-1.8,6.4-2.2,8.9c-0.5,3.3-0.6,6.4-0.2,9.3
		c0.5,4,1.8,7.7,3.9,11.1c1.8,3,4.2,5.7,7.2,8.1L28.7,83c-3.1-4.2-5.3-7.9-6.5-10.9c-1.9-4.7-2.5-9.7-1.9-14.9
		c0.2-1.8,0.8-4,1.7-6.7l2.2-6.8c0.8-2.7,1.4-5,1.5-7C25.9,34,25.7,31.6,25.1,29.4 M36.6,73.9c0.6,0,0.9,0.1,0.9,0.6h-1.2
		c-0.4,0-0.7,0.2-0.8,0.5c2,1.2,4.3,2.2,6.9,3l-0.6,0.1c-0.3,0.1-0.4,0.2-0.4,0.4l0.7,0.4l0.8-0.2l0.8-0.2c0.3,0,0.5,0.2,0.6,0.6
		l-1.1,0.1c-0.3,0.1-0.4,0.4-0.4,0.9c0.9,0.7,2.1,1,3.8,0.8l2.1-0.3l2.1-0.1c0.5,0.1,1.1,0.3,2,0.8c0.8,0.4,1.5,0.7,2,0.8
		c2.1,0.2,3.8,0,5.1-0.7c1.5-1,2.9-1.8,4.3-2.2l3.5-1.3c0.9-0.5,1.2-1.4,1-2.7c-0.6-0.2-1.2-0.6-1.9-1.1c-0.5-0.4-1.2-0.7-2.1-0.9h2
		c0-1-0.2-1.8-0.7-2.5c-0.4-0.5-0.9-1-1.8-1.5l0.2-0.4l0.3,0.1c0.4,0.2,0.7,0.2,0.9-0.2c0.2-0.6,0-1-0.5-1.2l-0.6-0.3l-0.4-0.4
		c0.7,0.2,1,0,1.1-0.7l-0.1-1.8l-1.2-0.2l0.5-0.3l0.6-0.4l-1.4-0.3c-0.5-0.1-0.9-0.4-1-0.7l1.6,0.2l1.4,0.3c0.2-1,0.1-1.9-0.3-2.6
		l-1.2-1.8c-1.9-0.3-3.7-0.1-5.2,0.4c-0.7,0.3-2,1-3.7,2.1c-2-1.1-4.1-0.8-6.4,0.8c-1.3,0.9-2.9,2.5-5,4.6l1.4-0.4
		c0.5-0.3,0.9-0.1,1.1,0.4c-1.3,0.1-2.4,0.4-3.2,0.7c-1,0.4-1.7,1-2.2,1.8c0.3,0.2,0.7,0.1,1.2-0.3c0.4-0.3,0.7-0.2,0.8,0.3
		c-1.7,0.2-3.2,0.9-4.5,2.2l-1.6,1.7L35,74.4L36.6,73.9 M59.5,44.3c-0.2-0.8-0.6-1.5-1.1-2c0,2,0.3,3.5,1,4.4
		C59.7,46,59.7,45.2,59.5,44.3 M65.7,64.6l1,5.7c0.5,2.1,1.3,3.5,2.5,4.2c0.7-1.7,0.5-3.8-0.5-6.2c-0.4-1-0.9-1.8-1.4-2.5
		C66.8,65,66.2,64.6,65.7,64.6 M67.7,65.1c-0.2-1.3-0.7-2.3-1.5-3C66.4,63.4,66.9,64.4,67.7,65.1L67.7,65.1 M70.4,74.8
		c-0.1-0.5-0.3-0.8-0.6-0.8c0,1.1-0.3,2.3-1,3.7l-2,3.8c0-0.4,0.1-0.8,0.4-1.2c0.3-0.4,0.3-0.8,0.1-1.3c-1.3,0.4-2.2,1.2-2.8,2.4
		c-0.6,1.2-0.6,2.6-0.2,4.1c-0.7,0.2-1.3,0.4-1.8,0.8l0.6-0.9l0.2-1.2c0-0.5-0.2-0.9-0.5-1.1l-2,3.4c0.5,0.2,1,0.2,1.3,0
		c-0.6,0.4-1.1,0.8-1.4,1.3c-0.6,0.8-0.8,1.9-0.8,3.3c0,0.8,0.2,2.2,0.6,4.2l0.7,5c0.9,0.9,1.5,2,1.6,3.3c0.1,1,0.1,2.3-0.2,3.8
		l-1,3.9c-0.3,1.4-0.4,2.6-0.3,3.4l2.8-4.6l2.6-4.8c-0.2,1.4-1,3.2-2.3,5.5c-1.3,2.2-2,3.7-2.1,4.4c1.5-0.5,3.1-1.7,4.8-3.7l1.9-2.2
		l0.3-0.3v-0.2h0.2l1.3-1c0.1,0.3-0.1,0.9-0.5,1.8c-0.3,0.7-0.3,1.1,0,1.2c0.3-0.4,0.7-1.2,1-2.7c0.3-1.2,0.8-2,1.4-2.3l-0.9,2.2
		c-0.4,1-0.5,1.6-0.1,1.8c1.2-0.7,2.2-1.7,3.2-2.9c1.1-1.3,1.9-2.7,2.5-4.2c1.4-3.6,1.1-6.7-0.8-9.2c0-0.3,0-0.7,0.2-1l0.3-0.9
		l-0.4-0.5l-0.6-0.3c-0.5-0.2-0.7-0.6-0.5-1.2c0.7-0.2,1.3-0.8,1.8-1.8l0.5-1.2l0.7-1l-1.4-2.1l-1.5-1.9l-0.2,1l-0.1-0.5
		c-0.2-1-0.4-1.5-0.6-1.5c-0.4,0.2-0.6,1-0.5,2.3s-0.1,2-0.5,2.2l0.1-2.4l0.2-2c0-1.3-0.6-2.1-1.8-2.5l-0.2,2.5
		c-0.2,0.9-0.6,1.4-1.2,1.4c0-0.4,0.1-0.9,0.4-1.5l0.6-1.6c0.5-1.2,0.3-2-0.5-2.3l-0.5,1.4l-1,1.1c-0.1-0.6,0.2-1.2,0.7-1.8
		c0.5-0.6,0.8-1.2,0.8-1.7C70.8,75.5,70.6,75.3,70.4,74.8 M64.3,79.5c-0.7,0.7-2.1,1.5-4.3,2.3c-2.1,0.8-3.5,1.7-4.1,2.6
		c2.3,0.4,4.3-0.1,6-1.4C63.3,82,64.2,80.8,64.3,79.5 M58.8,96.1c0.4,1.3,1,2.2,2,2.7c0-1.3-0.2-2.4-0.6-3.5c-0.3-1-0.8-1.9-1.4-2.9
		C58.5,93.6,58.5,94.9,58.8,96.1 M52.4,81.4c-2,0.8-3.6,2.4-4.9,4.8c-1.2,2.2-2.1,4.9-2.6,8.1c-0.5,3-0.6,6-0.3,9.1
		c0.3,3.2,0.9,5.9,1.9,8.2c-0.1-5.3,0.8-10.3,2.7-15.1c1.7-4.3,4.1-8.2,7.2-11.6c-0.7,0.1-1.2-0.3-1.5-1l-0.5-2h-1.2
		C52.7,81.9,52.5,81.7,52.4,81.4 M56,82.5c-0.3,0.2-0.5,0.3-0.6,0.4c-0.2,0.4,0,0.5,0.7,0.2s1-0.5,0.8-0.7L56,82.5 M43,115v-0.8
		C42.9,114.5,42.9,114.8,43,115 M75.2,108.2c-0.4,1.9-0.5,4.8-0.2,8.7c0.4,4.3,0.4,7.5,0.2,9.6l2.3,1.2l2.3,1.1
		c1.6,1,2.7,2.2,3.3,3.7c1.4-0.2,2.8,0.2,4.1,1.3c1.2,0.9,2,2.1,2.5,3.6s0.6,2.7,0.1,3.6c-0.6,1.1-1.7,1.5-3.3,1.4
		c1.6-0.2,2.8-0.8,3.4-2c-0.1-2.2-0.9-3.7-2.4-4.4c0.1,1.2-0.3,2.7-1.3,4.3l-0.9,1.7c-0.2,0.6-0.3,1.1-0.2,1.5
		c2.8,0.5,4.6-0.5,5.4-2.8l0.6-3.4l0.4-3.7v3.3c-0.1,1.4,0.1,2.3,0.5,2.7c0.4-1.4,1.3-3.2,2.7-5.3l3.8-5.9c1.5-2.4,2.6-4.6,3.4-6.6
		c1-2.6,1.5-5,1.6-7.4c0.1-3.5-0.3-6.4-1.2-8.7c-1-2.5-2.6-4.1-4.7-4.8c0.1,0.7,0,1.3-0.3,1.7c-0.2,0.3-0.6,0.5-1.2,0.8
		c-0.5-0.6-1-1-1.5-1l-1.2,0.2l-1.3,0.5l-1.9-0.2v1.7c-0.1,0.5-0.4,0.8-0.9,0.8c-0.5-0.5-1.1-0.6-1.8-0.3l-1,0.3l-0.9,0.3l-2.5-1.8
		l-2.5-1.7c0.1-0.8-0.1-1.6-0.5-2.3c-0.3-0.6-0.3-1.3,0-2.1c-0.9,0.3-1.4,1-1.5,2.2l-0.1,1.6l-0.4,1.6l-1.5,2.4
		C75.8,106.7,75.3,107.5,75.2,108.2 M60.6,105.3c0.1,2.3,0.3,4.3,0.7,5.9c1.3-5.4,1-9.2-1-11.4L60.6,105.3 M68.8,110l-0.6,1.2
		c0.6,0.2,1.1-0.1,1.4-0.9c0.3-0.7,0.2-1.2-0.1-1.5l-0.2,0.2L68.8,110 M28.8,83.2l0.2,0.2h0.1L28.8,83.2 M106.6,85.6
		c0.5,1.2,1.2,1.8,2.2,1.8l-0.8-2.6c-0.3-1.1-0.7-1.9-1.1-2.3C106.3,83.3,106.2,84.4,106.6,85.6 M102.7,77.8l0.9,0.4
		c0.7,0.3,1.2,0.3,1.4-0.2l-1.8-1.6c-0.8-0.7-1.3-0.9-1.7-0.4l0.5,0.5v1L102.7,77.8 M98.5,84.4c-0.5,1.7-1.2,2.9-2.2,3.7
		c-1.2,0.9-2.7,1.3-4.7,1.2c-0.1,0.7,0,1.4,0.5,2.3s0.6,1.4,0.5,1.6c-0.8-0.6-1.6-0.6-2.4,0c-0.6,0.4-1.1,1.1-1.5,2
		c-0.5-1.5-1.2-2.5-2.1-2.8l-4.4-0.2l-1.4-1.1l-1.5-1.4c-1.3-1-2.3-1-3,0c0.9,0,1.4,0.5,1.4,1.5c0.1,0.7-0.1,1.6-0.4,2.4
		c1.5-0.2,2.2,0.1,2.3,1c0,0.6-0.2,1.4-0.9,2.5c0.8-0.2,1.5-0.1,2,0.2l1,1.2c0.3-0.6,1-1.3,2-2.1c1-0.7,1.7-1,2-0.9
		c-0.5,0.7-1.2,1.4-2.4,2.1l-2.6,1.8c0.4,0,0.6,0.3,0.6,1l-0.1,1.5l1.5,0.2l1.5,0.2l0.8-1.7c0.3-0.7,0.7-1.1,1.2-1.3l-1.2,2.2
		c-0.7,0.9-1.1,1.6-1.2,2.2l1.9,0.3l1.3-0.3l1.1-0.2c0.4,0,0.8,0.3,1.2,0.7c0.5-0.6,0.5-1.6,0.1-2.9L89,99.9c-0.1-0.5,0-0.8,0.3-1.1
		l0.4,1.6l0.5,1.4l1.4,0.2c0.4,0.3,0.8,0.4,1.1,0.3l0.4-1.8c0.1-0.9,0.3-1.5,0.6-1.7c-0.2,1.1,0,2,0.8,2.5l1.1,0.5
		c0.5,0.2,0.9,0.4,1,0.5c0.4-0.5,0.6-1,0.5-1.5l-0.4-1.4l-0.5-1.3c-0.1-0.5,0.1-0.9,0.4-1.2c-0.1,0.5-0.1,0.9,0.2,1.3
		c0.3,0.4,0.4,0.8,0.3,1.1l1.9-0.2c0.6,0.1,1-0.2,1.1-0.8c-1-0.4-1.2-1-0.7-1.8l0.8-1.1l0.5-1.1l-4,0.2c-1.5-0.3-2.5-0.9-3-1.8
		c0.5,0.4,1.2,0.7,2.3,0.9l2.6,0.6c0.8-0.2,1.4-0.9,1.8-1.9l0.5-1.4l0.7-1.1c-0.4-0.2-0.8-0.1-1.2,0.6l-0.4,0.4l-0.3-0.4
		c1.2-0.7,2-1.9,2.5-3.5c-0.8,0.2-1.3-0.2-1.4-1.1l-0.1-1.1l-0.4-0.8h-1.8 M110.4,95.5l-1.1-1.2c0.2,1.3,0.7,2.3,1.5,3
		C111,96.6,110.8,96,110.4,95.5 M98,83.4c-0.4-1-1.6-1.4-3.5-1.4c0.1,1.2-0.2,1.9-1,2c0.7-0.8,0.7-2.2,0-4.4c-0.3,0-0.7,0.1-1.3,0.3
		L90.5,80c0,2.7-0.2,4.9-0.6,6.8s-1,3.5-1.9,4.7c-0.1-0.4-0.1-1,0.1-1.8l0.8-2.4c0.9-2.3,1.2-4.1,1-5.2c-0.2-1.7-0.6-2.7-1.2-2.9
		c-0.5-0.2-1.6-0.1-3.2,0.5c-0.1,0.5-0.1,0.9,0.2,1.3c0.3,0.4,0.4,0.8,0.3,1.2c-0.2,0-0.5-0.3-1-0.8c-0.4-0.3-0.9-0.4-1.5-0.2
		c0.1,0.9,0,1.6-0.4,2.3L82,85.2c0-0.8-0.3-1.3-1-1.5c0.1,1-0.3,1.7-1.1,2.3l-1,0.7c-0.4,0.3-0.7,0.6-0.8,0.9
		c0.2,0.8,0.7,1.5,1.5,2.3c0.7,0.7,1.6,1.3,2.5,1.7l2.8,0.3c0.9-0.2,1.6-0.8,2.1-1.8c0.4,0.4,0.5,0.8,0.4,1.1l-0.9,0.9
		c0.3,0,0.7,0.3,1.1,0.9c0.3,0.5,0.8,0.7,1.4,0.6l0.9-0.6c0.2-0.4,0.6-0.5,1.1-0.4c0.2-0.8,0.1-1.6-0.2-2.2L90,88.6
		c1.2,0.7,2.5,0.9,4,0.4c1.3-0.5,2.4-1.3,3.3-2.4C98.2,85.2,98.4,84.2,98,83.4"/>
	<path class="st5" d="M76.2,32.9c-0.1,0.5,0.1,0.8,0.5,0.9c0.2,1.6,0.1,2.6-0.2,3c-0.1,0.1-0.2,0-0.2-0.4v-2.1
		c-0.2-0.2-0.4-0.5-0.5-0.8C75.7,33.1,75.9,32.9,76.2,32.9"/>
	<path class="st5" d="M125.7,31.4c-0.7,0.8-1.7,1.3-3,1.5C123.5,32.1,124.4,31.6,125.7,31.4"/>
	<path class="st5" d="M123.3,33.7c0.6-0.3,1.1-0.4,1.5-0.4l-1.5,1C122.7,34.2,122.7,34,123.3,33.7"/>
	<path class="st5" d="M34,43.3c0.4,0.3,0.7,0.8,1,1.4c-0.1,0.6-0.3,0.6-0.6,0C34.1,44.1,34,43.6,34,43.3"/>
	<path class="st5" d="M100.9,57.2l4.5-1.1c-0.6,0.7-1.7,1.3-3.4,1.6L99.9,58l-2,0.6C98.1,58.1,99,57.7,100.9,57.2"/>
	<path class="st5" d="M43.6,73.1C41.5,73.7,39.7,74,38,74c0.2-0.3,1.3-0.6,3.1-1l2.9-0.5c0.8-0.1,1.2-0.1,1,0L43.6,73.1"/>
	<path class="st5" d="M98,77l1-0.1l0.6,0.5c0.1,0.2,0,0.3-0.2,0.3L98,77"/>
	<path class="st5" d="M70.7,86.4c0.5,1.5,0.5,3.6,0,6.1l-0.6,3.2c-0.2,1.2-0.4,2.2-0.4,3c-0.3,0.1-0.6,0.4-0.8,1
		c-0.2,0.6-0.4,0.9-0.8,1l1.6-6.8C70.3,91.4,70.6,88.8,70.7,86.4"/>
	<path class="st5" d="M114.8,105.7c0.9-0.2,2.1,0.3,3.5,1.5l1.8,1.6c0.7,0.6,1.2,1.1,1.7,1.4l-3.1-1.9
		C117,106.9,115.7,106,114.8,105.7"/>
	<path class="st5" d="M115.3,110.2c0.6-0.6,1.3-0.5,2.2,0.1l1.1,0.8l1.1,0.6c-0.3,0.3-0.9,0.2-1.9-0.4
		C116.7,110.5,115.9,110.1,115.3,110.2"/>
	<path class="st5" d="M121.3,113.7c0-0.3,0.1-0.3,0.3,0.1l0.6,1.1l0.1,0.5L121.3,113.7"/>
	<path class="st5" d="M70.7,135.5c-0.4,0.1-0.6-0.1-0.8-0.5c-0.1-0.3-0.2-0.6-0.2-1c0.1-0.4,0.2-0.5,0.4-0.4
		C70.3,133.8,70.5,134.4,70.7,135.5"/>
</g>
</svg>
